SplineFontDB: 3.2
FontName: GESSTextMedium-Medium
FullName: GE SS Text Medium
FamilyName: GE SS Text Medium
Weight: Medium
Copyright: Copyright (c) Boutros International, 2004. All rights reserved.
Version: 002.001
ItalicAngle: 0
UnderlinePosition: -100
UnderlineWidth: 50
Ascent: 800
Descent: 200
InvalidEm: 0
sfntRevision: 0x00021999
LayerCount: 2
Layer: 0 0 "Back" 1
Layer: 1 0 "Fore" 0
XUID: [1021 765 -479628315 22594]
StyleMap: 0x0000
FSType: 0
OS2Version: 2
OS2_WeightWidthSlopeOnly: 0
OS2_UseTypoMetrics: 0
CreationTime: 1096241025
ModificationTime: 1736776466
PfmFamily: 17
TTFWeight: 500
TTFWidth: 5
LineGap: 180
VLineGap: 0
Panose: 2 10 5 3 2 1 2 2 2 4
OS2TypoAscent: 825
OS2TypoAOffset: 0
OS2TypoDescent: -240
OS2TypoDOffset: 0
OS2TypoLinegap: 180
OS2WinAscent: 917
OS2WinAOffset: 0
OS2WinDescent: 415
OS2WinDOffset: 0
HheadAscent: 825
HheadAOffset: 0
HheadDescent: -240
HheadDOffset: 0
OS2SubXSize: 650
OS2SubYSize: 600
OS2SubXOff: 0
OS2SubYOff: 75
OS2SupXSize: 700
OS2SupYSize: 650
OS2SupXOff: 0
OS2SupYOff: 245
OS2StrikeYSize: 50
OS2StrikeYPos: 259
OS2CapHeight: 667
OS2XHeight: 494
OS2FamilyClass: 2054
OS2Vendor: '1BOU'
OS2CodePages: 00000040.00000000
OS2UnicodeRanges: 80002003.80000100.00000028.00000000
Lookup: 1 0 0 "'aalt' Access All Alternates in Latin lookup 0" { "'aalt' Access All Alternates in Latin lookup 0 subtable"  } ['aalt' ('latn' <'dflt' > ) ]
Lookup: 3 0 0 "'aalt' Access All Alternates in Latin lookup 1" { "'aalt' Access All Alternates in Latin lookup 1 subtable"  } ['aalt' ('latn' <'dflt' > ) ]
Lookup: 4 1 0 "'ccmp' Glyph Composition/Decomposition in Arabic lookup 2" { "'ccmp' Glyph Composition/Decomposition in Arabic lookup 2 subtable"  } ['ccmp' ('arab' <'dflt' > ) ]
Lookup: 4 1 0 "'ccmp' Glyph Composition/Decomposition in Arabic lookup 3" { "'ccmp' Glyph Composition/Decomposition in Arabic lookup 3 subtable"  } ['ccmp' ('arab' <'dflt' > ) ]

StartChar: .notdef
Encoding: 65536 -1 0
Width: 500
GlyphClass: 1
Flags: W
LayerCount: 2
Fore
SplineSet
63 0 m 1
 438 0 l 1
 438 750 l 1
 63 750 l 1
 63 0 l 1
125 63 m 1
 125 688 l 1
 375 688 l 1
 375 63 l 1
 125 63 l 1
EndSplineSet
EndChar

StartChar: behinitialarabic
Encoding: 65169 65169 5
Width: 311
GlyphClass: 1
Flags: W
LayerCount: 2
Fore
SplineSet
281 130 m 1
 281 129 280 207 279 365 c 1
 173 365 l 1
 174 340 174 306 175 265 c 0
 176 238 176 205 176 166 c 0
 176 121 147 97 108 97 c 2
 -10 97 l 1
 -10 0 l 1
 147 0 l 2
 234 0 281 50 281 130 c 1
184 -152 m 1
 184 -51 l 1
 88 -51 l 1
 88 -152 l 1
 184 -152 l 1
EndSplineSet
EndChar

StartChar: tehinitialarabic
Encoding: 65175 65175 6
Width: 311
GlyphClass: 1
Flags: W
LayerCount: 2
Fore
SplineSet
273 446 m 1
 273 547 l 1
 177 547 l 1
 177 446 l 1
 273 446 l 1
128 446 m 1
 128 547 l 1
 32 547 l 1
 32 446 l 1
 128 446 l 1
281 130 m 1
 281 129 280 207 279 365 c 1
 173 365 l 1
 174 340 174 306 175 265 c 0
 176 238 176 205 176 166 c 0
 176 121 147 97 108 97 c 2
 -10 97 l 1
 -10 0 l 1
 147 0 l 2
 234 0 281 50 281 130 c 1
EndSplineSet
EndChar

StartChar: thehinitialarabic
Encoding: 65179 65179 7
Width: 311
GlyphClass: 1
Flags: W
LayerCount: 2
Fore
SplineSet
202 578 m 1
 202 678 l 1
 105 678 l 1
 105 578 l 1
 202 578 l 1
274 446 m 1
 274 547 l 1
 178 547 l 1
 178 446 l 1
 274 446 l 1
129 446 m 1
 129 547 l 1
 33 547 l 1
 33 446 l 1
 129 446 l 1
281 130 m 1
 281 129 280 207 279 365 c 1
 173 365 l 1
 174 340 174 306 175 265 c 0
 176 238 176 205 176 166 c 0
 176 121 147 97 108 97 c 2
 -10 97 l 1
 -10 0 l 1
 147 0 l 2
 234 0 281 50 281 130 c 1
EndSplineSet
EndChar

StartChar: jeeminitialarabic
Encoding: 65183 65183 8
Width: 566
GlyphClass: 1
Flags: W
LayerCount: 2
Fore
SplineSet
536 0 m 1
 536 103 517 187 478 253 c 0
 429 334 355 375 258 375 c 0
 180 375 121 358 81 323 c 1
 122 241 l 1
 150 264 194 275 255 275 c 0
 350 275 408 216 428 98 c 1
 -12 98 l 1
 -12 0 l 1
 536 0 l 1
323 -152 m 1
 323 -51 l 1
 227 -51 l 1
 227 -152 l 1
 323 -152 l 1
EndSplineSet
EndChar

StartChar: hahinitialarabic
Encoding: 65187 65187 9
Width: 566
GlyphClass: 1
Flags: W
LayerCount: 2
Fore
SplineSet
536 0 m 1
 536 103 517 187 478 253 c 0
 429 334 355 375 258 375 c 0
 180 375 121 358 81 323 c 1
 122 241 l 1
 150 264 194 275 255 275 c 0
 350 275 408 216 428 98 c 1
 -12 98 l 1
 -12 0 l 1
 536 0 l 1
EndSplineSet
EndChar

StartChar: khahinitialarabic
Encoding: 65191 65191 10
Width: 566
GlyphClass: 1
Flags: W
LayerCount: 2
Fore
SplineSet
319 446 m 1
 319 547 l 1
 222 547 l 1
 222 446 l 1
 319 446 l 1
536 0 m 1
 536 103 517 187 478 253 c 0
 429 334 355 375 258 375 c 0
 180 375 121 358 81 323 c 1
 122 241 l 1
 150 264 194 275 255 275 c 0
 350 275 408 216 428 98 c 1
 -12 98 l 1
 -12 0 l 1
 536 0 l 1
EndSplineSet
EndChar

StartChar: seeninitialarabic
Encoding: 65203 65203 11
Width: 779
GlyphClass: 1
Flags: W
LayerCount: 2
Fore
SplineSet
744 150 m 2
 743 365 l 1
 637 365 l 1
 638 222 638 153 638 156 c 1
 638 111 618 89 577 89 c 0
 550 89 529 98 512 116 c 0
 493 135 484 163 483 200 c 0
 482 263 482 308 481 336 c 1
 376 336 l 1
 377 231 377 171 377 157 c 0
 377 112 357 89 316 89 c 0
 289 89 268 98 251 116 c 0
 234 133 225 157 222 187 c 2
 222 191 l 1
 222 336 l 1
 116 336 l 1
 117 311 118 232 119 97 c 1
 -9 97 l 1
 -10 0 l 1
 223 0 l 1
 223 38 l 1
 251 3 290 -15 340 -14 c 0
 403 -13 446 14 468 65 c 1
 495 11 540 -15 601 -14 c 0
 696 -12 743 43 744 150 c 2
EndSplineSet
EndChar

StartChar: sheeninitialarabic
Encoding: 65207 65207 12
Width: 779
GlyphClass: 1
Flags: W
LayerCount: 2
Fore
SplineSet
744 150 m 2
 743 365 l 1
 637 365 l 1
 638 222 638 153 638 156 c 1
 638 111 618 89 577 89 c 0
 550 89 529 98 512 116 c 0
 493 135 484 163 483 200 c 0
 482 263 482 308 481 336 c 1
 376 336 l 1
 377 231 377 171 377 157 c 0
 377 112 357 89 316 89 c 0
 289 89 268 98 251 116 c 0
 234 133 225 157 222 187 c 2
 222 191 l 1
 222 336 l 1
 116 336 l 1
 117 311 118 232 119 97 c 1
 -9 97 l 1
 -10 0 l 1
 223 0 l 1
 223 38 l 1
 251 3 290 -15 340 -14 c 0
 403 -13 446 14 468 65 c 1
 495 11 540 -15 601 -14 c 0
 696 -12 743 43 744 150 c 2
548 446 m 1
 548 547 l 1
 451 547 l 1
 451 446 l 1
 548 446 l 1
403 446 m 1
 403 547 l 1
 306 547 l 1
 306 446 l 1
 403 446 l 1
475 578 m 1
 475 678 l 1
 379 678 l 1
 379 578 l 1
 475 578 l 1
EndSplineSet
EndChar

StartChar: tahinitialarabic
Encoding: 65219 65219 14
Width: 642
GlyphClass: 1
Flags: W
LayerCount: 2
Fore
SplineSet
612 0 m 1
 612 245 533 367 375 367 c 0
 304 367 241 335 186 272 c 1
 191 593 l 1
 88 593 l 1
 90 97 l 1
 -9 97 l 1
 -9 0 l 1
 612 0 l 1
505 97 m 1
 172 97 l 1
 213 214 280 272 373 272 c 0
 460 272 504 214 505 97 c 1
EndSplineSet
EndChar

StartChar: zahinitialarabic
Encoding: 65223 65223 15
Width: 637
GlyphClass: 1
Flags: W
LayerCount: 2
Fore
SplineSet
410 446 m 1
 410 547 l 1
 315 547 l 1
 315 446 l 1
 410 446 l 1
612 0 m 1
 612 245 533 367 375 367 c 0
 304 367 241 335 186 272 c 1
 191 593 l 1
 88 593 l 1
 90 97 l 1
 -9 97 l 1
 -9 0 l 1
 612 0 l 1
505 97 m 1
 172 97 l 1
 213 214 280 272 373 272 c 0
 463 272 507 214 505 97 c 1
EndSplineSet
EndChar

StartChar: aininitialarabic
Encoding: 65227 65227 16
Width: 501
GlyphClass: 1
Flags: W
LayerCount: 2
Fore
SplineSet
471 0 m 1
 436 98 l 1
 334 98 l 2
 266 98 219 135 219 199 c 0
 219 243 249 274 292 274 c 0
 320 274 345 261 366 236 c 1
 422 313 l 1
 387 356 340 378 281 378 c 0
 236 378 198 365 166 339 c 0
 128 309 109 268 110 216 c 0
 110 184 118 155 133 128 c 0
 138 117 145 106 154 97 c 1
 -9 97 l 1
 -9 0 l 1
 471 0 l 1
EndSplineSet
EndChar

StartChar: ghaininitialarabic
Encoding: 65231 65231 17
Width: 501
GlyphClass: 1
Flags: W
LayerCount: 2
Fore
SplineSet
320 446 m 1
 320 547 l 1
 223 547 l 1
 223 446 l 1
 320 446 l 1
471 0 m 1
 436 98 l 1
 334 98 l 2
 266 98 219 135 219 199 c 0
 219 243 249 274 292 274 c 0
 320 274 345 261 366 236 c 1
 422 313 l 1
 387 356 340 378 281 378 c 0
 236 378 198 365 166 339 c 0
 128 309 109 268 110 216 c 0
 110 184 118 155 133 128 c 0
 138 117 145 106 154 97 c 1
 -9 97 l 1
 -9 0 l 1
 471 0 l 1
EndSplineSet
EndChar

StartChar: fehinitialarabic
Encoding: 65235 65235 18
Width: 416
GlyphClass: 1
Flags: W
LayerCount: 2
Fore
SplineSet
264 589 m 1
 264 690 l 1
 167 690 l 1
 167 589 l 1
 264 589 l 1
386 88 m 2
 386 379 l 2
 385 476 328 529 215 538 c 0
 171 541 131 528 96 499 c 0
 53 464 30 415 28 350 c 0
 26 303 40 262 70 227 c 0
 102 190 143 171 192 171 c 2
 278 171 l 1
 278 143 l 2
 277 112 264 97 238 97 c 2
 -10 97 l 1
 -10 0 l 1
 296 0 l 2
 357 0 387 29 386 88 c 2
278 267 m 1
 208 267 l 2
 164 267 130 307 131 356 c 0
 135 421 165 463 212 463 c 0
 233 463 250 454 262 436 c 0
 272 422 277 411 277 402 c 0
 277 394 277 349 278 267 c 1
EndSplineSet
EndChar

StartChar: qafinitialarabic
Encoding: 65239 65239 19
Width: 416
GlyphClass: 1
Flags: W
LayerCount: 2
Fore
SplineSet
330 589 m 1
 330 690 l 1
 234 690 l 1
 234 589 l 1
 330 589 l 1
185 589 m 1
 185 690 l 1
 89 690 l 1
 89 589 l 1
 185 589 l 1
386 88 m 2
 386 379 l 2
 385 476 328 529 215 538 c 0
 171 541 131 528 96 499 c 0
 53 464 30 415 28 350 c 0
 26 303 40 262 70 227 c 0
 102 190 143 171 192 171 c 2
 278 171 l 1
 278 143 l 2
 277 112 264 97 238 97 c 2
 -10 97 l 1
 -10 0 l 1
 296 0 l 2
 357 0 387 29 386 88 c 2
278 267 m 1
 208 267 l 2
 164 267 130 307 131 356 c 0
 135 421 165 463 212 463 c 0
 233 463 250 454 262 436 c 0
 272 422 277 411 277 402 c 0
 277 394 277 349 278 267 c 1
EndSplineSet
EndChar

StartChar: kafinitialarabic
Encoding: 65243 65243 20
Width: 537
GlyphClass: 1
Flags: W
LayerCount: 2
Fore
SplineSet
507 0 m 1
 507 106 487 190 447 253 c 0
 400 328 327 365 228 365 c 1
 365 500 l 1
 291 573 l 1
 22 302 l 1
 61 220 l 1
 110 251 159 267 210 267 c 0
 258 267 299 253 332 225 c 0
 367 195 389 153 397 98 c 1
 -10 98 l 1
 -10 0 l 1
 507 0 l 1
EndSplineSet
EndChar

StartChar: laminitialarabic
Encoding: 65247 65247 21
Width: 261
GlyphClass: 1
Flags: W
LayerCount: 2
Fore
SplineSet
231 130 m 0
 231 194 230 280 229 388 c 0
 228 515 228 601 227 647 c 1
 122 647 l 1
 122 598 123 517 124 406 c 0
 125 308 126 228 126 166 c 0
 126 121 97 97 58 97 c 2
 -10 97 l 1
 -10 0 l 1
 96 0 l 2
 183 0 231 50 231 130 c 0
EndSplineSet
EndChar

StartChar: meeminitialarabic
Encoding: 65251 65251 22
Width: 492
GlyphClass: 1
Flags: W
LayerCount: 2
Fore
SplineSet
462 188 m 0
 462 237 446 280 414 316 c 0
 377 356 330 376 272 376 c 0
 157 376 90 304 90 188 c 0
 90 156 97 126 111 97 c 1
 -10 97 l 1
 -10 0 l 1
 284 0 l 2
 396 0 462 72 462 188 c 0
358 187 m 0
 358 123 325 86 281 86 c 0
 260 86 241 94 226 111 c 0
 209 130 200 156 200 187 c 0
 200 219 207 244 222 263 c 0
 236 280 254 288 277 288 c 0
 298 288 317 280 332 263 c 0
 349 244 358 218 358 187 c 0
EndSplineSet
EndChar

StartChar: nooninitialarabic
Encoding: 65255 65255 23
Width: 311
GlyphClass: 1
Flags: W
LayerCount: 2
Fore
SplineSet
271 445 m 1
 271 546 l 1
 174 546 l 1
 174 445 l 1
 271 445 l 1
281 130 m 1
 281 129 280 207 279 365 c 1
 173 365 l 1
 174 340 174 306 175 265 c 0
 176 238 176 205 176 166 c 0
 176 121 147 97 108 97 c 2
 -10 97 l 1
 -10 0 l 1
 147 0 l 2
 234 0 281 50 281 130 c 1
EndSplineSet
EndChar

StartChar: hehinitialarabic
Encoding: 65259 65259 24
Width: 709
GlyphClass: 1
Flags: W
LayerCount: 2
Fore
SplineSet
679 0 m 1
 679 102 650 193 592 272 c 0
 523 367 429 415 312 415 c 0
 233 415 147 393 55 350 c 1
 78 300 93 268 100 253 c 1
 117 261 137 269 159 278 c 1
 151 256 147 231 147 204 c 0
 147 165 158 130 180 97 c 1
 -10 97 l 1
 -10 0 l 1
 679 0 l 1
558 98 m 1
 464 98 l 1
 481 127 489 161 489 202 c 0
 489 213 488 223 486 233 c 1
 523 194 547 149 558 98 c 1
393 204 m 0
 393 136 363 98 322 98 c 0
 303 98 286 107 272 125 c 0
 257 144 249 171 249 204 c 0
 249 237 257 263 272 284 c 0
 285 301 300 310 319 310 c 0
 338 310 355 301 369 284 c 0
 385 263 393 237 393 204 c 0
EndSplineSet
EndChar

StartChar: yehinitialarabic
Encoding: 65267 65267 25
Width: 311
GlyphClass: 1
Flags: W
LayerCount: 2
Fore
SplineSet
281 130 m 1
 281 129 280 207 279 365 c 1
 173 365 l 1
 174 340 174 306 175 265 c 0
 176 238 176 205 176 166 c 0
 176 121 147 97 108 97 c 2
 -10 97 l 1
 -10 0 l 1
 147 0 l 2
 234 0 281 50 281 130 c 1
228 -152 m 1
 228 -51 l 1
 132 -51 l 1
 132 -152 l 1
 228 -152 l 1
84 -152 m 1
 84 -51 l 1
 -13 -51 l 1
 -13 -152 l 1
 84 -152 l 1
EndSplineSet
EndChar

StartChar: yehhamzaabovemedialarabic
Encoding: 65164 65164 26
Width: 465
GlyphClass: 1
Flags: W
LayerCount: 2
Fore
SplineSet
338 445 m 1
 338 509 l 1
 293 509 l 2
 276 509 262 513 253 522 c 0
 247 529 244 537 244 546 c 0
 245 567 254 576 270 575 c 0
 282 574 293 568 303 558 c 1
 335 606 l 1
 316 630 293 642 266 642 c 0
 215 642 178 601 178 549 c 0
 178 533 182 520 191 509 c 1
 134 509 l 1
 104 445 l 1
 338 445 l 1
473 0 m 1
 473 25 l 1
 473 72 l 1
 473 97 l 1
 383 97 l 2
 363 97 345 106 328 125 c 0
 307 146 297 174 297 209 c 0
 295 276 294 328 294 365 c 1
 189 365 l 1
 191 167 l 2
 191 144 181 126 160 113 c 0
 144 102 127 97 108 97 c 2
 -10 97 l 1
 -10 0 l 1
 148 0 l 2
 203 1 255 32 272 81 c 1
 277 66 286 52 297 38 c 0
 318 13 344 0 374 0 c 2
 473 0 l 1
EndSplineSet
EndChar

StartChar: behmedialarabic
Encoding: 65170 65170 27
Width: 465
GlyphClass: 1
Flags: W
LayerCount: 2
Fore
SplineSet
472 0 m 1
 472 25 l 1
 472 72 l 1
 472 97 l 1
 383 97 l 2
 363 97 345 106 328 125 c 0
 307 146 297 174 297 209 c 0
 295 276 294 328 294 365 c 1
 189 365 l 1
 191 167 l 2
 191 144 181 126 160 113 c 0
 144 102 127 97 108 97 c 2
 -10 97 l 1
 -10 0 l 1
 148 0 l 2
 203 1 255 32 272 81 c 1
 277 66 286 52 297 38 c 0
 318 13 344 0 374 0 c 2
 472 0 l 1
303 -152 m 1
 303 -51 l 1
 206 -51 l 1
 206 -152 l 1
 303 -152 l 1
EndSplineSet
EndChar

StartChar: tehmedialarabic
Encoding: 65176 65176 28
Width: 465
GlyphClass: 1
Flags: W
LayerCount: 2
Fore
SplineSet
359 446 m 1
 359 547 l 1
 262 547 l 1
 262 446 l 1
 359 446 l 1
214 446 m 1
 214 547 l 1
 117 547 l 1
 117 446 l 1
 214 446 l 1
472 0 m 1
 472 25 l 1
 472 72 l 1
 472 97 l 1
 383 97 l 2
 363 97 345 106 328 125 c 0
 307 146 297 174 297 209 c 0
 295 276 294 328 294 365 c 1
 189 365 l 1
 191 167 l 2
 191 144 181 126 160 113 c 0
 144 102 127 97 108 97 c 2
 -10 97 l 1
 -10 0 l 1
 148 0 l 2
 203 1 255 32 272 81 c 1
 277 66 286 52 297 38 c 0
 318 13 344 0 374 0 c 2
 472 0 l 1
EndSplineSet
EndChar

StartChar: thehmedialarabic
Encoding: 65180 65180 29
Width: 465
GlyphClass: 1
Flags: W
LayerCount: 2
Fore
SplineSet
289 578 m 1
 289 678 l 1
 192 678 l 1
 192 578 l 1
 289 578 l 1
361 446 m 1
 361 547 l 1
 265 547 l 1
 265 446 l 1
 361 446 l 1
216 446 m 1
 216 547 l 1
 120 547 l 1
 120 446 l 1
 216 446 l 1
473 0 m 1
 473 25 l 1
 473 72 l 1
 473 97 l 1
 383 97 l 2
 363 97 345 106 328 125 c 0
 307 146 297 174 297 209 c 0
 295 276 294 328 294 365 c 1
 189 365 l 1
 191 167 l 2
 191 144 181 126 160 113 c 0
 144 102 127 97 108 97 c 2
 -10 97 l 1
 -10 0 l 1
 148 0 l 2
 203 1 255 32 272 81 c 1
 277 66 286 52 297 38 c 0
 318 13 344 0 374 0 c 2
 473 0 l 1
EndSplineSet
EndChar

StartChar: jeemmedialarabic
Encoding: 65184 65184 30
Width: 619
GlyphClass: 1
Flags: W
LayerCount: 2
Fore
SplineSet
628 0 m 1
 628 97 l 1
 530 97 l 1
 518 178 492 243 451 290 c 0
 403 347 339 375 258 375 c 0
 180 375 121 358 81 323 c 1
 122 241 l 1
 150 264 194 275 255 275 c 0
 351 275 409 216 429 97 c 1
 -10 97 l 1
 -10 0 l 1
 510 0 l 1
 628 0 l 1
323 -152 m 1
 323 -51 l 1
 227 -51 l 1
 227 -152 l 1
 323 -152 l 1
EndSplineSet
EndChar

StartChar: hahmedialarabic
Encoding: 65188 65188 31
Width: 619
GlyphClass: 1
Flags: W
LayerCount: 2
Fore
SplineSet
628 0 m 1
 628 97 l 1
 530 97 l 1
 518 178 492 243 451 290 c 0
 403 347 339 375 258 375 c 0
 180 375 121 358 81 323 c 1
 122 241 l 1
 150 264 194 275 255 275 c 0
 351 275 409 216 429 97 c 1
 -10 97 l 1
 -10 0 l 1
 510 0 l 1
 628 0 l 1
EndSplineSet
EndChar

StartChar: khahmedialarabic
Encoding: 65192 65192 32
Width: 619
GlyphClass: 1
Flags: W
LayerCount: 2
Fore
SplineSet
319 446 m 1
 319 547 l 1
 222 547 l 1
 222 446 l 1
 319 446 l 1
628 0 m 1
 628 97 l 1
 530 97 l 1
 518 178 492 243 451 290 c 0
 403 347 339 375 258 375 c 0
 180 375 121 358 81 323 c 1
 122 241 l 1
 150 264 194 275 255 275 c 0
 351 275 409 216 429 97 c 1
 -10 97 l 1
 -10 0 l 1
 510 0 l 1
 628 0 l 1
EndSplineSet
EndChar

StartChar: seenmedialarabic
Encoding: 65204 65204 33
Width: 919
GlyphClass: 1
Flags: W
LayerCount: 2
Fore
SplineSet
935 0 m 1
 935 97 l 1
 830 97 l 2
 811 97 793 105 776 122 c 0
 756 141 745 166 744 197 c 0
 743 274 742 330 742 365 c 1
 637 365 l 1
 638 222 638 153 638 156 c 1
 638 111 618 89 577 89 c 0
 550 89 529 98 512 116 c 0
 493 135 484 163 483 200 c 0
 482 263 481 308 481 336 c 1
 376 336 l 1
 377 231 377 171 377 157 c 0
 377 112 357 89 316 89 c 0
 289 89 267 98 250 116 c 0
 234 133 225 157 222 187 c 2
 222 191 l 1
 222 336 l 1
 117 336 l 1
 117 311 118 232 119 97 c 1
 -9 97 l 1
 -10 0 l 1
 223 0 l 1
 223 38 l 1
 251 3 290 -15 340 -14 c 0
 403 -13 446 14 467 65 c 1
 495 11 540 -15 601 -14 c 0
 671 -13 715 19 734 81 c 1
 743 56 758 36 779 21 c 0
 798 7 818 0 837 0 c 2
 935 0 l 1
EndSplineSet
EndChar

StartChar: shaddakasraarabic
Encoding: 64610 64610 34
Width: 0
GlyphClass: 1
Flags: W
LayerCount: 2
Fore
SplineSet
221 828 m 1
 179 828 l 1
 179 759 l 2
 179 746 174 741 165 744 c 0
 152 747 146 756 146 773 c 2
 146 828 l 1
 104 828 l 1
 104 773 l 2
 104 756 98 747 85 744 c 0
 76 741 71 746 71 759 c 2
 71 828 l 1
 29 828 l 1
 29 750 l 2
 29 719 45 703 78 703 c 0
 95 703 107 707 115 716 c 0
 117 719 121 726 126 737 c 1
 136 713 151 701 172 701 c 0
 205 700 221 717 221 750 c 2
 221 828 l 1
235 677 m 1
 71 673 l 2
 46 670 28 659 18 639 c 1
 174 639 l 2
 210 640 230 652 235 677 c 1
EndSplineSet
Ligature2: "'rlig' Required Ligatures in Arabic lookup 10 subtable" shaddaarabic kasraarabic
Ligature2: "'rlig' Required Ligatures in Arabic lookup 10 subtable" kasraarabic shaddaarabic
Ligature2: "'liga' Standard Ligatures in Arabic lookup 5 subtable" shaddaarabic kasraarabic
Ligature2: "'liga' Standard Ligatures in Arabic lookup 5 subtable" kasraarabic shaddaarabic
Ligature2: "'ccmp' Glyph Composition/Decomposition in Arabic lookup 3 subtable" shaddaarabic kasraarabic
Ligature2: "'ccmp' Glyph Composition/Decomposition in Arabic lookup 3 subtable" kasraarabic shaddaarabic
EndChar

StartChar: shaddakasratanarabic
Encoding: 64607 64607 35
Width: 0
GlyphClass: 1
Flags: W
LayerCount: 2
Fore
SplineSet
211 926 m 1
 171 926 l 1
 171 856 l 2
 171 844 166 839 155 842 c 0
 143 845 137 854 137 871 c 2
 137 926 l 1
 95 926 l 1
 95 871 l 2
 95 854 89 845 77 842 c 0
 66 839 61 844 61 856 c 2
 61 926 l 1
 21 926 l 1
 21 848 l 2
 21 817 37 801 70 801 c 0
 86 801 98 805 106 814 c 0
 108 816 111 823 116 834 c 1
 127 811 143 799 163 798 c 0
 195 797 211 814 211 848 c 2
 211 926 l 1
229 771 m 1
 65 767 l 2
 40 764 23 753 12 733 c 1
 169 733 l 2
 204 734 224 746 229 771 c 1
205 705 m 1
 40 702 l 2
 15 699 -2 687 -12 667 c 1
 144 667 l 2
 179 668 200 681 205 705 c 1
EndSplineSet
Ligature2: "'rlig' Required Ligatures in Arabic lookup 10 subtable" shaddaarabic kasratanarabic
Ligature2: "'rlig' Required Ligatures in Arabic lookup 10 subtable" kasratanarabic shaddaarabic
Ligature2: "'liga' Standard Ligatures in Arabic lookup 5 subtable" shaddaarabic kasratanarabic
Ligature2: "'liga' Standard Ligatures in Arabic lookup 5 subtable" kasratanarabic shaddaarabic
Ligature2: "'ccmp' Glyph Composition/Decomposition in Arabic lookup 3 subtable" shaddaarabic kasratanarabic
Ligature2: "'ccmp' Glyph Composition/Decomposition in Arabic lookup 3 subtable" kasratanarabic shaddaarabic
EndChar

StartChar: kashidaautoarabic
Encoding: 65541 -1 36
Width: 119
GlyphClass: 1
Flags: W
LayerCount: 2
Fore
SplineSet
128 0 m 1
 128 97 l 1
 -10 97 l 1
 -10 0 l 1
 128 0 l 1
EndSplineSet
EndChar

StartChar: sheenmedialarabic
Encoding: 65208 65208 37
Width: 919
GlyphClass: 1
Flags: W
LayerCount: 2
Fore
SplineSet
935 0 m 1
 935 97 l 1
 830 97 l 2
 811 97 793 105 776 122 c 0
 756 141 745 166 744 197 c 0
 743 274 742 330 742 365 c 1
 637 365 l 1
 638 222 638 153 638 156 c 1
 638 111 618 89 577 89 c 0
 550 89 529 98 512 116 c 0
 493 135 484 163 483 200 c 0
 482 263 481 308 481 336 c 1
 376 336 l 1
 377 231 377 171 377 157 c 0
 377 112 357 89 316 89 c 0
 289 89 267 98 250 116 c 0
 234 133 225 157 222 187 c 2
 222 191 l 1
 222 336 l 1
 117 336 l 1
 117 311 118 232 119 97 c 1
 -9 97 l 1
 -10 0 l 1
 223 0 l 1
 223 38 l 1
 251 3 290 -15 340 -14 c 0
 403 -13 446 14 467 65 c 1
 495 11 540 -15 601 -14 c 0
 671 -13 715 19 734 81 c 1
 743 56 758 36 779 21 c 0
 798 7 818 0 837 0 c 2
 935 0 l 1
548 446 m 1
 548 547 l 1
 451 547 l 1
 451 446 l 1
 548 446 l 1
403 446 m 1
 403 547 l 1
 306 547 l 1
 306 446 l 1
 403 446 l 1
475 578 m 1
 475 678 l 1
 379 678 l 1
 379 578 l 1
 475 578 l 1
EndSplineSet
EndChar

StartChar: sadmedialarabic
Encoding: 65212 65212 38
Width: 900
GlyphClass: 1
Flags: W
LayerCount: 2
Fore
SplineSet
917 0 m 1
 917 97 l 1
 736 97 l 1
 721 264 651 353 527 366 c 0
 482 371 434 358 381 329 c 0
 312 291 259 232 222 151 c 1
 222 270 l 1
 117 270 l 1
 119 97 l 1
 -9 97 l 1
 -10 0 l 1
 917 0 l 1
633 97 m 1
 280 97 l 1
 340 214 414 272 501 272 c 0
 508 272 516 271 524 270 c 0
 571 265 603 234 620 178 c 0
 628 155 632 128 633 97 c 1
EndSplineSet
EndChar

StartChar: dadmedialarabic
Encoding: 65216 65216 39
Width: 900
GlyphClass: 1
Flags: W
LayerCount: 2
Fore
SplineSet
917 0 m 1
 917 97 l 1
 736 97 l 1
 721 264 651 353 527 366 c 0
 482 371 434 358 381 329 c 0
 312 291 259 232 222 151 c 1
 222 270 l 1
 117 270 l 1
 119 97 l 1
 -9 97 l 1
 -10 0 l 1
 917 0 l 1
633 97 m 1
 280 97 l 1
 340 214 414 272 501 272 c 0
 508 272 516 271 524 270 c 0
 571 265 603 234 620 178 c 0
 628 155 632 128 633 97 c 1
539 446 m 1
 539 547 l 1
 443 547 l 1
 443 446 l 1
 539 446 l 1
EndSplineSet
EndChar

StartChar: tahmedialarabic
Encoding: 65220 65220 40
Width: 745
GlyphClass: 1
Flags: W
LayerCount: 2
Fore
SplineSet
754 0 m 1
 754 97 l 1
 608 97 l 1
 591 277 513 367 374 367 c 0
 296 367 233 335 185 272 c 1
 191 593 l 1
 87 593 l 1
 90 97 l 1
 -10 97 l 1
 -10 0 l 1
 754 0 l 1
503 97 m 1
 170 97 l 1
 211 214 279 272 372 272 c 0
 458 272 502 214 503 97 c 1
EndSplineSet
EndChar

StartChar: zahmedialarabic
Encoding: 65224 65224 41
Width: 745
GlyphClass: 1
Flags: W
LayerCount: 2
Fore
SplineSet
410 446 m 1
 410 547 l 1
 315 547 l 1
 315 446 l 1
 410 446 l 1
754 0 m 1
 754 97 l 1
 608 97 l 1
 591 277 513 367 374 367 c 0
 296 367 233 335 185 272 c 1
 191 593 l 1
 87 593 l 1
 90 97 l 1
 -10 97 l 1
 -10 0 l 1
 754 0 l 1
503 97 m 1
 170 97 l 1
 211 214 279 272 372 272 c 0
 460 272 504 214 503 97 c 1
EndSplineSet
EndChar

StartChar: ainmedialarabic
Encoding: 65228 65228 42
Width: 635
GlyphClass: 1
Flags: W
LayerCount: 2
Fore
SplineSet
644 0 m 1
 644 97 l 1
 486 97 l 2
 459 97 440 100 427 107 c 1
 497 165 553 234 594 313 c 1
 525 381 420 422 309 422 c 0
 216 422 133 395 59 341 c 1
 59 259 l 1
 132 255 205 209 278 122 c 1
 239 105 201 97 164 97 c 2
 -9 97 l 1
 -9 0 l 1
 165 0 l 2
 220 0 278 16 337 48 c 1
 364 16 398 0 439 0 c 2
 644 0 l 1
459 284 m 1
 434 243 401 207 360 176 c 1
 310 244 257 286 201 301 c 1
 234 316 271 324 311 324 c 0
 374 324 423 311 459 284 c 1
EndSplineSet
EndChar

StartChar: ghainmedialarabic
Encoding: 65232 65232 43
Width: 635
GlyphClass: 1
Flags: W
LayerCount: 2
Fore
SplineSet
377 490 m 1
 377 591 l 1
 280 591 l 1
 280 490 l 1
 377 490 l 1
644 0 m 1
 644 97 l 1
 486 97 l 2
 459 97 440 100 427 107 c 1
 497 165 553 234 594 313 c 1
 525 381 420 422 309 422 c 0
 216 422 133 395 59 341 c 1
 59 259 l 1
 132 255 205 209 278 122 c 1
 239 105 201 97 164 97 c 2
 -9 97 l 1
 -9 0 l 1
 165 0 l 2
 220 0 278 16 337 48 c 1
 364 16 398 0 439 0 c 2
 644 0 l 1
459 284 m 1
 434 243 401 207 360 176 c 1
 310 244 257 286 201 301 c 1
 234 316 271 324 311 324 c 0
 374 324 423 311 459 284 c 1
EndSplineSet
EndChar

StartChar: fehmedialarabic
Encoding: 65236 65236 44
Width: 500
GlyphClass: 1
Flags: W
LayerCount: 2
Fore
SplineSet
279 514 m 1
 279 615 l 1
 183 615 l 1
 183 514 l 1
 279 514 l 1
509 0 m 1
 509 97 l 1
 453 97 l 2
 410 97 375 100 348 105 c 1
 395 152 418 204 418 263 c 0
 418 318 399 361 361 393 c 0
 327 422 284 437 233 437 c 0
 182 437 139 422 105 393 c 0
 68 361 49 318 49 263 c 0
 49 204 73 151 120 105 c 1
 95 100 60 97 17 97 c 2
 -10 97 l 1
 -10 0 l 1
 71 0 l 2
 124 0 179 11 234 34 c 1
 289 11 344 0 399 0 c 2
 509 0 l 1
312 267 m 0
 312 236 301 206 279 178 c 0
 261 156 246 145 234 145 c 0
 222 145 207 156 189 178 c 0
 166 206 155 236 155 267 c 0
 155 316 185 357 234 357 c 0
 258 357 277 348 292 329 c 0
 305 312 312 292 312 267 c 0
EndSplineSet
EndChar

StartChar: qafmedialarabic
Encoding: 65240 65240 45
Width: 500
GlyphClass: 1
Flags: W
LayerCount: 2
Fore
SplineSet
351 514 m 1
 351 615 l 1
 255 615 l 1
 255 514 l 1
 351 514 l 1
206 514 m 1
 206 615 l 1
 110 615 l 1
 110 514 l 1
 206 514 l 1
509 0 m 1
 509 97 l 1
 453 97 l 2
 410 97 375 100 348 105 c 1
 395 152 418 204 418 263 c 0
 418 318 399 361 361 393 c 0
 327 422 284 437 233 437 c 0
 182 437 139 422 105 393 c 0
 68 361 49 318 49 263 c 0
 49 204 73 151 120 105 c 1
 95 100 60 97 17 97 c 2
 -10 97 l 1
 -10 0 l 1
 71 0 l 2
 124 0 179 11 234 34 c 1
 289 11 344 0 399 0 c 2
 509 0 l 1
312 267 m 0
 312 236 301 206 279 178 c 0
 261 156 246 145 234 145 c 0
 222 145 207 156 189 178 c 0
 166 206 155 236 155 267 c 0
 155 316 185 357 234 357 c 0
 258 357 277 348 292 329 c 0
 305 312 312 292 312 267 c 0
EndSplineSet
EndChar

StartChar: kafmedialarabic
Encoding: 65244 65244 46
Width: 671
GlyphClass: 1
Flags: W
LayerCount: 2
Fore
SplineSet
680 0 m 1
 680 97 l 1
 499 97 l 1
 473 276 382 365 227 365 c 1
 365 500 l 1
 290 573 l 1
 21 302 l 1
 60 220 l 1
 108 251 158 267 209 267 c 0
 256 267 297 253 330 225 c 0
 366 194 388 152 397 97 c 1
 -10 97 l 1
 -10 0 l 1
 680 0 l 1
EndSplineSet
EndChar

StartChar: lammedialarabic
Encoding: 65248 65248 47
Width: 404
GlyphClass: 1
Flags: W
LayerCount: 2
Fore
SplineSet
413 0 m 1
 413 97 l 1
 338 97 l 2
 296 97 254 144 252 209 c 0
 251 239 247 575 247 649 c 1
 142 649 l 1
 146 167 l 2
 146 125 104 97 63 97 c 2
 -10 97 l 1
 -10 0 l 1
 103 0 l 2
 158 0 209 33 228 81 c 1
 243 35 285 0 329 0 c 2
 413 0 l 1
EndSplineSet
EndChar

StartChar: meemmedialarabic
Encoding: 65252 65252 48
Width: 527
GlyphClass: 1
Flags: W
LayerCount: 2
Fore
SplineSet
535 0 m 1
 535 97 l 1
 453 97 l 1
 453 147 436 190 403 226 c 0
 368 265 321 285 262 285 c 0
 149 285 79 213 79 97 c 1
 -10 97 l 1
 -10 0 l 1
 105 0 l 1
 140 -61 195 -91 270 -91 c 0
 349 -91 403 -61 432 0 c 1
 535 0 l 1
348 97 m 0
 348 32 315 -4 271 -4 c 0
 250 -4 231 4 216 21 c 0
 199 40 190 65 190 97 c 0
 190 129 198 154 213 172 c 0
 227 189 245 197 267 197 c 0
 288 197 307 189 322 172 c 0
 339 153 348 128 348 97 c 0
EndSplineSet
EndChar

StartChar: noonmedialarabic
Encoding: 65256 65256 49
Width: 465
GlyphClass: 1
Flags: W
LayerCount: 2
Fore
SplineSet
288 445 m 1
 288 546 l 1
 191 546 l 1
 191 445 l 1
 288 445 l 1
473 0 m 1
 473 25 l 1
 473 72 l 1
 473 97 l 1
 383 97 l 2
 363 97 345 106 328 125 c 0
 307 146 297 174 297 209 c 0
 295 276 294 328 294 365 c 1
 189 365 l 1
 191 167 l 2
 191 144 181 126 160 113 c 0
 144 102 127 97 108 97 c 2
 -10 97 l 1
 -10 0 l 1
 148 0 l 2
 203 1 255 32 272 81 c 1
 277 66 286 52 297 38 c 0
 318 13 344 0 374 0 c 2
 473 0 l 1
EndSplineSet
EndChar

StartChar: hehmedialarabic
Encoding: 65260 65260 50
Width: 792
GlyphClass: 1
Flags: W
LayerCount: 2
Fore
SplineSet
801 0 m 1
 801 97 l 1
 668 97 l 1
 649 184 612 257 557 314 c 0
 491 381 409 415 311 415 c 0
 232 415 146 393 54 350 c 1
 77 300 92 268 99 253 c 1
 116 261 136 269 158 278 c 1
 151 256 147 231 147 204 c 0
 147 165 157 129 178 97 c 1
 -10 97 l 1
 -10 0 l 1
 801 0 l 1
557 97 m 1
 463 97 l 1
 480 126 488 161 488 201 c 0
 488 212 487 222 485 232 c 1
 522 193 546 148 557 97 c 1
392 204 m 0
 392 136 362 98 322 98 c 0
 302 98 285 107 272 125 c 0
 256 144 248 171 248 204 c 0
 248 237 256 263 271 284 c 0
 284 301 299 310 318 310 c 0
 337 310 354 301 368 284 c 0
 384 263 392 237 392 204 c 0
EndSplineSet
EndChar

StartChar: yehmedialarabic
Encoding: 65268 65268 51
Width: 454
GlyphClass: 1
Flags: W
LayerCount: 2
Fore
SplineSet
463 0 m 1
 463 25 l 1
 463 72 l 1
 463 97 l 1
 383 97 l 2
 363 97 345 106 328 125 c 0
 307 146 297 174 297 209 c 0
 295 276 294 328 294 365 c 1
 189 365 l 1
 191 167 l 2
 191 144 181 126 160 113 c 0
 144 102 127 97 108 97 c 2
 -10 97 l 1
 -10 0 l 1
 148 0 l 2
 203 1 255 32 272 81 c 1
 277 66 286 52 297 38 c 0
 318 13 344 0 374 0 c 2
 463 0 l 1
340 -152 m 1
 340 -51 l 1
 244 -51 l 1
 244 -152 l 1
 340 -152 l 1
196 -152 m 1
 196 -51 l 1
 99 -51 l 1
 99 -152 l 1
 196 -152 l 1
EndSplineSet
EndChar

StartChar: alefmaddaabovefinalarabic
Encoding: 65154 65154 52
Width: 322
GlyphClass: 1
Flags: W
LayerCount: 2
Fore
SplineSet
296 795 m 1
 257 795 l 1
 255 772 242 760 218 760 c 0
 210 760 194 765 169 774 c 0
 145 783 125 788 110 788 c 0
 71 788 44 753 39 708 c 1
 75 708 l 1
 79 731 91 742 110 742 c 0
 120 742 137 737 161 728 c 0
 185 719 204 715 218 715 c 0
 240 715 258 723 273 740 c 0
 286 753 293 772 296 795 c 1
331 0 m 1
 331 97 l 1
 256 97 l 2
 228 97 210 124 210 160 c 2
 206 647 l 1
 100 647 l 1
 103 118 l 2
 103 80 115 50 137 29 c 0
 156 10 180 0 208 0 c 2
 331 0 l 1
EndSplineSet
EndChar

StartChar: alefhamzaabovefinalarabic
Encoding: 65156 65156 53
Width: 322
GlyphClass: 1
Flags: W
LayerCount: 2
Fore
SplineSet
229 708 m 1
 229 757 l 1
 196 757 l 2
 171 757 158 766 158 784 c 0
 158 799 164 807 176 807 c 0
 186 807 195 803 203 794 c 1
 227 831 l 1
 212 850 195 859 174 859 c 0
 137 859 108 828 108 788 c 0
 108 776 111 766 117 757 c 1
 74 757 l 1
 51 708 l 1
 229 708 l 1
331 0 m 1
 331 97 l 1
 256 97 l 2
 228 97 210 124 210 160 c 2
 206 647 l 1
 100 647 l 1
 103 118 l 2
 103 80 115 50 137 29 c 0
 156 10 180 0 208 0 c 2
 331 0 l 1
EndSplineSet
EndChar

StartChar: wawhamzaabovefinalarabic
Encoding: 65158 65158 54
Width: 584
GlyphClass: 1
Flags: W
LayerCount: 2
Fore
SplineSet
385 427 m 1
 385 488 l 1
 343 488 l 2
 314 488 295 505 295 521 c 0
 295 541 303 551 318 551 c 0
 330 551 342 545 352 534 c 1
 382 581 l 1
 364 604 342 616 316 616 c 0
 268 616 232 576 232 527 c 0
 232 511 236 498 243 488 c 1
 190 488 l 1
 161 427 l 1
 385 427 l 1
594 0 m 1
 594 97 l 1
 460 97 l 1
 460 209 l 2
 460 305 397 367 288 367 c 0
 185 367 101 292 101 179 c 0
 101 84 169 0 268 0 c 2
 338 0 l 1
 306 -83 227 -134 136 -134 c 1
 164 -169 186 -197 201 -217 c 1
 328 -206 419 -124 450 0 c 1
 594 0 l 1
354 97 m 1
 283 97 l 2
 241 97 207 136 207 184 c 0
 207 250 242 293 288 293 c 0
 323 293 353 254 353 232 c 0
 353 224 353 179 354 97 c 1
EndSplineSet
EndChar

StartChar: alefhamzabelowfinalarabic
Encoding: 65160 65160 55
Width: 322
GlyphClass: 1
Flags: W
LayerCount: 2
Fore
SplineSet
241 -209 m 1
 241 -160 l 1
 208 -160 l 2
 183 -160 170 -151 170 -133 c 0
 170 -118 176 -110 188 -110 c 0
 198 -110 207 -115 215 -123 c 1
 239 -86 l 1
 224 -67 207 -58 186 -58 c 0
 149 -58 120 -89 120 -129 c 0
 120 -141 123 -151 129 -160 c 1
 86 -160 l 1
 63 -209 l 1
 241 -209 l 1
331 0 m 1
 331 97 l 1
 256 97 l 2
 228 97 210 124 210 160 c 2
 206 647 l 1
 100 647 l 1
 103 118 l 2
 103 80 115 50 137 29 c 0
 156 10 180 0 208 0 c 2
 331 0 l 1
EndSplineSet
EndChar

StartChar: yehhamzaabovefinalarabic
Encoding: 65162 65162 56
Width: 870
GlyphClass: 1
Flags: W
LayerCount: 2
Fore
SplineSet
255 355 m 1
 255 420 l 1
 211 420 l 2
 193 420 180 424 172 433 c 0
 165 440 161 447 162 456 c 0
 163 477 171 486 188 485 c 0
 199 484 210 479 221 468 c 1
 253 516 l 1
 234 541 211 553 184 553 c 0
 133 553 97 511 97 459 c 0
 97 443 101 430 109 420 c 1
 52 420 l 1
 22 355 l 1
 255 355 l 1
879 0 m 1
 879 97 l 1
 841 97 l 2
 799 97 772 118 761 161 c 0
 744 224 724 273 700 307 c 0
 656 369 594 400 515 400 c 0
 442 400 384 374 342 322 c 0
 297 267 275 190 275 89 c 1
 488 89 l 1
 489 66 l 2
 489 11 471 -33 436 -66 c 0
 405 -95 369 -109 328 -109 c 0
 290 -109 255 -95 223 -66 c 0
 186 -33 168 11 168 64 c 0
 168 71 167 88 166 117 c 0
 165 146 165 170 165 187 c 1
 60 187 l 1
 62 130 64 90 65 65 c 0
 65 -14 91 -80 142 -135 c 0
 194 -190 256 -218 329 -218 c 0
 402 -218 465 -190 517 -135 c 0
 569 -80 595 -14 595 64 c 2
 595 187 l 1
 403 187 l 1
 425 256 464 291 521 292 c 0
 593 293 642 235 668 118 c 0
 674 90 687 65 708 43 c 0
 734 14 767 0 806 0 c 2
 879 0 l 1
EndSplineSet
EndChar

StartChar: aleffinalarabic
Encoding: 65166 65166 57
Width: 322
GlyphClass: 1
Flags: W
LayerCount: 2
Fore
SplineSet
331 0 m 1
 331 97 l 1
 256 97 l 2
 228 97 210 124 210 160 c 2
 206 647 l 1
 100 647 l 1
 103 118 l 2
 103 80 115 50 137 29 c 0
 156 10 180 0 208 0 c 2
 331 0 l 1
EndSplineSet
EndChar

StartChar: behfinalarabic
Encoding: 65168 65168 58
Width: 876
GlyphClass: 1
Flags: W
LayerCount: 2
Fore
SplineSet
885 0 m 1
 885 97 l 1
 794 97 l 2
 775 97 756 106 739 125 c 0
 719 146 709 174 708 209 c 0
 707 280 707 332 706 365 c 1
 600 365 l 1
 603 153 l 2
 603 116 590 97 564 97 c 2
 310 97 l 2
 248 97 202 128 173 189 c 0
 150 236 139 294 139 365 c 1
 34 365 l 1
 32 268 49 188 86 123 c 0
 133 41 206 0 305 0 c 2
 615 0 l 2
 664 0 694 22 706 67 c 1
 729 22 760 0 801 0 c 2
 885 0 l 1
479 -171 m 1
 479 -70 l 1
 384 -70 l 1
 384 -171 l 1
 479 -171 l 1
EndSplineSet
EndChar

StartChar: tehmarbutafinalarabic
Encoding: 65172 65172 59
Width: 517
GlyphClass: 1
Flags: W
LayerCount: 2
Fore
SplineSet
348 520 m 1
 348 621 l 1
 252 621 l 1
 252 520 l 1
 348 520 l 1
203 520 m 1
 203 621 l 1
 107 621 l 1
 107 520 l 1
 203 520 l 1
526 0 m 1
 526 97 l 1
 424 97 l 2
 397 97 383 114 383 147 c 2
 382 430 l 1
 277 430 l 1
 277 394 l 1
 275 394 l 1
 252 423 220 438 178 438 c 0
 143 438 112 424 85 397 c 0
 51 364 34 316 34 253 c 0
 34 156 74 108 153 108 c 2
 278 108 l 1
 278 36 313 0 384 0 c 2
 526 0 l 1
278 205 m 1
 190 205 l 2
 159 205 143 221 141 253 c 0
 138 306 159 333 205 333 c 0
 234 333 258 318 277 287 c 1
 278 205 l 1
EndSplineSet
EndChar

StartChar: tehfinalarabic
Encoding: 65174 65174 60
Width: 876
GlyphClass: 1
Flags: W
LayerCount: 2
Fore
SplineSet
497 365 m 1
 497 466 l 1
 401 466 l 1
 401 365 l 1
 497 365 l 1
353 365 m 1
 353 466 l 1
 256 466 l 1
 256 365 l 1
 353 365 l 1
885 0 m 1
 885 97 l 1
 794 97 l 2
 775 97 756 106 739 125 c 0
 719 146 709 174 708 209 c 0
 707 280 707 332 706 365 c 1
 600 365 l 1
 603 153 l 2
 603 116 590 97 564 97 c 2
 310 97 l 2
 248 97 202 128 173 189 c 0
 150 236 139 294 139 365 c 1
 34 365 l 1
 32 268 49 188 86 123 c 0
 133 41 206 0 305 0 c 2
 615 0 l 2
 664 0 694 22 706 67 c 1
 729 22 760 0 801 0 c 2
 885 0 l 1
EndSplineSet
EndChar

StartChar: thehfinalarabic
Encoding: 65178 65178 61
Width: 876
GlyphClass: 1
Flags: W
LayerCount: 2
Fore
SplineSet
425 497 m 1
 425 597 l 1
 328 597 l 1
 328 497 l 1
 425 497 l 1
497 365 m 1
 497 465 l 1
 401 465 l 1
 401 365 l 1
 497 365 l 1
352 365 m 1
 352 465 l 1
 256 465 l 1
 256 365 l 1
 352 365 l 1
885 0 m 1
 885 97 l 1
 794 97 l 2
 775 97 756 106 739 125 c 0
 719 146 709 174 708 209 c 0
 707 280 707 332 706 365 c 1
 600 365 l 1
 603 153 l 2
 603 116 590 97 564 97 c 2
 310 97 l 2
 248 97 202 128 173 189 c 0
 150 236 139 294 139 365 c 1
 34 365 l 1
 32 268 49 188 86 123 c 0
 133 41 206 0 305 0 c 2
 615 0 l 2
 664 0 694 22 706 67 c 1
 729 22 760 0 801 0 c 2
 885 0 l 1
EndSplineSet
EndChar

StartChar: jeemfinalarabic
Encoding: 65182 65182 62
Width: 642
GlyphClass: 1
Flags: W
LayerCount: 2
Fore
SplineSet
651 0 m 1
 651 6 651 14 650 25 c 2
 650 72 l 1
 650 97 l 1
 606 97 l 2
 589 97 573 101 559 110 c 0
 538 122 527 140 525 164 c 0
 516 240 490 304 448 355 c 0
 402 412 345 440 277 440 c 0
 217 440 164 421 119 382 c 1
 157 303 l 1
 193 330 229 344 264 344 c 0
 296 345 325 335 350 316 c 0
 384 291 405 251 414 196 c 1
 222 196 l 2
 167 196 121 174 85 131 c 0
 51 90 34 42 34 -14 c 0
 34 -70 54 -118 93 -157 c 0
 133 -197 181 -217 237 -217 c 2
 377 -217 l 1
 377 -120 l 1
 245 -120 l 2
 218 -120 193 -110 172 -91 c 0
 149 -70 137 -43 137 -10 c 0
 137 57 177 98 248 98 c 2
 445 98 l 1
 476 33 526 0 595 0 c 2
 651 0 l 1
356 -63 m 1
 356 38 l 1
 260 38 l 1
 260 -63 l 1
 356 -63 l 1
EndSplineSet
EndChar

StartChar: decimalseparatorarabic
Encoding: 1643 1643 63
Width: 166
GlyphClass: 1
Flags: W
LayerCount: 2
Fore
SplineSet
4 -123 m 1
 38 -123 l 1
 101 -65 132 -17 132 22 c 2
 132 130 l 1
 34 130 l 1
 34 33 l 1
 56 35 67 24 67 0 c 0
 68 -43 47 -84 4 -123 c 1
EndSplineSet
EndChar

StartChar: thousandsseparatorarabic
Encoding: 1644 1644 64
Width: 166
GlyphClass: 1
Flags: W
LayerCount: 2
Fore
SplineSet
4 -123 m 1
 38 -123 l 1
 101 -65 132 -17 132 22 c 2
 132 130 l 1
 34 130 l 1
 34 33 l 1
 56 35 67 24 67 0 c 0
 68 -43 47 -84 4 -123 c 1
EndSplineSet
EndChar

StartChar: shaddafathaarabic
Encoding: 64608 64608 65
Width: 0
GlyphClass: 1
Flags: W
LayerCount: 2
Fore
SplineSet
218 896 m 1
 53 893 l 2
 28 890 11 879 1 859 c 1
 158 859 l 2
 193 860 213 872 218 896 c 1
199 814 m 1
 159 814 l 1
 159 744 l 2
 159 732 154 727 143 730 c 0
 131 733 125 742 125 759 c 2
 125 814 l 1
 83 814 l 1
 83 759 l 2
 83 742 77 733 65 730 c 0
 54 727 49 732 49 744 c 2
 49 814 l 1
 9 814 l 1
 9 736 l 2
 9 705 25 689 58 689 c 0
 74 689 86 693 94 702 c 0
 96 704 99 711 104 722 c 1
 115 699 130 687 151 686 c 0
 183 685 199 702 199 736 c 2
 199 814 l 1
EndSplineSet
Ligature2: "'rlig' Required Ligatures in Arabic lookup 10 subtable" shaddaarabic fathaarabic
Ligature2: "'rlig' Required Ligatures in Arabic lookup 10 subtable" fathaarabic shaddaarabic
Ligature2: "'liga' Standard Ligatures in Arabic lookup 5 subtable" shaddaarabic fathaarabic
Ligature2: "'liga' Standard Ligatures in Arabic lookup 5 subtable" fathaarabic shaddaarabic
Ligature2: "'ccmp' Glyph Composition/Decomposition in Arabic lookup 3 subtable" shaddaarabic fathaarabic
Ligature2: "'ccmp' Glyph Composition/Decomposition in Arabic lookup 3 subtable" fathaarabic shaddaarabic
EndChar

StartChar: shaddadammaarabicX
Encoding: 64609 64609 66
Width: 0
GlyphClass: 1
Flags: W
LayerCount: 2
Fore
SplineSet
197 934 m 0
 197 962 173 989 145 989 c 0
 135 989 125 986 116 980 c 0
 99 969 91 953 91 931 c 0
 91 916 96 903 105 892 c 1
 87 882 53 881 3 890 c 1
 12 866 17 854 18 854 c 0
 32 852 47 851 63 851 c 0
 150 851 197 886 197 934 c 0
199 814 m 1
 159 814 l 1
 159 744 l 2
 159 732 154 727 143 730 c 0
 131 733 125 742 125 759 c 2
 125 814 l 1
 83 814 l 1
 83 759 l 2
 83 742 77 733 65 730 c 0
 54 727 49 732 49 744 c 2
 49 814 l 1
 9 814 l 1
 9 736 l 2
 9 705 25 689 58 689 c 0
 74 689 86 693 94 702 c 0
 96 704 99 711 104 722 c 1
 115 699 131 687 151 686 c 0
 183 685 199 702 199 736 c 2
 199 814 l 1
148 954 m 0
 161 954 168 948 168 935 c 0
 168 922 157 911 134 903 c 1
 127 913 123 923 123 933 c 0
 123 942 127 948 135 952 c 0
 139 953 143 954 148 954 c 0
EndSplineSet
Ligature2: "'rlig' Required Ligatures in Arabic lookup 10 subtable" shaddaarabic dammaarabic
Ligature2: "'rlig' Required Ligatures in Arabic lookup 10 subtable" dammaarabic shaddaarabic
Ligature2: "'liga' Standard Ligatures in Arabic lookup 5 subtable" shaddaarabic dammaarabic
Ligature2: "'liga' Standard Ligatures in Arabic lookup 5 subtable" dammaarabic shaddaarabic
Ligature2: "'ccmp' Glyph Composition/Decomposition in Arabic lookup 3 subtable" shaddaarabic dammaarabic
Ligature2: "'ccmp' Glyph Composition/Decomposition in Arabic lookup 3 subtable" dammaarabic shaddaarabic
EndChar

StartChar: lamalefhamzaaboveisolatedarabi
Encoding: 65271 65271 67
Width: 449
GlyphClass: 1
Flags: W
LayerCount: 2
Fore
SplineSet
231 708 m 1
 231 757 l 1
 198 757 l 2
 173 757 160 766 160 784 c 0
 160 799 166 807 178 807 c 0
 188 807 197 803 205 794 c 1
 229 831 l 1
 214 850 197 859 176 859 c 0
 139 859 110 828 110 788 c 0
 110 776 113 766 119 757 c 1
 76 757 l 1
 53 708 l 1
 231 708 l 1
222 201 m 1
 217 647 l 1
 112 647 l 1
 117 163 l 1
 154 166 202 176 222 201 c 1
419 196 m 2
 413 647 l 1
 306 647 l 1
 310 380 312 246 312 243 c 0
 312 190 288 150 241 125 c 0
 206 106 166 97 119 97 c 2
 75 97 l 1
 75 0 l 1
 160 0 l 2
 236 0 298 18 346 54 c 0
 395 91 419 138 419 196 c 2
EndSplineSet
Ligature2: "'rlig' Required Ligatures in Arabic lookup 11 subtable" laminitialarabic alefhamzaabovefinalarabic
Ligature2: "'liga' Standard Ligatures in Arabic lookup 8 subtable" laminitialarabic alefhamzaabovefinalarabic
Ligature2: "'liga' Standard Ligatures in Arabic lookup 6 subtable" laminitialarabic alefhamzaabovefinalarabic
EndChar

StartChar: hahfinalarabic
Encoding: 65186 65186 68
Width: 642
GlyphClass: 1
Flags: W
LayerCount: 2
Fore
SplineSet
651 0 m 1
 651 6 651 14 650 25 c 2
 650 72 l 1
 650 97 l 1
 606 97 l 2
 589 97 573 101 559 110 c 0
 538 122 527 140 525 164 c 0
 516 240 490 304 448 355 c 0
 402 412 345 440 277 440 c 0
 217 440 164 421 119 382 c 1
 157 303 l 1
 193 330 229 344 264 344 c 0
 296 345 325 335 350 316 c 0
 384 291 405 251 414 196 c 1
 222 196 l 2
 167 196 121 174 85 131 c 0
 51 90 34 42 34 -14 c 0
 34 -70 54 -118 93 -157 c 0
 133 -197 181 -217 237 -217 c 2
 377 -217 l 1
 377 -120 l 1
 245 -120 l 2
 218 -120 193 -110 172 -91 c 0
 149 -70 137 -43 137 -10 c 0
 137 57 177 98 248 98 c 2
 445 98 l 1
 476 33 526 0 595 0 c 2
 651 0 l 1
EndSplineSet
EndChar

StartChar: khahfinalarabic
Encoding: 65190 65190 69
Width: 642
GlyphClass: 1
Flags: W
LayerCount: 2
Fore
SplineSet
357 492 m 1
 357 593 l 1
 260 593 l 1
 260 492 l 1
 357 492 l 1
651 0 m 1
 651 6 651 14 650 25 c 2
 650 72 l 1
 650 97 l 1
 606 97 l 2
 589 97 573 101 559 110 c 0
 538 122 527 140 525 164 c 0
 516 240 490 304 448 355 c 0
 402 412 345 440 277 440 c 0
 217 440 164 421 119 382 c 1
 157 303 l 1
 193 330 229 344 264 344 c 0
 296 345 325 335 350 316 c 0
 384 291 405 251 414 196 c 1
 222 196 l 2
 167 196 121 174 85 131 c 0
 51 90 34 42 34 -14 c 0
 34 -70 54 -118 93 -157 c 0
 133 -197 181 -217 237 -217 c 2
 377 -217 l 1
 377 -120 l 1
 245 -120 l 2
 218 -120 193 -110 172 -91 c 0
 149 -70 137 -43 137 -10 c 0
 137 57 177 98 248 98 c 2
 445 98 l 1
 476 33 526 0 595 0 c 2
 651 0 l 1
EndSplineSet
EndChar

StartChar: dalfinalarabic
Encoding: 65194 65194 70
Width: 653
GlyphClass: 1
Flags: W
LayerCount: 2
Fore
SplineSet
662 0 m 1
 662 97 l 1
 526 97 l 1
 515 186 487 254 443 299 c 0
 401 343 346 365 279 365 c 1
 279 270 l 1
 306 270 333 256 360 229 c 0
 393 196 412 152 418 97 c 1
 140 97 l 1
 90 0 l 1
 662 0 l 1
EndSplineSet
EndChar

StartChar: thalfinalarabic
Encoding: 65196 65196 71
Width: 653
GlyphClass: 1
Flags: W
LayerCount: 2
Fore
SplineSet
376 446 m 1
 376 547 l 1
 279 547 l 1
 279 446 l 1
 376 446 l 1
662 0 m 1
 662 97 l 1
 526 97 l 1
 515 186 487 254 443 299 c 0
 401 343 346 365 279 365 c 1
 279 270 l 1
 306 270 333 256 360 229 c 0
 393 196 412 152 418 97 c 1
 140 97 l 1
 90 0 l 1
 662 0 l 1
EndSplineSet
EndChar

StartChar: rehfinalarabic
Encoding: 65198 65198 72
Width: 467
GlyphClass: 1
Flags: W
LayerCount: 2
Fore
SplineSet
-47 -134 m 1
 -18 -169 4 -197 19 -217 c 1
 165 -205 269 -94 279 62 c 1
 302 21 333 0 372 0 c 2
 476 0 l 1
 476 97 l 1
 365 97 l 2
 323 97 283 143 278 198 c 1
 278 365 l 1
 172 365 l 1
 172 82 l 2
 172 -43 79 -132 -47 -134 c 1
EndSplineSet
EndChar

StartChar: zainfinalarabic
Encoding: 65200 65200 73
Width: 467
GlyphClass: 1
Flags: W
LayerCount: 2
Fore
SplineSet
271 446 m 1
 271 547 l 1
 174 547 l 1
 174 446 l 1
 271 446 l 1
-47 -134 m 1
 -18 -169 4 -197 19 -217 c 1
 165 -205 269 -94 279 62 c 1
 302 21 333 0 372 0 c 2
 476 0 l 1
 476 97 l 1
 365 97 l 2
 323 97 283 143 278 198 c 1
 278 365 l 1
 172 365 l 1
 172 82 l 2
 172 -43 79 -132 -47 -134 c 1
EndSplineSet
EndChar

StartChar: seenfinalarabic
Encoding: 65202 65202 74
Width: 1262
GlyphClass: 1
Flags: W
LayerCount: 2
Fore
SplineSet
1280 0 m 1
 1280 97 l 1
 1175 97 l 2
 1156 97 1138 105 1121 122 c 0
 1101 141 1090 166 1089 197 c 0
 1088 274 1087 330 1087 365 c 1
 982 365 l 1
 983 222 983 153 983 156 c 1
 983 111 963 89 922 89 c 0
 895 89 874 98 857 116 c 0
 838 135 829 163 828 200 c 0
 827 263 826 308 826 336 c 1
 721 336 l 1
 722 231 722 171 722 157 c 0
 722 112 702 89 661 89 c 0
 634 89 612 98 595 116 c 0
 577 136 568 164 567 201 c 2
 567 336 l 1
 462 336 l 1
 462 311 463 221 464 65 c 0
 464 17 448 -24 416 -58 c 0
 385 -92 347 -109 303 -109 c 0
 258 -109 220 -92 189 -58 c 0
 158 -25 142 16 142 63 c 0
 141 123 141 192 141 269 c 1
 34 269 l 1
 38 65 l 2
 38 -14 64 -80 116 -135 c 0
 168 -190 230 -218 303 -218 c 0
 376 -218 439 -190 490 -135 c 0
 536 -86 562 -28 567 39 c 1
 595 3 634 -15 685 -14 c 0
 748 -13 791 14 812 65 c 1
 840 11 885 -15 946 -14 c 0
 1016 -13 1060 19 1079 81 c 1
 1088 56 1103 36 1124 21 c 0
 1143 7 1163 0 1182 0 c 2
 1280 0 l 1
EndSplineSet
EndChar

StartChar: sheenfinalarabic
Encoding: 65206 65206 75
Width: 1262
GlyphClass: 1
Flags: W
LayerCount: 2
Fore
SplineSet
1280 0 m 1
 1280 97 l 1
 1175 97 l 2
 1156 97 1138 105 1121 122 c 0
 1101 141 1090 166 1089 197 c 0
 1088 274 1087 330 1087 365 c 1
 982 365 l 1
 983 222 983 153 983 156 c 1
 983 111 963 89 922 89 c 0
 895 89 874 98 857 116 c 0
 838 135 829 163 828 200 c 0
 827 263 826 308 826 336 c 1
 721 336 l 1
 722 231 722 171 722 157 c 0
 722 112 702 89 661 89 c 0
 634 89 612 98 595 116 c 0
 577 136 568 164 567 201 c 2
 567 336 l 1
 462 336 l 1
 462 311 463 221 464 65 c 0
 464 17 448 -24 416 -58 c 0
 385 -92 347 -109 303 -109 c 0
 258 -109 220 -92 189 -58 c 0
 158 -25 142 16 142 63 c 0
 141 123 141 192 141 269 c 1
 34 269 l 1
 38 65 l 2
 38 -14 64 -80 116 -135 c 0
 168 -190 230 -218 303 -218 c 0
 376 -218 439 -190 490 -135 c 0
 536 -86 562 -28 567 39 c 1
 595 3 634 -15 685 -14 c 0
 748 -13 791 14 812 65 c 1
 840 11 885 -15 946 -14 c 0
 1016 -13 1060 19 1079 81 c 1
 1088 56 1103 36 1124 21 c 0
 1143 7 1163 0 1182 0 c 2
 1280 0 l 1
893 446 m 1
 893 547 l 1
 796 547 l 1
 796 446 l 1
 893 446 l 1
748 446 m 1
 748 547 l 1
 651 547 l 1
 651 446 l 1
 748 446 l 1
820 578 m 1
 820 678 l 1
 724 678 l 1
 724 578 l 1
 820 578 l 1
EndSplineSet
EndChar

StartChar: sadfinalarabic
Encoding: 65210 65210 76
Width: 1243
GlyphClass: 1
Flags: W
LayerCount: 2
Fore
SplineSet
1258 0 m 1
 1258 97 l 1
 1077 97 l 1
 1062 264 992 353 868 366 c 0
 823 371 775 358 722 329 c 0
 655 292 603 236 567 159 c 1
 566 270 l 1
 459 270 l 1
 464 65 l 2
 464 17 448 -24 416 -58 c 0
 385 -92 347 -109 303 -109 c 0
 258 -109 220 -92 189 -58 c 0
 158 -25 142 16 142 63 c 0
 141 123 141 192 141 269 c 1
 34 269 l 1
 38 65 l 2
 38 -14 64 -80 116 -135 c 0
 168 -190 230 -218 303 -218 c 0
 376 -218 439 -190 490 -135 c 0
 527 -96 551 -51 561 0 c 1
 1258 0 l 1
974 97 m 1
 621 97 l 1
 681 214 755 272 842 272 c 0
 849 272 857 271 865 270 c 0
 912 265 944 234 961 178 c 0
 969 155 973 128 974 97 c 1
EndSplineSet
EndChar

StartChar: dadfinalarabic
Encoding: 65214 65214 77
Width: 1243
GlyphClass: 1
Flags: W
LayerCount: 2
Fore
SplineSet
1258 0 m 1
 1258 97 l 1
 1077 97 l 1
 1062 264 992 353 868 366 c 0
 823 371 775 358 722 329 c 0
 655 292 603 236 567 159 c 1
 566 270 l 1
 459 270 l 1
 464 65 l 2
 464 17 448 -24 416 -58 c 0
 385 -92 347 -109 303 -109 c 0
 258 -109 220 -92 189 -58 c 0
 158 -25 142 16 142 63 c 0
 141 123 141 192 141 269 c 1
 34 269 l 1
 38 65 l 2
 38 -14 64 -80 116 -135 c 0
 168 -190 230 -218 303 -218 c 0
 376 -218 439 -190 490 -135 c 0
 527 -96 551 -51 561 0 c 1
 1258 0 l 1
974 97 m 1
 621 97 l 1
 681 214 755 272 842 272 c 0
 849 272 857 271 865 270 c 0
 912 265 944 234 961 178 c 0
 969 155 973 128 974 97 c 1
880 446 m 1
 880 547 l 1
 784 547 l 1
 784 446 l 1
 880 446 l 1
EndSplineSet
EndChar

StartChar: tahfinalarabic
Encoding: 65218 65218 78
Width: 810
GlyphClass: 1
Flags: W
LayerCount: 2
Fore
SplineSet
819 0 m 1
 819 97 l 1
 671 97 l 1
 655 277 578 367 440 367 c 0
 405 367 372 360 341 346 c 0
 303 329 273 303 251 269 c 1
 256 593 l 1
 153 593 l 1
 154 98 l 1
 59 98 l 1
 22 0 l 1
 819 0 l 1
569 97 m 1
 235 97 l 1
 277 214 344 272 437 272 c 0
 525 272 569 214 569 97 c 1
EndSplineSet
EndChar

StartChar: zahfinalarabic
Encoding: 65222 65222 79
Width: 810
GlyphClass: 1
Flags: W
LayerCount: 2
Fore
SplineSet
497 446 m 1
 497 547 l 1
 400 547 l 1
 400 446 l 1
 497 446 l 1
819 0 m 1
 819 97 l 1
 671 97 l 1
 655 277 578 367 440 367 c 0
 405 367 372 360 341 346 c 0
 303 329 273 303 251 269 c 1
 256 593 l 1
 153 593 l 1
 154 98 l 1
 59 98 l 1
 22 0 l 1
 819 0 l 1
569 97 m 1
 235 97 l 1
 277 214 344 272 437 272 c 0
 526 272 570 214 569 97 c 1
EndSplineSet
EndChar

StartChar: ainfinalarabic
Encoding: 65226 65226 80
Width: 569
GlyphClass: 1
Flags: W
LayerCount: 2
Fore
SplineSet
578 0 m 1
 578 25 l 1
 578 72 l 1
 578 97 l 1
 498 97 l 2
 466 97 443 116 428 153 c 1
 484 153 l 1
 484 252 l 1
 394 252 l 2
 362 252 335 259 313 272 c 0
 286 289 273 313 273 344 c 0
 273 388 304 419 347 419 c 0
 372 419 396 407 421 384 c 1
 476 458 l 1
 441 501 394 522 335 522 c 0
 291 522 253 509 222 484 c 0
 185 454 166 413 167 361 c 0
 167 329 174 301 188 278 c 0
 194 268 201 259 209 252 c 1
 156 249 114 226 81 183 c 0
 50 142 34 95 34 41 c 0
 34 -15 54 -63 93 -102 c 0
 133 -142 181 -162 237 -162 c 2
 393 -162 l 1
 393 -65 l 1
 245 -65 l 2
 218 -65 193 -55 172 -35 c 0
 149 -14 137 13 137 45 c 0
 137 112 177 153 248 153 c 2
 319 153 l 1
 331 108 350 73 377 47 c 0
 407 16 444 0 488 0 c 2
 578 0 l 1
EndSplineSet
EndChar

StartChar: ghainfinalarabic
Encoding: 65230 65230 81
Width: 569
GlyphClass: 1
Flags: W
LayerCount: 2
Fore
SplineSet
372 566 m 1
 372 667 l 1
 276 667 l 1
 276 566 l 1
 372 566 l 1
578 0 m 1
 578 25 l 1
 578 72 l 1
 578 97 l 1
 498 97 l 2
 466 97 443 116 428 153 c 1
 484 153 l 1
 484 252 l 1
 394 252 l 2
 362 252 335 259 313 272 c 0
 286 289 273 313 273 344 c 0
 273 388 304 419 347 419 c 0
 372 419 396 407 421 384 c 1
 476 458 l 1
 441 501 394 522 335 522 c 0
 291 522 253 509 222 484 c 0
 185 454 166 413 167 361 c 0
 167 329 174 301 188 278 c 0
 194 268 201 259 209 252 c 1
 156 249 114 226 81 183 c 0
 50 142 34 95 34 41 c 0
 34 -15 54 -63 93 -102 c 0
 133 -142 181 -162 237 -162 c 2
 393 -162 l 1
 393 -65 l 1
 245 -65 l 2
 218 -65 193 -55 172 -35 c 0
 149 -14 137 13 137 45 c 0
 137 112 177 153 248 153 c 2
 319 153 l 1
 331 108 350 73 377 47 c 0
 407 16 444 0 488 0 c 2
 578 0 l 1
EndSplineSet
EndChar

StartChar: fehfinalarabic
Encoding: 65234 65234 82
Width: 878
GlyphClass: 1
Flags: W
LayerCount: 2
Fore
SplineSet
658 514 m 1
 658 615 l 1
 561 615 l 1
 561 514 l 1
 658 514 l 1
887 0 m 1
 887 97 l 1
 831 97 l 2
 787 97 752 100 726 105 c 1
 773 152 796 204 796 263 c 0
 796 318 777 361 740 393 c 0
 705 422 662 437 611 437 c 0
 560 437 517 422 484 393 c 0
 447 361 428 318 428 263 c 0
 428 204 451 151 498 105 c 1
 472 100 450 97 431 97 c 2
 310 97 l 2
 248 97 202 128 173 189 c 0
 150 236 139 294 139 365 c 1
 34 365 l 1
 32 268 49 187 86 122 c 0
 133 40 206 -1 305 -1 c 0
 324 -1 348 -1 376 0 c 2
 449 0 l 2
 502 0 557 11 612 34 c 1
 668 11 723 0 778 0 c 2
 887 0 l 1
690 267 m 0
 690 236 679 206 657 178 c 0
 638 156 623 145 612 145 c 0
 601 145 586 156 567 178 c 0
 545 206 534 236 534 267 c 0
 534 316 563 357 611 357 c 0
 660 357 690 316 690 267 c 0
EndSplineSet
EndChar

StartChar: qaffinalarabic
Encoding: 65238 65238 83
Width: 733
GlyphClass: 1
Flags: W
LayerCount: 2
Fore
SplineSet
559 446 m 1
 559 547 l 1
 462 547 l 1
 462 446 l 1
 559 446 l 1
414 446 m 1
 414 547 l 1
 317 547 l 1
 317 446 l 1
 414 446 l 1
741 0 m 1
 741 97 l 1
 609 97 l 1
 609 208 l 2
 609 305 552 357 437 366 c 0
 394 369 354 357 318 328 c 0
 275 293 252 243 250 178 c 0
 248 131 262 90 292 55 c 0
 324 18 365 -1 415 -1 c 2
 449 -1 l 2
 467 0 480 0 488 0 c 1
 456 -70 402 -105 327 -105 c 0
 274 -105 230 -85 193 -44 c 0
 157 -4 139 45 139 103 c 2
 139 220 l 1
 34 220 l 1
 34 93 l 2
 34 -2 62 -78 119 -135 c 0
 173 -190 242 -217 326 -217 c 0
 466 -217 568 -135 599 0 c 1
 741 0 l 1
501 96 m 1
 430 96 l 2
 387 96 353 135 354 184 c 0
 357 251 387 291 434 291 c 0
 455 291 472 282 484 265 c 0
 494 250 499 239 499 230 c 0
 499 222 500 177 501 96 c 1
EndSplineSet
EndChar

StartChar: kaffinalarabic
Encoding: 65242 65242 84
Width: 875
GlyphClass: 1
Flags: W
LayerCount: 2
Fore
SplineSet
491 325 m 1
 491 390 l 1
 447 390 l 2
 430 390 416 394 407 403 c 0
 400 410 397 417 397 426 c 0
 398 447 407 456 423 455 c 0
 434 454 446 448 457 438 c 1
 489 486 l 1
 469 510 446 522 420 522 c 0
 369 522 332 481 332 429 c 0
 332 413 336 400 344 390 c 1
 288 390 l 1
 258 325 l 1
 491 325 l 1
884 0 m 1
 884 25 l 1
 884 72 l 1
 884 97 l 1
 793 97 l 2
 774 97 756 106 739 123 c 0
 719 144 708 170 707 203 c 0
 704 402 703 551 702 649 c 1
 596 649 l 1
 601 328 603 163 603 153 c 0
 603 116 590 97 564 97 c 2
 310 97 l 2
 248 97 202 128 173 189 c 0
 150 236 139 294 139 365 c 1
 34 365 l 1
 32 268 49 188 86 123 c 0
 133 41 206 0 305 0 c 2
 615 0 l 2
 663 0 693 22 705 66 c 1
 728 22 759 0 800 0 c 2
 884 0 l 1
EndSplineSet
EndChar

StartChar: lamfinalarabic
Encoding: 65246 65246 85
Width: 734
GlyphClass: 1
Flags: W
LayerCount: 2
Fore
SplineSet
34 269 m 1
 34 269 38 71 38 65 c 0
 38 -89 158 -218 303 -218 c 0
 447 -218 566 -92 568 59 c 1
 591 20 622 0 659 0 c 2
 744 0 l 1
 744 6 744 14 743 25 c 2
 743 97 l 1
 653 97 l 2
 610 97 569 140 567 189 c 2
 564 658 l 1
 457 658 l 1
 464 65 l 2
 464 -28 392 -109 303 -109 c 0
 258 -109 221 -92 189 -58 c 0
 135 0 144 15 141 159 c 2
 139 269 l 1
 34 269 l 1
EndSplineSet
EndChar

StartChar: meemfinalarabic
Encoding: 65250 65250 86
Width: 765
GlyphClass: 1
Flags: W
LayerCount: 2
Fore
SplineSet
775 0 m 1
 775 97 l 1
 689 94 636 137 616 227 c 0
 607 269 588 303 557 330 c 0
 522 361 480 376 430 376 c 0
 341 376 284 338 259 261 c 1
 205 261 l 1
 165 261 l 2
 77 261 33 217 34 130 c 2
 39 -217 l 1
 144 -217 l 1
 140 74 l 2
 139 102 142 122 147 133 c 0
 156 149 173 157 198 157 c 2
 250 157 l 1
 257 113 276 76 308 47 c 0
 342 16 385 0 438 0 c 0
 513 0 566 29 597 87 c 1
 634 28 688 -1 757 0 c 2
 775 0 l 1
516 187 m 0
 516 123 483 86 439 86 c 0
 418 86 399 94 384 111 c 0
 367 130 358 156 358 187 c 0
 358 219 366 244 381 263 c 0
 395 280 413 288 434 288 c 0
 456 288 475 280 490 263 c 0
 507 244 516 218 516 187 c 0
EndSplineSet
EndChar

StartChar: noonfinalarabic
Encoding: 65254 65254 87
Width: 734
GlyphClass: 1
Flags: W
LayerCount: 2
Fore
SplineSet
347 364 m 1
 347 465 l 1
 250 465 l 1
 250 364 l 1
 347 364 l 1
743 0 m 1
 743 97 l 1
 653 97 l 2
 634 97 617 105 601 122 c 0
 582 141 570 166 567 196 c 2
 566 270 l 1
 459 270 l 1
 464 65 l 2
 465 18 449 -23 417 -57 c 0
 386 -92 348 -109 303 -109 c 0
 258 -109 220 -92 189 -58 c 0
 158 -25 142 16 142 63 c 0
 142 67 142 99 141 159 c 2
 141 269 l 1
 34 269 l 1
 34 258 35 222 36 160 c 0
 37 106 38 74 38 65 c 0
 38 -13 64 -80 116 -135 c 0
 168 -190 230 -218 303 -218 c 0
 375 -218 437 -191 488 -137 c 0
 540 -83 567 -18 568 59 c 1
 591 20 621 0 659 0 c 2
 743 0 l 1
EndSplineSet
EndChar

StartChar: hehfinalarabic
Encoding: 65258 65258 88
Width: 517
GlyphClass: 1
Flags: W
LayerCount: 2
Fore
SplineSet
526 0 m 1
 526 97 l 1
 424 97 l 2
 397 97 383 114 383 147 c 2
 382 430 l 1
 277 430 l 1
 277 394 l 1
 275 394 l 1
 252 423 220 438 178 438 c 0
 143 438 112 424 85 397 c 0
 51 364 34 316 34 253 c 0
 34 156 74 108 153 108 c 2
 278 108 l 1
 278 36 313 0 384 0 c 2
 526 0 l 1
278 205 m 1
 190 205 l 2
 159 205 143 221 141 253 c 0
 138 306 159 333 205 333 c 0
 234 333 258 318 277 287 c 1
 278 205 l 1
EndSplineSet
EndChar

StartChar: wawfinalarabic
Encoding: 65262 65262 89
Width: 584
GlyphClass: 1
Flags: W
LayerCount: 2
Fore
SplineSet
594 0 m 1
 594 97 l 1
 460 97 l 1
 460 209 l 2
 460 305 397 367 288 367 c 0
 185 367 101 292 101 179 c 0
 101 84 169 0 268 0 c 2
 338 0 l 1
 306 -83 227 -134 136 -134 c 1
 164 -169 186 -197 201 -217 c 1
 328 -206 419 -124 450 0 c 1
 594 0 l 1
354 97 m 1
 283 97 l 2
 241 97 207 136 207 184 c 0
 207 250 242 293 288 293 c 0
 323 293 353 254 353 232 c 0
 353 224 353 179 354 97 c 1
EndSplineSet
EndChar

StartChar: alefmaksurafinalarabic
Encoding: 65264 65264 90
Width: 852
GlyphClass: 1
Flags: W
LayerCount: 2
Fore
SplineSet
860 0 m 1
 860 97 l 1
 815 97 l 2
 773 97 746 118 734 161 c 0
 717 224 697 273 674 307 c 0
 630 369 568 400 489 400 c 0
 416 400 358 374 315 322 c 0
 271 267 249 190 249 89 c 1
 462 89 l 1
 463 66 l 2
 463 11 445 -33 409 -66 c 0
 378 -95 343 -109 302 -109 c 0
 264 -109 229 -95 197 -66 c 0
 160 -33 142 11 142 64 c 0
 142 71 141 88 140 117 c 0
 139 146 139 170 139 187 c 1
 34 187 l 1
 36 130 37 90 38 65 c 0
 38 -14 64 -80 116 -135 c 0
 168 -190 230 -218 303 -218 c 0
 376 -218 439 -190 490 -135 c 0
 542 -80 568 -14 568 64 c 2
 568 187 l 1
 376 187 l 1
 399 256 438 291 494 292 c 0
 567 293 616 235 641 118 c 0
 648 90 661 65 681 43 c 0
 708 14 740 0 779 0 c 2
 860 0 l 1
EndSplineSet
EndChar

StartChar: yehfinalarabic
Encoding: 65266 65266 91
Width: 845
GlyphClass: 1
Flags: W
LayerCount: 2
Fore
SplineSet
860 0 m 1
 860 97 l 1
 815 97 l 2
 773 97 746 118 734 161 c 0
 717 224 697 273 674 307 c 0
 630 369 568 400 489 400 c 0
 416 400 358 374 315 322 c 0
 271 267 249 190 249 89 c 1
 462 89 l 1
 463 66 l 2
 463 11 445 -33 409 -66 c 0
 378 -95 343 -109 302 -109 c 0
 264 -109 229 -95 197 -66 c 0
 160 -33 142 11 142 64 c 0
 142 71 141 88 140 117 c 0
 139 146 139 170 139 187 c 1
 34 187 l 1
 36 130 37 90 38 65 c 0
 38 -14 64 -80 116 -135 c 0
 168 -190 230 -218 303 -218 c 0
 376 -218 439 -190 490 -135 c 0
 542 -80 568 -14 568 64 c 2
 568 187 l 1
 376 187 l 1
 399 256 438 291 494 292 c 0
 567 293 616 235 641 118 c 0
 648 90 661 65 681 43 c 0
 708 14 740 0 779 0 c 2
 860 0 l 1
436 -393 m 1
 436 -292 l 1
 340 -292 l 1
 340 -393 l 1
 436 -393 l 1
291 -393 m 1
 291 -292 l 1
 195 -292 l 1
 195 -393 l 1
 291 -393 l 1
EndSplineSet
EndChar

StartChar: lamalefmaddaabovefinalarabic
Encoding: 65270 65270 92
Width: 539
GlyphClass: 1
Flags: W
LayerCount: 2
Fore
SplineSet
271 795 m 1
 232 795 l 1
 230 772 217 760 193 760 c 0
 185 760 169 765 144 774 c 0
 120 783 100 788 85 788 c 0
 46 788 19 753 14 708 c 1
 50 708 l 1
 54 731 66 742 85 742 c 0
 95 742 112 737 136 728 c 0
 160 719 179 715 193 715 c 0
 215 715 233 723 248 740 c 0
 261 753 268 772 271 795 c 1
553 0 m 1
 553 97 l 1
 465 97 l 2
 444 97 425 106 406 125 c 0
 383 148 372 176 372 209 c 2
 366 647 l 1
 259 647 l 1
 263 380 265 246 265 243 c 0
 265 190 241 150 194 125 c 0
 159 106 119 97 72 97 c 2
 28 97 l 1
 28 0 l 1
 113 0 l 2
 220 0 296 33 341 98 c 1
 349 72 364 50 386 31 c 0
 410 10 436 0 464 0 c 2
 553 0 l 1
175 201 m 1
 170 647 l 1
 65 647 l 1
 70 163 l 1
 107 166 155 176 175 201 c 1
EndSplineSet
Ligature2: "'rlig' Required Ligatures in Arabic lookup 11 subtable" lammedialarabic alefmaddaabovefinalarabic
Ligature2: "'liga' Standard Ligatures in Arabic lookup 8 subtable" lammedialarabic alefmaddaabovefinalarabic
Ligature2: "'liga' Standard Ligatures in Arabic lookup 6 subtable" lammedialarabic alefmaddaabovefinalarabic
EndChar

StartChar: shaddadammatanarabic
Encoding: 64606 64606 93
Width: 0
GlyphClass: 1
Flags: W
LayerCount: 2
Fore
SplineSet
200 925 m 0
 200 953 175 979 147 979 c 0
 138 979 128 976 119 971 c 0
 102 960 94 943 94 922 c 0
 94 907 99 894 108 883 c 1
 92 876 73 874 50 875 c 1
 70 887 80 905 80 929 c 0
 80 956 68 973 44 981 c 0
 39 983 34 984 29 984 c 0
 8 984 -8 971 -20 946 c 1
 -8 957 4 962 16 962 c 0
 22 962 28 960 33 955 c 0
 42 948 46 940 46 931 c 0
 46 914 33 896 7 876 c 1
 15 856 20 846 21 845 c 0
 34 843 49 842 66 842 c 0
 153 842 200 877 200 925 c 0
197 803 m 1
 156 803 l 1
 157 734 l 2
 157 721 152 717 141 720 c 0
 129 723 123 732 123 749 c 2
 123 803 l 1
 81 803 l 1
 81 749 l 2
 81 732 75 723 63 720 c 0
 52 717 47 721 47 734 c 2
 47 803 l 1
 7 803 l 1
 7 726 l 2
 7 694 23 678 56 678 c 0
 72 678 84 682 92 691 c 0
 94 694 98 701 103 712 c 1
 113 689 128 677 149 676 c 0
 181 675 197 692 197 726 c 2
 197 803 l 1
150 946 m 0
 163 946 170 939 170 926 c 0
 170 912 159 902 136 895 c 1
 129 904 125 914 125 923 c 0
 125 932 129 938 137 942 c 0
 142 945 146 946 150 946 c 0
EndSplineSet
Ligature2: "'rlig' Required Ligatures in Arabic lookup 10 subtable" shaddaarabic dammatanarabic
Ligature2: "'rlig' Required Ligatures in Arabic lookup 10 subtable" dammatanarabic shaddaarabic
Ligature2: "'liga' Standard Ligatures in Arabic lookup 5 subtable" shaddaarabic dammatanarabic
Ligature2: "'liga' Standard Ligatures in Arabic lookup 5 subtable" dammatanarabic shaddaarabic
Ligature2: "'ccmp' Glyph Composition/Decomposition in Arabic lookup 3 subtable" shaddaarabic dammatanarabic
Ligature2: "'ccmp' Glyph Composition/Decomposition in Arabic lookup 3 subtable" dammatanarabic shaddaarabic
EndChar

StartChar: yehhamzaaboveinitialarabic
Encoding: 65163 65163 94
Width: 311
GlyphClass: 1
Flags: W
LayerCount: 2
Fore
SplineSet
213 446 m 1
 213 510 l 1
 168 510 l 2
 151 510 137 514 128 523 c 0
 122 530 119 538 119 547 c 0
 120 568 129 577 145 576 c 0
 156 575 167 569 178 559 c 1
 210 607 l 1
 191 631 168 643 141 643 c 0
 90 643 53 602 53 550 c 0
 53 534 57 521 66 510 c 1
 9 510 l 1
 -21 446 l 1
 213 446 l 1
281 130 m 1
 281 129 280 207 279 365 c 1
 173 365 l 1
 174 340 174 306 175 265 c 0
 176 238 176 205 176 166 c 0
 176 121 147 97 108 97 c 2
 -10 97 l 1
 -10 0 l 1
 147 0 l 2
 234 0 281 50 281 130 c 1
EndSplineSet
EndChar

StartChar: dadinitialarabic
Encoding: 65215 65215 95
Width: 774
GlyphClass: 1
Flags: W
LayerCount: 2
Fore
SplineSet
740 0 m 1
 740 101 729 179 706 234 c 0
 672 313 612 357 527 366 c 0
 482 371 432 358 379 329 c 0
 310 290 257 231 222 152 c 1
 222 270 l 1
 117 270 l 1
 119 97 l 1
 -9 97 l 1
 -10 0 l 1
 740 0 l 1
633 101 m 2
 633 97 l 1
 280 97 l 1
 340 214 414 272 501 272 c 0
 508 272 516 271 524 270 c 0
 568 265 599 238 617 189 c 0
 628 162 633 132 633 101 c 2
539 446 m 1
 539 547 l 1
 443 547 l 1
 443 446 l 1
 539 446 l 1
EndSplineSet
EndChar

StartChar: alefmaksurainitialarabic
Encoding: 64510 64510 96
Width: 311
GlyphClass: 1
Flags: W
LayerCount: 2
Fore
SplineSet
281 130 m 1
 281 129 280 207 279 365 c 1
 173 365 l 1
 174 340 174 306 175 265 c 0
 176 238 176 205 176 166 c 0
 176 121 147 97 108 97 c 2
 -10 97 l 1
 -10 0 l 1
 147 0 l 2
 234 0 281 50 281 130 c 1
228 -152 m 1
 228 -51 l 1
 132 -51 l 1
 132 -152 l 1
 228 -152 l 1
84 -152 m 1
 84 -51 l 1
 -13 -51 l 1
 -13 -152 l 1
 84 -152 l 1
EndSplineSet
EndChar

StartChar: alefmaksuramedialarabic
Encoding: 64511 64511 97
Width: 454
GlyphClass: 1
Flags: W
LayerCount: 2
Fore
SplineSet
463 0 m 1
 463 25 l 1
 463 72 l 1
 463 97 l 1
 383 97 l 2
 363 97 345 106 328 125 c 0
 307 146 297 174 297 209 c 0
 295 276 294 328 294 365 c 1
 189 365 l 1
 191 167 l 2
 191 144 181 126 160 113 c 0
 144 102 127 97 108 97 c 2
 -10 97 l 1
 -10 0 l 1
 148 0 l 2
 203 1 255 32 272 81 c 1
 277 66 286 52 297 38 c 0
 318 13 344 0 374 0 c 2
 463 0 l 1
340 -152 m 1
 340 -51 l 1
 244 -51 l 1
 244 -152 l 1
 340 -152 l 1
196 -152 m 1
 196 -51 l 1
 99 -51 l 1
 99 -152 l 1
 196 -152 l 1
EndSplineSet
EndChar

StartChar: sadinitialarabic
Encoding: 65211 65211 98
Width: 774
GlyphClass: 1
Flags: W
LayerCount: 2
Fore
SplineSet
740 0 m 1
 740 101 729 179 706 234 c 0
 672 313 612 357 527 366 c 0
 482 371 432 358 379 329 c 0
 310 290 257 231 222 152 c 1
 222 270 l 1
 117 270 l 1
 119 97 l 1
 -9 97 l 1
 -10 0 l 1
 740 0 l 1
633 101 m 2
 633 97 l 1
 280 97 l 1
 340 214 414 272 501 272 c 0
 508 272 516 271 524 270 c 0
 568 265 599 238 617 189 c 0
 628 162 633 132 633 101 c 2
EndSplineSet
EndChar

StartChar: pehinitialarabic
Encoding: 64344 64344 99
Width: 311
GlyphClass: 1
Flags: W
LayerCount: 2
Fore
SplineSet
281 130 m 1
 281 129 280 207 279 365 c 1
 173 365 l 1
 174 340 174 306 175 265 c 0
 176 238 176 205 176 166 c 0
 176 121 147 97 108 97 c 2
 -10 97 l 1
 -10 0 l 1
 147 0 l 2
 234 0 281 50 281 130 c 1
247 -171 m 1
 247 -70 l 1
 151 -70 l 1
 151 -171 l 1
 247 -171 l 1
103 -171 m 1
 103 -70 l 1
 6 -70 l 1
 6 -171 l 1
 103 -171 l 1
175 -303 m 1
 175 -202 l 1
 78 -202 l 1
 78 -303 l 1
 175 -303 l 1
EndSplineSet
EndChar

StartChar: tchehinitialarabic
Encoding: 64380 64380 101
Width: 566
GlyphClass: 1
Flags: W
LayerCount: 2
Fore
SplineSet
536 0 m 1
 536 103 517 187 478 253 c 0
 429 334 355 375 258 375 c 0
 180 375 121 358 81 323 c 1
 122 241 l 1
 150 264 194 275 255 275 c 0
 350 275 408 216 428 98 c 1
 -12 98 l 1
 -12 0 l 1
 536 0 l 1
395 -171 m 1
 395 -70 l 1
 298 -70 l 1
 298 -171 l 1
 395 -171 l 1
250 -171 m 1
 250 -70 l 1
 153 -70 l 1
 153 -171 l 1
 250 -171 l 1
322 -303 m 1
 322 -202 l 1
 226 -202 l 1
 226 -303 l 1
 322 -303 l 1
EndSplineSet
EndChar

StartChar: vehinitialarabic
Encoding: 64364 64364 102
Width: 416
GlyphClass: 1
Flags: W
LayerCount: 2
Fore
SplineSet
264 720 m 1
 264 821 l 1
 168 821 l 1
 168 720 l 1
 264 720 l 1
336 588 m 1
 336 689 l 1
 240 689 l 1
 240 588 l 1
 336 588 l 1
191 588 m 1
 191 689 l 1
 95 689 l 1
 95 588 l 1
 191 588 l 1
386 88 m 2
 386 379 l 2
 385 476 328 529 215 538 c 0
 171 541 131 528 96 499 c 0
 53 464 30 415 28 350 c 0
 26 303 40 262 70 227 c 0
 102 190 143 171 192 171 c 2
 278 171 l 1
 278 143 l 2
 277 112 264 97 238 97 c 2
 -11 97 l 1
 -11 0 l 1
 296 0 l 2
 357 0 387 29 386 88 c 2
278 267 m 1
 208 267 l 2
 164 267 130 307 131 356 c 0
 135 421 165 463 212 463 c 0
 233 463 250 454 262 436 c 0
 272 422 277 411 277 402 c 0
 277 394 277 349 278 267 c 1
EndSplineSet
EndChar

StartChar: pehmedialarabic
Encoding: 64345 64345 103
Width: 454
GlyphClass: 1
Flags: W
LayerCount: 2
Fore
SplineSet
463 0 m 1
 463 25 l 1
 463 72 l 1
 463 97 l 1
 383 97 l 2
 363 97 345 106 328 125 c 0
 307 146 297 174 297 209 c 0
 295 276 294 328 294 365 c 1
 189 365 l 1
 191 167 l 2
 191 144 181 126 160 113 c 0
 144 102 127 97 108 97 c 2
 -10 97 l 1
 -10 0 l 1
 148 0 l 2
 203 1 255 32 272 81 c 1
 277 66 286 52 297 38 c 0
 318 13 344 0 374 0 c 2
 463 0 l 1
345 -171 m 1
 345 -70 l 1
 248 -70 l 1
 248 -171 l 1
 345 -171 l 1
200 -171 m 1
 200 -70 l 1
 103 -70 l 1
 103 -171 l 1
 200 -171 l 1
272 -303 m 1
 272 -202 l 1
 176 -202 l 1
 176 -303 l 1
 272 -303 l 1
EndSplineSet
EndChar

StartChar: tchehmedialarabic
Encoding: 64381 64381 104
Width: 619
GlyphClass: 1
Flags: W
LayerCount: 2
Fore
SplineSet
628 0 m 1
 628 97 l 1
 530 97 l 1
 518 178 492 243 451 290 c 0
 403 347 339 375 258 375 c 0
 180 375 121 358 81 323 c 1
 122 241 l 1
 150 264 194 275 255 275 c 0
 351 275 409 216 429 97 c 1
 -10 97 l 1
 -10 0 l 1
 510 0 l 1
 628 0 l 1
401 -171 m 1
 401 -70 l 1
 304 -70 l 1
 304 -171 l 1
 401 -171 l 1
256 -171 m 1
 256 -70 l 1
 159 -70 l 1
 159 -171 l 1
 256 -171 l 1
328 -303 m 1
 328 -202 l 1
 233 -202 l 1
 233 -303 l 1
 328 -303 l 1
EndSplineSet
EndChar

StartChar: guillemotleft
Encoding: 171 171 105
Width: 383
GlyphClass: 1
Flags: W
LayerCount: 2
Fore
SplineSet
333 325 m 1
 265 343 l 1
 237 312 217 284 205 259 c 0
 190 228 183 195 183 159 c 0
 183 99 209 39 260 -21 c 1
 328 0 l 1
 279 59 254 111 254 157 c 0
 254 217 280 273 333 325 c 1
198 325 m 1
 130 343 l 1
 103 312 83 284 71 259 c 0
 56 228 48 195 48 159 c 0
 48 99 74 39 126 -21 c 1
 194 0 l 1
 144 59 119 111 119 157 c 0
 119 217 145 273 198 325 c 1
EndSplineSet
EndChar

StartChar: vehmedialarabic
Encoding: 64365 64365 106
Width: 500
GlyphClass: 1
Flags: W
LayerCount: 2
Fore
SplineSet
279 646 m 1
 279 746 l 1
 183 746 l 1
 183 646 l 1
 279 646 l 1
352 514 m 1
 352 615 l 1
 255 615 l 1
 255 514 l 1
 352 514 l 1
207 514 m 1
 207 615 l 1
 110 615 l 1
 110 514 l 1
 207 514 l 1
509 0 m 1
 509 97 l 1
 453 97 l 2
 412 97 377 100 348 105 c 1
 395 152 418 204 418 263 c 0
 418 318 399 361 361 393 c 0
 327 422 284 437 233 437 c 0
 182 437 139 422 105 393 c 0
 68 361 49 318 49 263 c 0
 49 204 73 151 120 105 c 1
 90 99 56 96 18 97 c 2
 -10 97 l 1
 -10 0 l 1
 71 0 l 2
 124 0 179 11 234 34 c 1
 289 11 344 0 399 0 c 2
 509 0 l 1
312 267 m 0
 312 236 301 206 279 178 c 0
 261 156 246 145 234 145 c 0
 222 145 207 156 189 178 c 0
 166 206 155 236 155 267 c 0
 155 316 185 357 234 357 c 0
 258 357 277 348 292 329 c 0
 305 312 312 292 312 267 c 0
EndSplineSet
EndChar

StartChar: pehfinalarabic
Encoding: 64343 64343 107
Width: 876
GlyphClass: 1
Flags: W
LayerCount: 2
Fore
SplineSet
885 0 m 1
 885 97 l 1
 794 97 l 2
 775 97 756 106 739 125 c 0
 719 146 709 174 708 209 c 0
 707 280 707 332 706 365 c 1
 600 365 l 1
 603 153 l 2
 603 116 590 97 564 97 c 2
 310 97 l 2
 248 97 202 128 173 189 c 0
 150 236 139 294 139 365 c 1
 34 365 l 1
 32 268 49 188 86 123 c 0
 133 41 206 0 305 0 c 2
 615 0 l 2
 664 0 694 22 706 67 c 1
 729 22 760 0 801 0 c 2
 885 0 l 1
537 -171 m 1
 537 -70 l 1
 440 -70 l 1
 440 -171 l 1
 537 -171 l 1
392 -171 m 1
 392 -70 l 1
 296 -70 l 1
 296 -171 l 1
 392 -171 l 1
465 -303 m 1
 465 -202 l 1
 369 -202 l 1
 369 -303 l 1
 465 -303 l 1
EndSplineSet
EndChar

StartChar: tchehfinalarabic
Encoding: 64379 64379 108
Width: 642
GlyphClass: 1
Flags: W
LayerCount: 2
Fore
SplineSet
651 0 m 1
 651 6 651 14 650 25 c 2
 650 72 l 1
 650 97 l 1
 606 97 l 2
 589 97 573 101 559 110 c 0
 538 122 527 140 525 164 c 0
 516 240 490 304 448 355 c 0
 402 412 345 440 277 440 c 0
 217 440 164 421 119 382 c 1
 157 303 l 1
 193 330 229 344 264 344 c 0
 296 345 325 335 350 316 c 0
 384 291 405 251 414 196 c 1
 222 196 l 2
 167 196 121 174 85 131 c 0
 51 90 34 42 34 -14 c 0
 34 -70 54 -118 93 -157 c 0
 133 -197 181 -217 237 -217 c 2
 377 -217 l 1
 377 -120 l 1
 245 -120 l 2
 218 -120 193 -110 172 -91 c 0
 149 -70 137 -43 137 -10 c 0
 137 57 177 98 248 98 c 2
 445 98 l 1
 476 33 526 0 595 0 c 2
 651 0 l 1
399 -3 m 1
 399 69 l 1
 330 69 l 1
 330 -3 l 1
 399 -3 l 1
296 -3 m 1
 296 69 l 1
 227 69 l 1
 227 -3 l 1
 296 -3 l 1
347 -97 m 1
 347 -25 l 1
 278 -25 l 1
 278 -97 l 1
 347 -97 l 1
EndSplineSet
EndChar

StartChar: vehfinalarabic
Encoding: 64363 64363 109
Width: 878
GlyphClass: 1
Flags: W
LayerCount: 2
Fore
SplineSet
657 646 m 1
 657 746 l 1
 560 746 l 1
 560 646 l 1
 657 646 l 1
729 514 m 1
 729 615 l 1
 633 615 l 1
 633 514 l 1
 729 514 l 1
584 514 m 1
 584 615 l 1
 488 615 l 1
 488 514 l 1
 584 514 l 1
900 0 m 1
 900 97 l 1
 831 97 l 2
 790 97 755 100 726 105 c 1
 773 152 796 204 796 263 c 0
 796 318 777 361 740 393 c 0
 705 422 662 437 611 437 c 0
 560 437 517 422 484 393 c 0
 447 361 428 318 428 263 c 0
 428 204 451 151 498 105 c 1
 472 100 450 97 431 97 c 2
 310 97 l 2
 248 97 202 128 173 189 c 0
 150 236 139 294 139 365 c 1
 34 365 l 1
 32 268 49 187 86 122 c 0
 133 40 206 -1 305 -1 c 0
 324 -1 348 -1 376 0 c 2
 449 0 l 2
 502 0 557 11 612 34 c 1
 668 11 723 0 778 0 c 2
 900 0 l 1
690 267 m 0
 690 236 679 206 657 178 c 0
 638 156 623 145 612 145 c 0
 601 145 586 156 567 178 c 0
 545 206 534 236 534 267 c 0
 534 316 563 357 611 357 c 0
 660 357 690 316 690 267 c 0
EndSplineSet
EndChar

StartChar: jehfinalarabic
Encoding: 64395 64395 110
Width: 467
GlyphClass: 1
Flags: W
LayerCount: 2
Fore
SplineSet
-47 -134 m 1
 -18 -169 4 -197 19 -217 c 1
 165 -205 269 -94 279 62 c 1
 302 21 333 0 372 0 c 2
 476 0 l 1
 476 97 l 1
 365 97 l 2
 323 97 283 143 278 198 c 1
 278 365 l 1
 172 365 l 1
 172 82 l 2
 172 -43 79 -132 -47 -134 c 1
207 578 m 1
 207 678 l 1
 111 678 l 1
 111 578 l 1
 207 578 l 1
280 446 m 1
 280 547 l 1
 183 547 l 1
 183 446 l 1
 280 446 l 1
135 446 m 1
 135 547 l 1
 38 547 l 1
 38 446 l 1
 135 446 l 1
EndSplineSet
EndChar

StartChar: guillemotright
Encoding: 187 187 111
Width: 383
GlyphClass: 1
Flags: W
LayerCount: 2
Fore
SplineSet
333 159 m 0
 333 195 325 228 310 259 c 0
 298 284 278 312 251 343 c 1
 183 325 l 1
 236 273 262 217 262 157 c 0
 262 111 237 59 187 0 c 1
 255 -21 l 1
 307 39 333 99 333 159 c 0
198 159 m 0
 198 195 191 228 176 259 c 0
 164 284 144 312 116 343 c 1
 48 325 l 1
 101 273 127 217 127 157 c 0
 127 111 102 59 53 0 c 1
 121 -21 l 1
 172 39 198 99 198 159 c 0
EndSplineSet
EndChar

StartChar: lamalefisolatedarabic
Encoding: 65275 65275 112
Width: 449
GlyphClass: 1
Flags: W
LayerCount: 2
Fore
SplineSet
222 201 m 1
 217 647 l 1
 112 647 l 1
 117 163 l 1
 154 166 202 176 222 201 c 1
419 196 m 2
 413 647 l 1
 306 647 l 1
 310 380 312 246 312 243 c 0
 312 190 288 150 241 125 c 0
 206 106 166 97 119 97 c 2
 75 97 l 1
 75 0 l 1
 160 0 l 2
 236 0 298 18 346 54 c 0
 395 91 419 138 419 196 c 2
EndSplineSet
Ligature2: "'rlig' Required Ligatures in Arabic lookup 11 subtable" laminitialarabic aleffinalarabic
Ligature2: "'liga' Standard Ligatures in Arabic lookup 8 subtable" laminitialarabic aleffinalarabic
Ligature2: "'liga' Standard Ligatures in Arabic lookup 6 subtable" laminitialarabic aleffinalarabic
EndChar

StartChar: lamaleffinalarabic
Encoding: 65276 65276 113
Width: 539
GlyphClass: 1
Flags: W
LayerCount: 2
Fore
SplineSet
553 0 m 1
 553 97 l 1
 465 97 l 2
 444 97 425 106 406 125 c 0
 383 148 372 176 372 209 c 2
 366 647 l 1
 259 647 l 1
 263 380 265 246 265 243 c 0
 265 190 241 150 194 125 c 0
 159 106 119 97 72 97 c 2
 28 97 l 1
 28 0 l 1
 113 0 l 2
 220 0 296 33 341 98 c 1
 349 72 364 50 386 31 c 0
 410 10 436 0 464 0 c 2
 553 0 l 1
175 201 m 1
 170 647 l 1
 65 647 l 1
 70 163 l 1
 107 166 155 176 175 201 c 1
EndSplineSet
Ligature2: "'rlig' Required Ligatures in Arabic lookup 11 subtable" lammedialarabic aleffinalarabic
Ligature2: "'liga' Standard Ligatures in Arabic lookup 8 subtable" lammedialarabic aleffinalarabic
Ligature2: "'liga' Standard Ligatures in Arabic lookup 6 subtable" lammedialarabic aleffinalarabic
EndChar

StartChar: divide
Encoding: 247 247 114
Width: 517
GlyphClass: 1
Flags: W
LayerCount: 2
Fore
SplineSet
321 385 m 0
 321 420 292 447 259 447 c 0
 224 447 197 420 197 385 c 0
 197 350 224 323 259 323 c 0
 292 323 321 350 321 385 c 0
476 171 m 1
 476 265 l 1
 40 265 l 1
 40 171 l 1
 476 171 l 1
321 51 m 0
 321 86 292 113 259 113 c 0
 224 113 197 86 197 51 c 0
 197 16 224 -11 259 -11 c 0
 292 -11 321 16 321 51 c 0
EndSplineSet
EndChar

StartChar: lamalefhamzaabovefinalarabicX
Encoding: 65272 65272 115
Width: 539
GlyphClass: 1
Flags: W
LayerCount: 2
Fore
SplineSet
186 708 m 1
 186 757 l 1
 153 757 l 2
 128 757 115 766 115 784 c 0
 115 799 121 807 133 807 c 0
 143 807 152 803 160 794 c 1
 184 831 l 1
 169 850 152 859 131 859 c 0
 94 859 65 828 65 788 c 0
 65 776 68 766 74 757 c 1
 31 757 l 1
 8 708 l 1
 186 708 l 1
553 0 m 1
 553 97 l 1
 465 97 l 2
 444 97 425 106 406 125 c 0
 383 148 372 176 372 209 c 2
 366 647 l 1
 259 647 l 1
 263 380 265 246 265 243 c 0
 265 190 241 150 194 125 c 0
 159 106 119 97 72 97 c 2
 28 97 l 1
 28 0 l 1
 113 0 l 2
 220 0 296 33 341 98 c 1
 349 72 364 50 386 31 c 0
 410 10 436 0 464 0 c 2
 553 0 l 1
175 201 m 1
 170 647 l 1
 65 647 l 1
 70 163 l 1
 107 166 155 176 175 201 c 1
EndSplineSet
Ligature2: "'rlig' Required Ligatures in Arabic lookup 11 subtable" lammedialarabic alefhamzaabovefinalarabic
Ligature2: "'liga' Standard Ligatures in Arabic lookup 8 subtable" lammedialarabic alefhamzaabovefinalarabic
Ligature2: "'liga' Standard Ligatures in Arabic lookup 6 subtable" lammedialarabic alefhamzaabovefinalarabic
EndChar

StartChar: lamalefhamzabelowisolatedarabi
Encoding: 65273 65273 116
Width: 449
GlyphClass: 1
Flags: W
LayerCount: 2
Fore
SplineSet
231 -209 m 1
 231 -160 l 1
 198 -160 l 2
 173 -160 160 -151 160 -133 c 0
 160 -118 166 -110 178 -110 c 0
 188 -110 197 -115 205 -123 c 1
 229 -86 l 1
 214 -67 197 -58 176 -58 c 0
 139 -58 110 -89 110 -129 c 0
 110 -141 113 -151 119 -160 c 1
 76 -160 l 1
 53 -209 l 1
 231 -209 l 1
222 201 m 1
 217 647 l 1
 112 647 l 1
 117 163 l 1
 154 166 202 176 222 201 c 1
419 196 m 2
 413 647 l 1
 306 647 l 1
 310 380 312 246 312 243 c 0
 312 190 288 150 241 125 c 0
 206 106 166 97 119 97 c 2
 75 97 l 1
 75 0 l 1
 160 0 l 2
 236 0 298 18 346 54 c 0
 395 91 419 138 419 196 c 2
EndSplineSet
Ligature2: "'rlig' Required Ligatures in Arabic lookup 11 subtable" laminitialarabic alefhamzabelowfinalarabic
Ligature2: "'liga' Standard Ligatures in Arabic lookup 8 subtable" laminitialarabic alefhamzabelowfinalarabic
Ligature2: "'liga' Standard Ligatures in Arabic lookup 6 subtable" laminitialarabic alefhamzabelowfinalarabic
EndChar

StartChar: lamalefhamzabelowfinalarabicX
Encoding: 65274 65274 117
Width: 539
GlyphClass: 1
Flags: W
LayerCount: 2
Fore
SplineSet
206 -209 m 1
 206 -160 l 1
 173 -160 l 2
 148 -160 135 -151 135 -133 c 0
 135 -118 141 -110 153 -110 c 0
 163 -110 172 -115 180 -123 c 1
 204 -86 l 1
 189 -67 172 -58 151 -58 c 0
 114 -58 85 -89 85 -129 c 0
 85 -141 88 -151 94 -160 c 1
 51 -160 l 1
 28 -209 l 1
 206 -209 l 1
553 0 m 1
 553 97 l 1
 465 97 l 2
 444 97 425 106 406 125 c 0
 383 148 372 176 372 209 c 2
 366 647 l 1
 259 647 l 1
 263 380 265 246 265 243 c 0
 265 190 241 150 194 125 c 0
 159 106 119 97 72 97 c 2
 28 97 l 1
 28 0 l 1
 113 0 l 2
 220 0 296 33 341 98 c 1
 349 72 364 50 386 31 c 0
 410 10 436 0 464 0 c 2
 553 0 l 1
175 201 m 1
 170 647 l 1
 65 647 l 1
 70 163 l 1
 107 166 155 176 175 201 c 1
EndSplineSet
Ligature2: "'rlig' Required Ligatures in Arabic lookup 11 subtable" lammedialarabic alefhamzabelowfinalarabic
Ligature2: "'liga' Standard Ligatures in Arabic lookup 8 subtable" lammedialarabic alefhamzabelowfinalarabic
Ligature2: "'liga' Standard Ligatures in Arabic lookup 6 subtable" lammedialarabic alefhamzabelowfinalarabic
EndChar

StartChar: lamalefmaddaaboveisolatedarabi
Encoding: 65269 65269 118
Width: 449
GlyphClass: 1
Flags: W
LayerCount: 2
Fore
SplineSet
306 795 m 1
 267 795 l 1
 265 772 252 760 228 760 c 0
 220 760 204 765 179 774 c 0
 155 783 135 788 120 788 c 0
 81 788 54 753 49 708 c 1
 85 708 l 1
 89 731 101 742 120 742 c 0
 130 742 147 737 171 728 c 0
 195 719 214 715 228 715 c 0
 250 715 268 723 283 740 c 0
 296 753 303 772 306 795 c 1
222 201 m 1
 217 647 l 1
 112 647 l 1
 117 163 l 1
 154 166 202 176 222 201 c 1
419 196 m 2
 413 647 l 1
 306 647 l 1
 310 380 312 246 312 243 c 0
 312 190 288 150 241 125 c 0
 206 106 166 97 119 97 c 2
 75 97 l 1
 75 0 l 1
 160 0 l 2
 236 0 298 18 346 54 c 0
 395 91 419 138 419 196 c 2
EndSplineSet
Ligature2: "'rlig' Required Ligatures in Arabic lookup 11 subtable" laminitialarabic alefmaddaabovefinalarabic
Ligature2: "'liga' Standard Ligatures in Arabic lookup 8 subtable" laminitialarabic alefmaddaabovefinalarabic
Ligature2: "'liga' Standard Ligatures in Arabic lookup 6 subtable" laminitialarabic alefmaddaabovefinalarabic
EndChar

StartChar: exclam
Encoding: 33 33 119
Width: 285
GlyphClass: 1
Flags: W
LayerCount: 2
Fore
SplineSet
195 146 m 1
 190 597 l 1
 95 597 l 1
 100 146 l 1
 195 146 l 1
194 -1 m 1
 194 97 l 1
 100 97 l 1
 100 -1 l 1
 194 -1 l 1
EndSplineSet
EndChar

StartChar: quotedbl
Encoding: 34 34 120
Width: 298
GlyphClass: 1
Flags: W
LayerCount: 2
Fore
SplineSet
134 418 m 1
 67 418 l 1
 67 619 l 1
 134 619 l 1
 134 418 l 1
234 418 m 1
 167 418 l 1
 167 619 l 1
 234 619 l 1
 234 418 l 1
EndSplineSet
EndChar

StartChar: dollar
Encoding: 36 36 121
Width: 479
GlyphClass: 1
Flags: W
LayerCount: 2
Fore
SplineSet
420 159 m 0
 419 204 406 241 380 269 c 0
 362 289 332 310 289 331 c 1
 286 518 l 1
 313 516 344 505 378 485 c 1
 409 562 l 1
 367 591 326 606 285 609 c 1
 284 664 l 1
 205 664 l 1
 206 606 l 1
 165 600 132 583 105 554 c 0
 78 526 65 492 66 452 c 0
 66 375 113 316 207 276 c 1
 209 80 l 1
 162 86 125 99 97 118 c 1
 60 43 l 1
 109 10 159 -7 208 -8 c 1
 208 -89 l 1
 289 -89 l 1
 288 -9 l 1
 331 0 365 21 388 54 c 0
 409 85 420 120 420 159 c 0
207 378 m 1
 174 393 158 415 157 445 c 0
 157 485 173 508 205 515 c 1
 207 378 l 1
334 153 m 0
 335 125 317 90 290 79 c 1
 288 224 l 1
 316 210 331 186 334 153 c 0
EndSplineSet
EndChar

StartChar: percentarabic
Encoding: 1642 1642 122
Width: 505
GlyphClass: 1
Flags: W
LayerCount: 2
Fore
SplineSet
253 490 m 1
 253 593 l 1
 154 593 l 1
 154 490 l 1
 253 490 l 1
490 581 m 1
 406 638 l 1
 27 9 l 1
 111 -48 l 1
 490 581 l 1
362 12 m 1
 362 116 l 1
 263 116 l 1
 263 12 l 1
 362 12 l 1
EndSplineSet
EndChar

StartChar: quotesingle
Encoding: 39 39 123
Width: 162
GlyphClass: 1
Flags: W
LayerCount: 2
Fore
SplineSet
184 809 m 1
 64 809 l 1
 59 604 l 1
 92 604 l 1
 184 809 l 1
EndSplineSet
EndChar

StartChar: parenright
Encoding: 41 41 124
Width: 342
GlyphClass: 1
Flags: W
LayerCount: 2
Fore
SplineSet
320 255 m 0
 320 328 305 396 274 458 c 0
 250 507 210 564 153 628 c 1
 57 588 l 1
 104 541 142 490 169 434 c 0
 200 372 215 310 215 249 c 0
 215 155 165 50 66 -67 c 1
 163 -107 l 1
 268 14 320 134 320 255 c 0
EndSplineSet
EndChar

StartChar: parenleft
Encoding: 40 40 125
Width: 342
GlyphClass: 1
Flags: W
LayerCount: 2
Fore
SplineSet
285 588 m 1
 189 628 l 1
 132 564 92 507 68 458 c 0
 37 396 22 328 22 255 c 0
 22 134 74 14 179 -107 c 1
 277 -67 l 1
 178 50 128 155 128 249 c 0
 128 310 143 372 173 434 c 0
 201 490 238 541 285 588 c 1
EndSplineSet
EndChar

StartChar: multiply
Encoding: 215 215 126
Width: 517
GlyphClass: 1
Flags: W
LayerCount: 2
Fore
SplineSet
468 75 m 1
 325 218 l 1
 468 361 l 1
 402 428 l 1
 259 284 l 1
 116 428 l 1
 49 361 l 1
 192 218 l 1
 49 75 l 1
 116 9 l 1
 259 152 l 1
 402 9 l 1
 468 75 l 1
EndSplineSet
EndChar

StartChar: plus
Encoding: 43 43 127
Width: 517
GlyphClass: 1
Flags: W
LayerCount: 2
Fore
SplineSet
477 171 m 1
 477 265 l 1
 306 265 l 1
 306 436 l 1
 212 436 l 1
 212 265 l 1
 41 265 l 1
 41 171 l 1
 212 171 l 1
 212 -1 l 1
 306 -1 l 1
 306 171 l 1
 477 171 l 1
EndSplineSet
EndChar

StartChar: commaarabic
Encoding: 1548 1548 128
Width: 222
GlyphClass: 1
Flags: W
LayerCount: 2
Fore
SplineSet
172 253 m 1
 138 253 l 1
 75 195 44 147 44 108 c 2
 44 -1 l 1
 142 -1 l 1
 142 96 l 1
 120 94 109 105 109 130 c 0
 108 173 129 214 172 253 c 1
EndSplineSet
EndChar

StartChar: hyphen
Encoding: 45 45 129
Width: 517
GlyphClass: 1
Flags: W
LayerCount: 2
Fore
SplineSet
477 190 m 1
 477 284 l 1
 41 284 l 1
 41 190 l 1
 477 190 l 1
EndSplineSet
EndChar

StartChar: period
Encoding: 46 46 130
Width: 173
GlyphClass: 1
Flags: W
LayerCount: 2
Fore
SplineSet
123 -1 m 1
 123 97 l 1
 29 97 l 1
 29 -1 l 1
 123 -1 l 1
EndSplineSet
EndChar

StartChar: slash
Encoding: 47 47 131
Width: 383
GlyphClass: 1
Flags: W
LayerCount: 2
Fore
SplineSet
383 597 m 1
 294 640 l 1
 31 22 l 1
 120 -22 l 1
 383 597 l 1
EndSplineSet
EndChar

StartChar: zeroarabic
Encoding: 1632 1632 132
Width: 1135
VWidth: 2048
GlyphClass: 1
Flags: HW
LayerCount: 2
Fore
SplineSet
316 390.25 m 4
 316 487.25 326.416992188 562.25 347.25 615.25 c 132
 368.083007812 668.25 397.5 708.416992188 435.5 735.75 c 132
 473.5 763.083007812 516 776.75 563 776.75 c 4
 610.666992188 776.75 653.833007812 763 692.5 735.5 c 132
 731.166992188 708 761.75 666.75 784.25 611.75 c 132
 806.75 556.75 818 482.916992188 818 390.25 c 4
 818 297.916992188 806.916992188 224.416992188 784.75 169.75 c 132
 762.583007812 115.083007812 732 73.8330078125 693 46 c 132
 654 18.1669921875 610.666992188 4.25 563 4.25 c 4
 516 4.25 473.666992188 17.75 436 44.75 c 132
 398.333007812 71.75 368.916992188 112 347.75 165.5 c 132
 326.583007812 219 316 293.916992188 316 390.25 c 4
385.5 388.75 m 4
 385.5 305.75 392.916992188 243 407.75 200.5 c 132
 422.583007812 158 444.5 125.75 473.5 103.75 c 132
 502.5 81.75 533.166992188 70.75 565.5 70.75 c 4
 598.166992188 70.75 628.666992188 81.5 657 103 c 132
 685.333007812 124.5 706.833007812 156.75 721.5 199.75 c 4
 739.833007812 252.083007812 749 315.083007812 749 388.75 c 4
 749 462.75 740.833007812 523.333007812 724.5 570.5 c 132
 708.166992188 617.666992188 685.583007812 652.166992188 656.75 674 c 132
 627.916992188 695.833007812 597.5 706.75 565.5 706.75 c 4
 532.833007812 706.75 502.166992188 695.833007812 473.5 674 c 132
 444.833007812 652.166992188 423 620 408 577.5 c 132
 393 535 385.5 472.083007812 385.5 388.75 c 4
EndSplineSet
EndChar

StartChar: onearabic
Encoding: 1633 1633 133
Width: 1135
VWidth: 2048
GlyphClass: 1
Flags: HW
LayerCount: 2
Fore
SplineSet
429 736 m 5
 574 736 l 5
 574 1 l 5
 501 1 l 5
 501 664 l 5
 385 664 l 5
 429 736 l 5
EndSplineSet
EndChar

StartChar: twoarabic
Encoding: 1634 1634 134
Width: 1135
VWidth: 2048
GlyphClass: 1
Flags: HW
LayerCount: 2
Fore
SplineSet
398.75 502 m 5
 328.25 502 l 5
 330.25 574.666992188 354.5 634.333007812 401 681 c 132
 447.5 727.666992188 504.916992188 751 573.25 751 c 4
 640.916992188 751 695.666992188 729.166992188 737.5 685.5 c 132
 779.333007812 641.833007812 800.25 590.333007812 800.25 531 c 4
 800.25 489.333007812 790.25 450.25 770.25 413.75 c 132
 750.25 377.25 711.416992188 327.833007812 653.75 265.5 c 6
 470.75 68 l 5
 810.25 68 l 5
 810.25 -3 l 5
 310.75 -3 l 5
 591.75 300.5 l 6
 648.75 361.5 685.833007812 406.75 703 436.25 c 132
 720.166992188 465.75 728.75 496.833007812 728.75 529.5 c 4
 728.75 570.833007812 713.333007812 606.416992188 682.5 636.25 c 132
 651.666992188 666.083007812 613.916992188 681 569.25 681 c 4
 522.25 681 483.166992188 665.333007812 452 634 c 132
 420.833007812 602.666992188 403.083007812 558.666992188 398.75 502 c 5
EndSplineSet
EndChar

StartChar: threearabic
Encoding: 1635 1635 135
Width: 1135
VWidth: 2048
GlyphClass: 1
Flags: HW
LayerCount: 2
Fore
SplineSet
417.5 583.75 m 5
 342.5 583.75 l 5
 356.166992188 644.416992188 382.333007812 691.083007812 421 723.75 c 132
 459.666992188 756.416992188 505.333007812 772.75 558 772.75 c 4
 596.333007812 772.75 632.083007812 764 665.25 746.5 c 132
 698.416992188 729 724.083007812 705.416992188 742.25 675.75 c 132
 760.416992188 646.083007812 769.5 615.083007812 769.5 582.75 c 4
 769.5 519.416992188 738 469.25 675 432.25 c 5
 710.333007812 417.916992188 739.333007812 396.916992188 762 369.25 c 4
 794 330.25 810 286.583007812 810 238.25 c 4
 810 196.583007812 799 156.833007812 777 119 c 132
 755 81.1669921875 725 51.9169921875 687 31.25 c 132
 649 10.5830078125 606.5 0.25 559.5 0.25 c 4
 496.166992188 0.25 443.333007812 18.5 401 55 c 132
 358.666992188 91.5 331 145.083007812 318 215.75 c 5
 390 215.75 l 5
 402.666992188 168.083007812 420.833007812 133.583007812 444.5 112.25 c 4
 474.833007812 85.25 513.5 71.75 560.5 71.75 c 4
 613.833007812 71.75 656.666992188 87.75 689 119.75 c 132
 721.333007812 151.75 737.5 189.25 737.5 232.25 c 4
 737.5 260.916992188 729.416992188 287.75 713.25 312.75 c 132
 697.083007812 337.75 675.416992188 356.583007812 648.25 369.25 c 132
 621.083007812 381.916992188 579 389.75 522 392.75 c 5
 522 460.25 l 5
 555.666992188 460.25 586.333007812 466.166992188 614 478 c 132
 641.666992188 489.833007812 661.75 504.916992188 674.25 523.25 c 132
 686.75 541.583007812 693 561.583007812 693 583.25 c 4
 693 615.25 680.25 642.916992188 654.75 666.25 c 132
 629.25 689.583007812 597 701.25 558 701.25 c 4
 526.333007812 701.25 499 692.333007812 476 674.5 c 132
 453 656.666992188 433.5 626.416992188 417.5 583.75 c 5
EndSplineSet
EndChar

StartChar: fourarabic
Encoding: 1636 1636 136
Width: 1135
VWidth: 2048
GlyphClass: 1
Flags: HW
LayerCount: 2
Fore
SplineSet
719 755 m 5
 734 755 l 5
 734 242.5 l 5
 823 242.5 l 5
 823 172 l 5
 734 172 l 5
 734 1 l 5
 660.5 1 l 5
 660.5 172 l 5
 309 172 l 5
 719 755 l 5
660.5 242.5 m 5
 660.5 549 l 5
 444 242.5 l 5
 660.5 242.5 l 5
EndSplineSet
EndChar

StartChar: fivearabic
Encoding: 1637 1637 137
Width: 1135
VWidth: 2048
GlyphClass: 1
Flags: HW
LayerCount: 2
Fore
SplineSet
785.5 764 m 5
 785.5 694 l 5
 523.5 694 l 5
 487 493.5 l 5
 519 502.833007812 547.833007812 507.5 573.5 507.5 c 4
 640.5 507.5 695.75 485.083007812 739.25 440.25 c 132
 782.75 395.416992188 804.5 338 804.5 268 c 4
 804.5 219.666992188 793.333007812 175.333007812 771 135 c 132
 748.666992188 94.6669921875 718.416992188 63.75 680.25 42.25 c 132
 642.083007812 20.75 598 10 548 10 c 4
 488.333007812 10 438 28.25 397 64.75 c 132
 356 101.25 331.5 148.5 323.5 206.5 c 5
 399 206.5 l 5
 404.666992188 178.166992188 414.25 155.166992188 427.75 137.5 c 132
 441.25 119.833007812 459.25 105.583007812 481.75 94.75 c 132
 504.25 83.9169921875 527.833007812 78.5 552.5 78.5 c 4
 600.833007812 78.5 642.333007812 96.8330078125 677 133.5 c 132
 711.666992188 170.166992188 729 216 729 271 c 4
 729 320.666992188 713.333007812 361 682 392 c 132
 650.666992188 423 608.833007812 438.5 556.5 438.5 c 4
 513.166992188 438.5 460.666992188 425.333007812 399 399 c 5
 467 764 l 5
 785.5 764 l 5
EndSplineSet
EndChar

StartChar: sixarabic
Encoding: 1638 1638 138
Width: 1135
VWidth: 2048
GlyphClass: 1
Flags: HW
LayerCount: 2
Fore
SplineSet
671 781.75 m 5
 731.5 742.25 l 5
 533 441.25 l 5
 559.666992188 450.25 584.666992188 454.75 608 454.75 c 4
 666.333007812 454.75 715.833007812 433.666992188 756.5 391.5 c 132
 797.166992188 349.333007812 817.5 297.416992188 817.5 235.75 c 4
 817.5 193.416992188 807.666992188 155.166992188 788 121 c 132
 768.333007812 86.8330078125 740.416992188 59.6669921875 704.25 39.5 c 132
 668.083007812 19.3330078125 629.166992188 9.25 587.5 9.25 c 4
 547.166992188 9.25 509.75 19 475.25 38.5 c 132
 440.75 58 413.666992188 85.4169921875 394 120.75 c 132
 374.333007812 156.083007812 364.5 193.916992188 364.5 234.25 c 4
 364.5 264.25 370.583007812 295.833007812 382.75 329 c 132
 394.916992188 362.166992188 416.666992188 402.083007812 448 448.75 c 6
 671 781.75 l 5
590.5 390.25 m 260
 547.833007812 390.25 511.416992188 375.166992188 481.25 345 c 132
 451.083007812 314.833007812 436 278.25 436 235.25 c 4
 436 192.583007812 451.083007812 156.166992188 481.25 126 c 132
 511.416992188 95.8330078125 547.833007812 80.75 590.5 80.75 c 260
 633.166992188 80.75 669.583007812 95.8330078125 699.75 126 c 132
 729.916992188 156.166992188 745 192.583007812 745 235.25 c 4
 745 278.25 729.916992188 314.833007812 699.75 345 c 132
 669.583007812 375.166992188 633.166992188 390.25 590.5 390.25 c 260
EndSplineSet
EndChar

StartChar: sevenarabic
Encoding: 1639 1639 139
Width: 1135
VWidth: 2048
GlyphClass: 1
Flags: HW
LayerCount: 2
Fore
SplineSet
380.25 754 m 5
 846.75 754 l 5
 453.25 0 l 5
 392.75 31 l 5
 732.75 684.5 l 5
 380.25 684.5 l 5
 380.25 754 l 5
EndSplineSet
EndChar

StartChar: eightarabic
Encoding: 1640 1640 140
Width: 1135
VWidth: 2048
GlyphClass: 1
Flags: HW
LayerCount: 2
Fore
SplineSet
677 431.25 m 5
 726.666992188 406.583007812 762.25 378.416992188 783.75 346.75 c 132
 805.25 315.083007812 816 279.083007812 816 238.75 c 4
 816 182.083007812 797.5 132.083007812 760.5 88.75 c 4
 715.166992188 35.75 650.333007812 9.25 566 9.25 c 4
 484.666992188 9.25 423 32.5 381 79 c 132
 339 125.5 318 176.75 318 232.75 c 4
 318 273.75 329 310.666992188 351 343.5 c 132
 373 376.333007812 409.666992188 405.583007812 461 431.25 c 5
 425 449.916992188 398 473.083007812 380 500.75 c 132
 362 528.416992188 353 558.083007812 353 589.75 c 4
 353 621.75 362.583007812 653 381.75 683.5 c 132
 400.916992188 714 427.416992188 738 461.25 755.5 c 132
 495.083007812 773 531.666992188 781.75 571 781.75 c 4
 609.333007812 781.75 644.833007812 772.916992188 677.5 755.25 c 132
 710.166992188 737.583007812 735.75 713.583007812 754.25 683.25 c 132
 772.75 652.916992188 782 621.083007812 782 587.75 c 260
 782 554.416992188 773.25 524.75 755.75 498.75 c 132
 738.25 472.75 712 450.25 677 431.25 c 5
567.5 710.25 m 4
 527.166992188 710.25 493.75 698.333007812 467.25 674.5 c 132
 440.75 650.666992188 427.5 622.25 427.5 589.25 c 4
 427.5 556.583007812 441.75 527 470.25 500.5 c 132
 498.75 474 532 460.75 570 460.75 c 4
 594.333007812 460.75 617.333007812 466.75 639 478.75 c 132
 660.666992188 490.75 677.583007812 507.166992188 689.75 528 c 132
 701.916992188 548.833007812 708 569.75 708 590.75 c 4
 708 620.416992188 696 647.75 672 672.75 c 132
 648 697.75 613.166992188 710.25 567.5 710.25 c 4
571 394.25 m 4
 520.333007812 394.25 477.833007812 377.833007812 443.5 345 c 132
 409.166992188 312.166992188 392 273.916992188 392 230.25 c 4
 392 203.25 399.333007812 177.75 414 153.75 c 132
 428.666992188 129.75 449.166992188 111.25 475.5 98.25 c 132
 501.833007812 85.25 532.333007812 78.75 567 78.75 c 4
 620.666992188 78.75 663.333007812 94.5830078125 695 126.25 c 132
 726.666992188 157.916992188 742.5 194.916992188 742.5 237.25 c 4
 742.5 278.25 725.75 314.666992188 692.25 346.5 c 132
 658.75 378.333007812 618.333007812 394.25 571 394.25 c 4
EndSplineSet
EndChar

StartChar: ninearabic
Encoding: 1641 1641 141
Width: 1135
VWidth: 2048
GlyphClass: 1
Flags: HW
LayerCount: 2
Fore
SplineSet
473 -0.75 m 5
 412.5 38.25 l 5
 611 339.25 l 5
 584.333007812 330.583007812 559.333007812 326.25 536 326.25 c 4
 477.666992188 326.25 428.166992188 347.333007812 387.5 389.5 c 132
 346.833007812 431.666992188 326.5 483.583007812 326.5 545.25 c 4
 326.5 587.583007812 336.333007812 625.75 356 659.75 c 132
 375.666992188 693.75 403.583007812 720.916992188 439.75 741.25 c 132
 475.916992188 761.583007812 514.666992188 771.75 556 771.75 c 4
 596.666992188 771.75 634.25 761.916992188 668.75 742.25 c 132
 703.25 722.583007812 730.333007812 695.083007812 750 659.75 c 132
 769.666992188 624.416992188 779.5 586.75 779.5 546.75 c 4
 779.5 516.416992188 773.416992188 484.666992188 761.25 451.5 c 132
 749.083007812 418.333007812 727.333007812 378.416992188 696 331.75 c 6
 473 -0.75 l 5
553 390.75 m 4
 596 390.75 632.583007812 405.833007812 662.75 436 c 132
 692.916992188 466.166992188 708 502.583007812 708 545.25 c 260
 708 587.916992188 692.916992188 624.333007812 662.75 654.5 c 132
 632.583007812 684.666992188 596 699.75 553 699.75 c 4
 510.333007812 699.75 473.916992188 684.666992188 443.75 654.5 c 132
 413.583007812 624.333007812 398.5 587.916992188 398.5 545.25 c 260
 398.5 502.583007812 413.583007812 466.166992188 443.75 436 c 132
 473.916992188 405.833007812 510.333007812 390.75 553 390.75 c 4
EndSplineSet
EndChar

StartChar: colon
Encoding: 58 58 142
Width: 201
GlyphClass: 1
Flags: W
LayerCount: 2
Fore
SplineSet
151 176 m 1
 151 274 l 1
 57 274 l 1
 57 176 l 1
 151 176 l 1
151 -1 m 1
 151 97 l 1
 57 97 l 1
 57 -1 l 1
 151 -1 l 1
EndSplineSet
EndChar

StartChar: semicolonarabic
Encoding: 1563 1563 143
Width: 233
GlyphClass: 1
Flags: W
LayerCount: 2
Fore
SplineSet
183 429 m 1
 148 429 l 1
 85 371 54 323 54 284 c 2
 54 176 l 1
 153 176 l 1
 153 272 l 1
 131 271 120 282 119 306 c 0
 118 349 140 390 183 429 c 1
151 -1 m 1
 151 97 l 1
 57 97 l 1
 57 -1 l 1
 151 -1 l 1
EndSplineSet
EndChar

StartChar: greater
Encoding: 62 62 144
Width: 542
GlyphClass: 1
Flags: W
LayerCount: 2
Fore
SplineSet
418 223 m 1
 184 457 l 1
 85 457 l 1
 319 223 l 1
 85 -10 l 1
 184 -10 l 1
 418 223 l 1
EndSplineSet
EndChar

StartChar: equal
Encoding: 61 61 145
Width: 590
GlyphClass: 1
Flags: W
LayerCount: 2
Fore
SplineSet
513 262 m 1
 513 356 l 1
 77 356 l 1
 77 262 l 1
 513 262 l 1
513 90 m 1
 513 184 l 1
 77 184 l 1
 77 90 l 1
 513 90 l 1
EndSplineSet
EndChar

StartChar: less
Encoding: 60 60 146
Width: 542
GlyphClass: 1
Flags: W
LayerCount: 2
Fore
SplineSet
467 -10 m 1
 233 223 l 1
 467 457 l 1
 358 457 l 1
 124 223 l 1
 358 -10 l 1
 467 -10 l 1
EndSplineSet
EndChar

StartChar: questionarabic
Encoding: 1567 1567 147
Width: 415
GlyphClass: 1
Flags: W
LayerCount: 2
Fore
SplineSet
375 535 m 1
 319 591 262 619 203 619 c 0
 153 619 109 603 72 571 c 0
 34 537 15 495 15 444 c 0
 15 401 29 365 56 336 c 1
 83 315 109 294 134 273 c 0
 163 250 177 224 177 195 c 2
 177 146 l 1
 270 146 l 1
 270 191 l 2
 270 236 257 274 230 305 c 0
 225 312 200 334 155 372 c 0
 129 394 116 416 116 439 c 0
 116 466 127 488 149 503 c 0
 166 515 185 521 204 521 c 0
 245 521 282 503 313 467 c 1
 375 535 l 1
270 -1 m 1
 270 97 l 1
 176 97 l 1
 176 -1 l 1
 270 -1 l 1
EndSplineSet
EndChar

StartChar: asteriskarabic
Encoding: 1645 1645 148
Width: 500
GlyphClass: 1
Flags: W
LayerCount: 2
Fore
SplineSet
447 245 m 1
 438 265 l 1
 300 245 l 1
 262 388 l 1
 242 388 l 1
 203 245 l 1
 65 266 l 1
 56 245 l 1
 173 152 l 1
 121 13 l 1
 138 0 l 1
 252 94 l 1
 365 0 l 1
 382 15 l 1
 331 153 l 1
 447 245 l 1
EndSplineSet
EndChar

StartChar: hamzaarabic
Encoding: 1569 1569 149
AltUni2: 00fe80.ffffffff.0 00fe80.ffffffff.0
Width: 462
GlyphClass: 1
Flags: W
LayerCount: 2
Fore
SplineSet
437 0 m 1
 437 98 l 1
 369 98 l 2
 324 98 294 123 294 151 c 0
 294 176 310 198 330 198 c 0
 350 198 368 189 385 172 c 1
 433 246 l 1
 410 275 363 302 328 302 c 0
 252 302 194 239 194 159 c 0
 194 135 200 115 212 98 c 1
 126 98 l 1
 80 0 l 1
 437 0 l 1
EndSplineSet
Substitution2: "'isol' Isolated Forms in Arabic lookup 13 subtable" hamzaarabic
Substitution2: "'aalt' Access All Alternates in Latin lookup 0 subtable" hamzaarabic
EndChar

StartChar: alefmaddaabovearabic
Encoding: 1570 1570 150
AltUni2: 00fe81.ffffffff.0 00fe81.ffffffff.0
Width: 240
GlyphClass: 1
Flags: W
LayerCount: 2
Fore
SplineSet
283 795 m 1
 244 795 l 1
 242 772 229 760 205 760 c 0
 197 760 181 765 156 774 c 0
 132 783 112 788 97 788 c 0
 58 788 31 753 26 708 c 1
 62 708 l 1
 66 731 78 742 97 742 c 0
 107 742 124 737 148 728 c 0
 172 719 191 715 205 715 c 0
 227 715 245 723 260 740 c 0
 273 753 280 772 283 795 c 1
210 0 m 1
 205 647 l 1
 100 647 l 1
 105 0 l 1
 210 0 l 1
EndSplineSet
Substitution2: "'fina' Terminal Forms in Arabic lookup 15 subtable" alefmaddaabovefinalarabic
Substitution2: "'isol' Isolated Forms in Arabic lookup 13 subtable" alefmaddaabovearabic
Ligature2: "'liga' Standard Ligatures in Arabic lookup 4 subtable" alefarabic maddaabove
Ligature2: "'ccmp' Glyph Composition/Decomposition in Arabic lookup 2 subtable" alefarabic maddaabove
AlternateSubs2: "'aalt' Access All Alternates in Latin lookup 1 subtable" alefmaddaabovearabic alefmaddaabovefinalarabic
EndChar

StartChar: alefhamzaabovearabic
Encoding: 1571 1571 151
AltUni2: 00fe83.ffffffff.0 00fe83.ffffffff.0
Width: 240
GlyphClass: 1
Flags: W
LayerCount: 2
Fore
SplineSet
241 708 m 1
 241 757 l 1
 208 757 l 2
 183 757 170 766 170 784 c 0
 170 799 176 807 188 807 c 0
 198 807 207 803 215 794 c 1
 239 831 l 1
 224 850 207 859 186 859 c 0
 149 859 120 828 120 788 c 0
 120 776 123 766 129 757 c 1
 86 757 l 1
 63 708 l 1
 241 708 l 1
210 0 m 1
 205 647 l 1
 100 647 l 1
 105 0 l 1
 210 0 l 1
EndSplineSet
Substitution2: "'fina' Terminal Forms in Arabic lookup 15 subtable" alefhamzaabovefinalarabic
Substitution2: "'isol' Isolated Forms in Arabic lookup 13 subtable" alefhamzaabovearabic
Ligature2: "'liga' Standard Ligatures in Arabic lookup 4 subtable" alefarabic hamzaabove
Ligature2: "'ccmp' Glyph Composition/Decomposition in Arabic lookup 2 subtable" alefarabic hamzaabove
AlternateSubs2: "'aalt' Access All Alternates in Latin lookup 1 subtable" alefhamzaabovearabic alefhamzaabovefinalarabic
EndChar

StartChar: wawhamzaabovearabic
Encoding: 1572 1572 152
AltUni2: 00fe85.ffffffff.0 00fe85.ffffffff.0
Width: 490
GlyphClass: 1
Flags: W
LayerCount: 2
Fore
SplineSet
384 427 m 1
 384 488 l 1
 342 488 l 2
 313 488 294 505 294 521 c 0
 294 541 302 551 317 551 c 0
 329 551 341 545 351 534 c 1
 381 581 l 1
 363 604 341 616 315 616 c 0
 267 616 231 576 231 527 c 0
 231 511 235 498 242 488 c 1
 189 488 l 1
 160 427 l 1
 384 427 l 1
135 -134 m 1
 163 -169 185 -197 200 -217 c 1
 357 -205 459 -79 459 93 c 2
 459 209 l 2
 459 305 397 367 287 367 c 0
 184 367 100 292 100 179 c 0
 100 84 168 0 267 0 c 2
 337 0 l 1
 305 -83 226 -134 135 -134 c 1
353 98 m 1
 282 98 l 2
 240 98 206 137 206 184 c 0
 206 252 241 294 287 294 c 0
 322 294 352 255 352 233 c 0
 352 225 352 180 353 98 c 1
EndSplineSet
Substitution2: "'fina' Terminal Forms in Arabic lookup 15 subtable" wawhamzaabovefinalarabic
Substitution2: "'isol' Isolated Forms in Arabic lookup 13 subtable" wawhamzaabovearabic
Ligature2: "'liga' Standard Ligatures in Arabic lookup 4 subtable" wawarabic hamzaabove
Ligature2: "'ccmp' Glyph Composition/Decomposition in Arabic lookup 2 subtable" wawarabic hamzaabove
AlternateSubs2: "'aalt' Access All Alternates in Latin lookup 1 subtable" wawhamzaabovearabic wawhamzaabovefinalarabic
EndChar

StartChar: alefhamzabelowarabic
Encoding: 1573 1573 153
AltUni2: 00fe87.ffffffff.0 00fe87.ffffffff.0
Width: 240
GlyphClass: 1
Flags: W
LayerCount: 2
Fore
SplineSet
211 -209 m 1
 211 -160 l 1
 178 -160 l 2
 153 -160 140 -151 140 -133 c 0
 140 -118 146 -110 158 -110 c 0
 168 -110 177 -115 185 -123 c 1
 209 -86 l 1
 194 -67 177 -58 156 -58 c 0
 119 -58 90 -89 90 -129 c 0
 90 -141 93 -151 99 -160 c 1
 56 -160 l 1
 33 -209 l 1
 211 -209 l 1
210 0 m 1
 205 647 l 1
 100 647 l 1
 105 0 l 1
 210 0 l 1
EndSplineSet
Substitution2: "'fina' Terminal Forms in Arabic lookup 15 subtable" alefhamzabelowfinalarabic
Substitution2: "'isol' Isolated Forms in Arabic lookup 13 subtable" alefhamzabelowarabic
Ligature2: "'liga' Standard Ligatures in Arabic lookup 4 subtable" alefarabic hamzabelow
Ligature2: "'ccmp' Glyph Composition/Decomposition in Arabic lookup 2 subtable" alefarabic hamzabelow
AlternateSubs2: "'aalt' Access All Alternates in Latin lookup 1 subtable" alefhamzabelowarabic alefhamzabelowfinalarabic
EndChar

StartChar: yehhamzaabovearabic
Encoding: 1574 1574 154
AltUni2: 00fe89.ffffffff.0 00fe89.ffffffff.0
Width: 622
GlyphClass: 1
Flags: W
LayerCount: 2
Fore
SplineSet
255 323 m 1
 255 388 l 1
 211 388 l 2
 193 388 180 392 172 401 c 0
 165 408 161 415 162 424 c 0
 163 445 171 454 188 453 c 0
 199 452 210 447 221 436 c 1
 253 484 l 1
 234 509 211 521 184 521 c 0
 133 521 97 479 97 428 c 0
 97 411 101 398 109 388 c 1
 52 388 l 1
 22 323 l 1
 255 323 l 1
591 64 m 2
 589 187 l 1
 381 187 l 1
 382 242 402 270 440 270 c 0
 455 270 470 261 483 242 c 1
 572 286 l 1
 539 347 493 378 434 378 c 0
 326 378 268 297 268 164 c 0
 268 140 270 115 273 90 c 1
 485 89 l 1
 486 66 l 2
 486 11 468 -33 433 -66 c 0
 402 -95 366 -109 325 -109 c 0
 287 -109 252 -95 221 -66 c 0
 184 -33 166 11 166 64 c 0
 166 71 165 88 164 117 c 0
 163 146 162 170 162 187 c 1
 58 187 l 1
 59 130 60 90 61 65 c 0
 61 -14 87 -80 139 -135 c 0
 191 -190 254 -218 327 -218 c 0
 400 -218 462 -190 513 -135 c 0
 565 -80 591 -14 591 64 c 2
EndSplineSet
Substitution2: "'init' Initial Forms in Arabic lookup 17 subtable" yehhamzaaboveinitialarabic
Substitution2: "'medi' Medial Forms in Arabic lookup 16 subtable" yehhamzaabovemedialarabic
Substitution2: "'fina' Terminal Forms in Arabic lookup 15 subtable" yehhamzaabovefinalarabic
Substitution2: "'isol' Isolated Forms in Arabic lookup 13 subtable" yehhamzaabovearabic
Ligature2: "'liga' Standard Ligatures in Arabic lookup 4 subtable" yeharabic hamzaabove
Ligature2: "'ccmp' Glyph Composition/Decomposition in Arabic lookup 2 subtable" yeharabic hamzaabove
AlternateSubs2: "'aalt' Access All Alternates in Latin lookup 1 subtable" yehhamzaabovearabic yehhamzaabovefinalarabic yehhamzaabovemedialarabic yehhamzaaboveinitialarabic
EndChar

StartChar: alefarabic
Encoding: 1575 1575 155
AltUni2: 00fe8d.ffffffff.0 00fe8d.ffffffff.0
Width: 240
GlyphClass: 1
Flags: W
LayerCount: 2
Fore
SplineSet
210 0 m 1
 205 647 l 1
 100 647 l 1
 105 0 l 1
 210 0 l 1
EndSplineSet
Substitution2: "'fina' Terminal Forms in Arabic lookup 15 subtable" aleffinalarabic
Substitution2: "'isol' Isolated Forms in Arabic lookup 13 subtable" alefarabic
AlternateSubs2: "'aalt' Access All Alternates in Latin lookup 1 subtable" alefarabic aleffinalarabic
EndChar

StartChar: beharabic
Encoding: 1576 1576 156
AltUni2: 00fe8f.ffffffff.0 00fe8f.ffffffff.0
Width: 738
GlyphClass: 1
Flags: W
LayerCount: 2
Fore
SplineSet
708 78 m 1
 708 218 707 314 706 365 c 1
 600 365 l 1
 603 153 l 2
 603 116 590 97 564 97 c 2
 310 97 l 2
 248 97 202 128 173 189 c 0
 150 236 139 294 139 365 c 1
 34 365 l 1
 32 268 49 188 86 123 c 0
 133 41 206 0 305 0 c 2
 615 0 l 2
 666 0 701 30 708 78 c 1
461 -171 m 1
 461 -70 l 1
 365 -70 l 1
 365 -171 l 1
 461 -171 l 1
EndSplineSet
Substitution2: "'init' Initial Forms in Arabic lookup 17 subtable" behinitialarabic
Substitution2: "'medi' Medial Forms in Arabic lookup 16 subtable" behmedialarabic
Substitution2: "'fina' Terminal Forms in Arabic lookup 15 subtable" behfinalarabic
Substitution2: "'isol' Isolated Forms in Arabic lookup 13 subtable" beharabic
AlternateSubs2: "'aalt' Access All Alternates in Latin lookup 1 subtable" beharabic behfinalarabic behmedialarabic behinitialarabic
EndChar

StartChar: tehmarbutaarabic
Encoding: 1577 1577 157
AltUni2: 00fe93.ffffffff.0 00fe93.ffffffff.0
Width: 438
GlyphClass: 1
Flags: W
LayerCount: 2
Fore
SplineSet
333 446 m 1
 333 547 l 1
 236 547 l 1
 236 446 l 1
 333 446 l 1
188 446 m 1
 188 547 l 1
 91 547 l 1
 91 446 l 1
 188 446 l 1
408 188 m 0
 408 237 392 280 359 316 c 0
 323 356 276 376 217 376 c 0
 102 376 34 304 34 188 c 0
 34 138 51 95 84 59 c 0
 119 20 166 0 225 0 c 0
 338 0 408 71 408 188 c 0
303 187 m 0
 303 123 270 86 226 86 c 0
 205 86 186 94 171 111 c 0
 154 130 145 156 145 187 c 0
 145 219 152 244 167 263 c 0
 182 280 200 288 222 288 c 0
 243 288 261 280 277 263 c 0
 294 244 303 218 303 187 c 0
EndSplineSet
Substitution2: "'fina' Terminal Forms in Arabic lookup 15 subtable" tehmarbutafinalarabic
Substitution2: "'isol' Isolated Forms in Arabic lookup 13 subtable" tehmarbutaarabic
AlternateSubs2: "'aalt' Access All Alternates in Latin lookup 1 subtable" tehmarbutaarabic tehmarbutafinalarabic
EndChar

StartChar: teharabic
Encoding: 1578 1578 158
AltUni2: 00fe95.ffffffff.0 00fe95.ffffffff.0
Width: 738
GlyphClass: 1
Flags: W
LayerCount: 2
Fore
SplineSet
502 365 m 1
 502 466 l 1
 406 466 l 1
 406 365 l 1
 502 365 l 1
357 365 m 1
 357 466 l 1
 261 466 l 1
 261 365 l 1
 357 365 l 1
708 78 m 1
 708 218 707 314 706 365 c 1
 600 365 l 1
 603 153 l 2
 603 116 590 97 564 97 c 2
 310 97 l 2
 248 97 202 128 173 189 c 0
 150 236 139 294 139 365 c 1
 34 365 l 1
 32 268 49 188 86 123 c 0
 133 41 206 0 305 0 c 2
 615 0 l 2
 666 0 701 30 708 78 c 1
EndSplineSet
Substitution2: "'init' Initial Forms in Arabic lookup 17 subtable" tehinitialarabic
Substitution2: "'medi' Medial Forms in Arabic lookup 16 subtable" tehmedialarabic
Substitution2: "'fina' Terminal Forms in Arabic lookup 15 subtable" tehfinalarabic
Substitution2: "'isol' Isolated Forms in Arabic lookup 13 subtable" teharabic
AlternateSubs2: "'aalt' Access All Alternates in Latin lookup 1 subtable" teharabic tehfinalarabic tehmedialarabic tehinitialarabic
EndChar

StartChar: theharabic
Encoding: 1579 1579 159
AltUni2: 00fe99.ffffffff.0 00fe99.ffffffff.0
Width: 738
GlyphClass: 1
Flags: W
LayerCount: 2
Fore
SplineSet
421 497 m 1
 421 597 l 1
 324 597 l 1
 324 497 l 1
 421 497 l 1
493 365 m 1
 493 465 l 1
 397 465 l 1
 397 365 l 1
 493 365 l 1
348 365 m 1
 348 465 l 1
 252 465 l 1
 252 365 l 1
 348 365 l 1
708 78 m 1
 708 218 707 314 706 365 c 1
 600 365 l 1
 603 153 l 2
 603 116 590 97 564 97 c 2
 310 97 l 2
 248 97 202 128 173 189 c 0
 150 236 139 294 139 365 c 1
 34 365 l 1
 32 268 49 188 86 123 c 0
 133 41 206 0 305 0 c 2
 615 0 l 2
 666 0 701 30 708 78 c 1
EndSplineSet
Substitution2: "'init' Initial Forms in Arabic lookup 17 subtable" thehinitialarabic
Substitution2: "'medi' Medial Forms in Arabic lookup 16 subtable" thehmedialarabic
Substitution2: "'fina' Terminal Forms in Arabic lookup 15 subtable" thehfinalarabic
Substitution2: "'isol' Isolated Forms in Arabic lookup 13 subtable" theharabic
AlternateSubs2: "'aalt' Access All Alternates in Latin lookup 1 subtable" theharabic thehfinalarabic thehmedialarabic thehinitialarabic
EndChar

StartChar: jeemarabic
Encoding: 1580 1580 160
AltUni2: 00fe9d.ffffffff.0 00fe9d.ffffffff.0
Width: 552
GlyphClass: 1
Flags: W
LayerCount: 2
Fore
SplineSet
522 98 m 1
 522 188 502 265 461 330 c 0
 416 403 354 440 277 440 c 0
 217 440 165 421 120 382 c 1
 157 303 l 1
 194 330 229 344 264 344 c 0
 297 345 326 335 351 316 c 0
 385 291 406 251 414 196 c 1
 222 196 l 2
 167 196 122 174 85 131 c 0
 51 90 34 42 34 -14 c 0
 34 -70 54 -118 93 -157 c 0
 133 -197 181 -217 237 -217 c 2
 377 -217 l 1
 377 -120 l 1
 245 -120 l 2
 218 -120 193 -110 172 -91 c 0
 149 -70 137 -43 137 -10 c 0
 137 57 177 98 248 98 c 2
 522 98 l 1
356 -63 m 1
 356 38 l 1
 260 38 l 1
 260 -63 l 1
 356 -63 l 1
EndSplineSet
Substitution2: "'init' Initial Forms in Arabic lookup 17 subtable" jeeminitialarabic
Substitution2: "'medi' Medial Forms in Arabic lookup 16 subtable" jeemmedialarabic
Substitution2: "'fina' Terminal Forms in Arabic lookup 15 subtable" jeemfinalarabic
Substitution2: "'isol' Isolated Forms in Arabic lookup 13 subtable" jeemarabic
AlternateSubs2: "'aalt' Access All Alternates in Latin lookup 1 subtable" jeemarabic jeemfinalarabic jeemmedialarabic jeeminitialarabic
EndChar

StartChar: haharabic
Encoding: 1581 1581 161
AltUni2: 00fea1.ffffffff.0 00fea1.ffffffff.0
Width: 552
GlyphClass: 1
Flags: W
LayerCount: 2
Fore
SplineSet
522 98 m 1
 522 188 502 265 461 330 c 0
 416 403 354 440 277 440 c 0
 217 440 165 421 120 382 c 1
 157 303 l 1
 194 330 229 344 264 344 c 0
 297 345 326 335 351 316 c 0
 385 291 406 251 414 196 c 1
 222 196 l 2
 167 196 122 174 85 131 c 0
 51 90 34 42 34 -14 c 0
 34 -70 54 -118 93 -157 c 0
 133 -197 181 -217 237 -217 c 2
 377 -217 l 1
 377 -120 l 1
 245 -120 l 2
 218 -120 193 -110 172 -91 c 0
 149 -70 137 -43 137 -10 c 0
 137 57 177 98 248 98 c 2
 522 98 l 1
EndSplineSet
Substitution2: "'init' Initial Forms in Arabic lookup 17 subtable" hahinitialarabic
Substitution2: "'medi' Medial Forms in Arabic lookup 16 subtable" hahmedialarabic
Substitution2: "'fina' Terminal Forms in Arabic lookup 15 subtable" hahfinalarabic
Substitution2: "'isol' Isolated Forms in Arabic lookup 13 subtable" haharabic
AlternateSubs2: "'aalt' Access All Alternates in Latin lookup 1 subtable" haharabic hahfinalarabic hahmedialarabic hahinitialarabic
EndChar

StartChar: khaharabic
Encoding: 1582 1582 162
AltUni2: 00fea5.ffffffff.0 00fea5.ffffffff.0
Width: 552
GlyphClass: 1
Flags: W
LayerCount: 2
Fore
SplineSet
359 492 m 1
 359 593 l 1
 263 593 l 1
 263 492 l 1
 359 492 l 1
522 98 m 1
 522 188 502 265 461 330 c 0
 416 403 354 440 277 440 c 0
 217 440 165 421 120 382 c 1
 157 303 l 1
 194 330 229 344 264 344 c 0
 297 345 326 335 351 316 c 0
 385 291 406 251 414 196 c 1
 222 196 l 2
 167 196 122 174 85 131 c 0
 51 90 34 42 34 -14 c 0
 34 -70 54 -118 93 -157 c 0
 133 -197 181 -217 237 -217 c 2
 377 -217 l 1
 377 -120 l 1
 245 -120 l 2
 218 -120 193 -110 172 -91 c 0
 149 -70 137 -43 137 -10 c 0
 137 57 177 98 248 98 c 2
 522 98 l 1
EndSplineSet
Substitution2: "'init' Initial Forms in Arabic lookup 17 subtable" khahinitialarabic
Substitution2: "'medi' Medial Forms in Arabic lookup 16 subtable" khahmedialarabic
Substitution2: "'fina' Terminal Forms in Arabic lookup 15 subtable" khahfinalarabic
Substitution2: "'isol' Isolated Forms in Arabic lookup 13 subtable" khaharabic
AlternateSubs2: "'aalt' Access All Alternates in Latin lookup 1 subtable" khaharabic khahfinalarabic khahmedialarabic khahinitialarabic
EndChar

StartChar: dalarabic
Encoding: 1583 1583 163
AltUni2: 00fea9.ffffffff.0 00fea9.ffffffff.0
Width: 561
GlyphClass: 1
Flags: W
LayerCount: 2
Fore
SplineSet
531 0 m 1
 531 121 508 213 463 276 c 0
 420 335 358 365 279 365 c 1
 279 270 l 1
 306 270 333 256 360 229 c 0
 393 196 412 152 418 97 c 1
 140 97 l 1
 90 0 l 1
 531 0 l 1
EndSplineSet
Substitution2: "'fina' Terminal Forms in Arabic lookup 15 subtable" dalfinalarabic
Substitution2: "'isol' Isolated Forms in Arabic lookup 13 subtable" dalarabic
AlternateSubs2: "'aalt' Access All Alternates in Latin lookup 1 subtable" dalarabic dalfinalarabic
EndChar

StartChar: thalarabic
Encoding: 1584 1584 164
AltUni2: 00feab.ffffffff.0 00feab.ffffffff.0
Width: 561
GlyphClass: 1
Flags: W
LayerCount: 2
Fore
SplineSet
376 446 m 1
 376 547 l 1
 279 547 l 1
 279 446 l 1
 376 446 l 1
531 0 m 1
 531 121 508 213 463 276 c 0
 420 335 358 365 279 365 c 1
 279 270 l 1
 306 270 333 256 360 229 c 0
 393 196 412 152 418 97 c 1
 140 97 l 1
 90 0 l 1
 531 0 l 1
EndSplineSet
Substitution2: "'fina' Terminal Forms in Arabic lookup 15 subtable" thalfinalarabic
Substitution2: "'isol' Isolated Forms in Arabic lookup 13 subtable" thalarabic
AlternateSubs2: "'aalt' Access All Alternates in Latin lookup 1 subtable" thalarabic thalfinalarabic
EndChar

StartChar: reharabic
Encoding: 1585 1585 165
AltUni2: 00fead.ffffffff.0 00fead.ffffffff.0
Width: 310
GlyphClass: 1
Flags: W
LayerCount: 2
Fore
SplineSet
-47 -134 m 1
 -18 -169 4 -197 19 -217 c 1
 98 -211 161 -179 208 -122 c 0
 256 -65 280 6 280 93 c 2
 278 365 l 1
 171 365 l 1
 173 82 l 2
 173 18 151 -34 107 -75 c 0
 65 -114 14 -133 -47 -134 c 1
EndSplineSet
Substitution2: "'fina' Terminal Forms in Arabic lookup 15 subtable" rehfinalarabic
Substitution2: "'isol' Isolated Forms in Arabic lookup 13 subtable" reharabic
AlternateSubs2: "'aalt' Access All Alternates in Latin lookup 1 subtable" reharabic rehfinalarabic
EndChar

StartChar: zainarabic
Encoding: 1586 1586 166
AltUni2: 00feaf.ffffffff.0 00feaf.ffffffff.0
Width: 310
GlyphClass: 1
Flags: W
LayerCount: 2
Fore
SplineSet
171 446 m 1
 268 446 l 1
 268 547 l 1
 171 547 l 1
 171 446 l 1
-47 -134 m 1
 -18 -169 4 -197 19 -217 c 1
 98 -211 161 -179 208 -122 c 0
 256 -65 280 6 280 93 c 2
 278 365 l 1
 171 365 l 1
 173 82 l 2
 173 18 151 -34 107 -75 c 0
 65 -114 14 -133 -47 -134 c 1
EndSplineSet
Substitution2: "'fina' Terminal Forms in Arabic lookup 15 subtable" zainfinalarabic
Substitution2: "'isol' Isolated Forms in Arabic lookup 13 subtable" zainarabic
AlternateSubs2: "'aalt' Access All Alternates in Latin lookup 1 subtable" zainarabic zainfinalarabic
EndChar

StartChar: seenarabic
Encoding: 1587 1587 167
AltUni2: 00feb1.ffffffff.0 00feb1.ffffffff.0
Width: 1122
GlyphClass: 1
Flags: W
LayerCount: 2
Fore
SplineSet
1088 150 m 2
 1087 365 l 1
 981 365 l 1
 982 222 982 153 982 156 c 1
 982 111 962 89 921 89 c 0
 894 89 873 98 856 116 c 0
 837 135 828 163 827 200 c 0
 826 263 826 308 825 336 c 1
 720 336 l 1
 721 231 721 171 721 157 c 0
 721 112 701 89 660 89 c 0
 633 89 612 98 595 116 c 0
 580 132 570 154 567 182 c 2
 567 184 l 1
 566 336 l 1
 461 336 l 1
 461 311 462 221 464 65 c 0
 464 17 448 -24 416 -58 c 0
 385 -92 347 -109 303 -109 c 0
 258 -109 220 -92 189 -58 c 0
 158 -25 142 16 142 63 c 0
 141 123 141 192 141 269 c 1
 34 269 l 1
 38 65 l 2
 38 -14 64 -80 116 -135 c 0
 168 -190 230 -218 303 -218 c 0
 376 -218 439 -190 490 -135 c 0
 536 -86 562 -29 567 38 c 1
 595 3 634 -15 684 -14 c 0
 747 -13 790 14 812 65 c 1
 839 11 884 -15 945 -14 c 0
 1040 -12 1087 43 1088 150 c 2
EndSplineSet
Substitution2: "'init' Initial Forms in Arabic lookup 17 subtable" seeninitialarabic
Substitution2: "'medi' Medial Forms in Arabic lookup 16 subtable" seenmedialarabic
Substitution2: "'fina' Terminal Forms in Arabic lookup 15 subtable" seenfinalarabic
Substitution2: "'isol' Isolated Forms in Arabic lookup 13 subtable" seenarabic
AlternateSubs2: "'aalt' Access All Alternates in Latin lookup 1 subtable" seenarabic seenfinalarabic seenmedialarabic seeninitialarabic
EndChar

StartChar: sheenarabic
Encoding: 1588 1588 168
AltUni2: 00feb5.ffffffff.0 00feb5.ffffffff.0
Width: 1122
GlyphClass: 1
Flags: W
LayerCount: 2
Fore
SplineSet
1088 150 m 2
 1087 365 l 1
 981 365 l 1
 982 222 982 153 982 156 c 1
 982 111 962 89 921 89 c 0
 894 89 873 98 856 116 c 0
 837 135 828 163 827 200 c 0
 826 263 826 308 825 336 c 1
 720 336 l 1
 721 231 721 171 721 157 c 0
 721 112 701 89 660 89 c 0
 633 89 612 98 595 116 c 0
 580 132 570 154 567 182 c 2
 567 184 l 1
 566 336 l 1
 461 336 l 1
 461 311 462 221 464 65 c 0
 464 17 448 -24 416 -58 c 0
 385 -92 347 -109 303 -109 c 0
 258 -109 220 -92 189 -58 c 0
 158 -25 142 16 142 63 c 0
 141 123 141 192 141 269 c 1
 34 269 l 1
 38 65 l 2
 38 -14 64 -80 116 -135 c 0
 168 -190 230 -218 303 -218 c 0
 376 -218 439 -190 490 -135 c 0
 536 -86 562 -29 567 38 c 1
 595 3 634 -15 684 -14 c 0
 747 -13 790 14 812 65 c 1
 839 11 884 -15 945 -14 c 0
 1040 -12 1087 43 1088 150 c 2
892 446 m 1
 892 547 l 1
 795 547 l 1
 795 446 l 1
 892 446 l 1
747 446 m 1
 747 547 l 1
 650 547 l 1
 650 446 l 1
 747 446 l 1
819 578 m 1
 819 678 l 1
 723 678 l 1
 723 578 l 1
 819 578 l 1
EndSplineSet
Substitution2: "'init' Initial Forms in Arabic lookup 17 subtable" sheeninitialarabic
Substitution2: "'medi' Medial Forms in Arabic lookup 16 subtable" sheenmedialarabic
Substitution2: "'fina' Terminal Forms in Arabic lookup 15 subtable" sheenfinalarabic
Substitution2: "'isol' Isolated Forms in Arabic lookup 13 subtable" sheenarabic
AlternateSubs2: "'aalt' Access All Alternates in Latin lookup 1 subtable" sheenarabic sheenfinalarabic sheenmedialarabic sheeninitialarabic
EndChar

StartChar: sadarabic
Encoding: 1589 1589 169
AltUni2: 00feb9.ffffffff.0 00feb9.ffffffff.0
Width: 1125
GlyphClass: 1
Flags: W
LayerCount: 2
Fore
SplineSet
1086 0 m 1
 1086 101 1075 179 1052 234 c 0
 1018 313 958 357 873 366 c 0
 828 371 778 358 725 329 c 0
 655 290 602 230 567 149 c 1
 566 270 l 1
 459 270 l 1
 464 65 l 2
 464 17 448 -24 416 -58 c 0
 385 -92 347 -109 303 -109 c 0
 258 -109 220 -92 189 -58 c 0
 158 -25 142 16 142 63 c 0
 141 123 141 192 141 269 c 1
 34 269 l 1
 38 65 l 2
 38 -14 64 -80 116 -135 c 0
 168 -190 230 -218 303 -218 c 0
 376 -218 439 -190 490 -135 c 0
 530 -92 555 -43 564 13 c 1
 564 0 l 1
 1086 0 l 1
979 101 m 2
 979 97 l 1
 626 97 l 1
 686 214 760 272 847 272 c 0
 854 272 862 271 870 270 c 0
 914 265 945 238 963 189 c 0
 974 162 979 132 979 101 c 2
EndSplineSet
Substitution2: "'init' Initial Forms in Arabic lookup 17 subtable" sadinitialarabic
Substitution2: "'medi' Medial Forms in Arabic lookup 16 subtable" sadmedialarabic
Substitution2: "'fina' Terminal Forms in Arabic lookup 15 subtable" sadfinalarabic
Substitution2: "'isol' Isolated Forms in Arabic lookup 13 subtable" sadarabic
AlternateSubs2: "'aalt' Access All Alternates in Latin lookup 1 subtable" sadarabic sadfinalarabic sadmedialarabic sadinitialarabic
EndChar

StartChar: dadarabic
Encoding: 1590 1590 170
AltUni2: 00febd.ffffffff.0 00febd.ffffffff.0
Width: 1125
GlyphClass: 1
Flags: W
LayerCount: 2
Fore
SplineSet
1086 0 m 1
 1086 101 1075 179 1052 234 c 0
 1018 313 958 357 873 366 c 0
 828 371 778 358 725 329 c 0
 655 290 602 230 567 149 c 1
 566 270 l 1
 459 270 l 1
 464 65 l 2
 464 17 448 -24 416 -58 c 0
 385 -92 347 -109 303 -109 c 0
 258 -109 220 -92 189 -58 c 0
 158 -25 142 16 142 63 c 0
 141 123 141 192 141 269 c 1
 34 269 l 1
 38 65 l 2
 38 -14 64 -80 116 -135 c 0
 168 -190 230 -218 303 -218 c 0
 376 -218 439 -190 490 -135 c 0
 530 -92 555 -43 564 13 c 1
 564 0 l 1
 1086 0 l 1
979 101 m 2
 979 97 l 1
 626 97 l 1
 686 214 760 272 847 272 c 0
 854 272 862 271 870 270 c 0
 914 265 945 238 963 189 c 0
 974 162 979 132 979 101 c 2
885 446 m 1
 885 547 l 1
 789 547 l 1
 789 446 l 1
 885 446 l 1
EndSplineSet
Substitution2: "'init' Initial Forms in Arabic lookup 17 subtable" dadinitialarabic
Substitution2: "'medi' Medial Forms in Arabic lookup 16 subtable" dadmedialarabic
Substitution2: "'fina' Terminal Forms in Arabic lookup 15 subtable" dadfinalarabic
Substitution2: "'isol' Isolated Forms in Arabic lookup 13 subtable" dadarabic
AlternateSubs2: "'aalt' Access All Alternates in Latin lookup 1 subtable" dadarabic dadfinalarabic dadmedialarabic dadinitialarabic
EndChar

StartChar: taharabic
Encoding: 1591 1591 171
AltUni2: 00fec1.ffffffff.0 00fec1.ffffffff.0
Width: 723
GlyphClass: 1
Flags: W
LayerCount: 2
Fore
SplineSet
693 0 m 1
 693 244 615 366 458 366 c 0
 423 366 389 359 357 345 c 0
 320 328 290 304 267 272 c 1
 272 593 l 1
 169 593 l 1
 170 98 l 1
 66 97 l 1
 34 0 l 1
 693 0 l 1
585 97 m 1
 252 98 l 1
 293 214 360 272 453 272 c 0
 544 272 588 214 585 97 c 1
EndSplineSet
Substitution2: "'init' Initial Forms in Arabic lookup 17 subtable" tahinitialarabic
Substitution2: "'medi' Medial Forms in Arabic lookup 16 subtable" tahmedialarabic
Substitution2: "'fina' Terminal Forms in Arabic lookup 15 subtable" tahfinalarabic
Substitution2: "'isol' Isolated Forms in Arabic lookup 13 subtable" taharabic
AlternateSubs2: "'aalt' Access All Alternates in Latin lookup 1 subtable" taharabic tahfinalarabic tahmedialarabic tahinitialarabic
EndChar

StartChar: zaharabic
Encoding: 1592 1592 172
AltUni2: 00fec5.ffffffff.0 00fec5.ffffffff.0
Width: 723
GlyphClass: 1
Flags: W
LayerCount: 2
Fore
SplineSet
499 446 m 1
 499 547 l 1
 403 547 l 1
 403 446 l 1
 499 446 l 1
693 0 m 1
 693 244 615 366 458 366 c 0
 423 366 389 359 357 345 c 0
 320 328 290 304 267 272 c 1
 272 593 l 1
 169 593 l 1
 171 97 l 1
 66 97 l 1
 34 0 l 1
 693 0 l 1
585 97 m 1
 252 97 l 1
 294 214 361 272 453 272 c 0
 540 272 584 214 585 97 c 1
EndSplineSet
Substitution2: "'init' Initial Forms in Arabic lookup 17 subtable" zahinitialarabic
Substitution2: "'medi' Medial Forms in Arabic lookup 16 subtable" zahmedialarabic
Substitution2: "'fina' Terminal Forms in Arabic lookup 15 subtable" zahfinalarabic
Substitution2: "'isol' Isolated Forms in Arabic lookup 13 subtable" zaharabic
AlternateSubs2: "'aalt' Access All Alternates in Latin lookup 1 subtable" zaharabic zahfinalarabic zahmedialarabic zahinitialarabic
EndChar

StartChar: ainarabic
Encoding: 1593 1593 173
AltUni2: 00fec9.ffffffff.0 00fec9.ffffffff.0
Width: 514
GlyphClass: 1
Flags: W
LayerCount: 2
Fore
SplineSet
484 153 m 1
 484 252 l 1
 389 252 l 2
 312 252 273 283 273 344 c 0
 273 388 304 419 347 419 c 0
 372 419 396 407 421 384 c 1
 476 458 l 1
 441 501 394 522 335 522 c 0
 291 522 253 509 222 484 c 0
 185 454 166 413 167 361 c 0
 167 329 174 301 188 278 c 0
 194 268 201 259 209 252 c 1
 156 249 114 226 81 183 c 0
 50 142 34 95 34 41 c 0
 34 -15 54 -63 93 -102 c 0
 133 -142 181 -162 237 -162 c 2
 393 -162 l 1
 393 -65 l 1
 245 -65 l 2
 218 -65 193 -55 172 -35 c 0
 149 -14 137 13 137 45 c 0
 137 112 177 153 248 153 c 2
 484 153 l 1
EndSplineSet
Substitution2: "'init' Initial Forms in Arabic lookup 17 subtable" aininitialarabic
Substitution2: "'medi' Medial Forms in Arabic lookup 16 subtable" ainmedialarabic
Substitution2: "'fina' Terminal Forms in Arabic lookup 15 subtable" ainfinalarabic
Substitution2: "'isol' Isolated Forms in Arabic lookup 13 subtable" ainarabic
AlternateSubs2: "'aalt' Access All Alternates in Latin lookup 1 subtable" ainarabic ainfinalarabic ainmedialarabic aininitialarabic
EndChar

StartChar: ghainarabic
Encoding: 1594 1594 174
AltUni2: 00fecd.ffffffff.0 00fecd.ffffffff.0
Width: 514
GlyphClass: 1
Flags: W
LayerCount: 2
Fore
SplineSet
384 566 m 1
 384 667 l 1
 288 667 l 1
 288 566 l 1
 384 566 l 1
484 153 m 1
 484 252 l 1
 389 252 l 2
 312 252 273 283 273 344 c 0
 273 388 304 419 347 419 c 0
 372 419 396 407 421 384 c 1
 476 458 l 1
 441 501 394 522 335 522 c 0
 291 522 253 509 222 484 c 0
 185 454 166 413 167 361 c 0
 167 329 174 301 188 278 c 0
 194 268 201 259 209 252 c 1
 156 249 114 226 81 183 c 0
 50 142 34 95 34 41 c 0
 34 -15 54 -63 93 -102 c 0
 133 -142 181 -162 237 -162 c 2
 393 -162 l 1
 393 -65 l 1
 245 -65 l 2
 218 -65 193 -55 172 -35 c 0
 149 -14 137 13 137 45 c 0
 137 112 177 153 248 153 c 2
 484 153 l 1
EndSplineSet
Substitution2: "'init' Initial Forms in Arabic lookup 17 subtable" ghaininitialarabic
Substitution2: "'medi' Medial Forms in Arabic lookup 16 subtable" ghainmedialarabic
Substitution2: "'fina' Terminal Forms in Arabic lookup 15 subtable" ghainfinalarabic
Substitution2: "'isol' Isolated Forms in Arabic lookup 13 subtable" ghainarabic
AlternateSubs2: "'aalt' Access All Alternates in Latin lookup 1 subtable" ghainarabic ghainfinalarabic ghainmedialarabic ghaininitialarabic
EndChar

StartChar: bracketright
Encoding: 93 93 175
Width: 287
GlyphClass: 1
Flags: W
LayerCount: 2
Fore
SplineSet
267 -88 m 1
 262 609 l 1
 45 609 l 1
 45 521 l 1
 157 521 l 1
 162 0 l 1
 48 0 l 1
 48 -88 l 1
 267 -88 l 1
EndSplineSet
EndChar

StartChar: backslash
Encoding: 92 92 176
Width: 383
GlyphClass: 1
Flags: W
LayerCount: 2
Fore
SplineSet
367 22 m 1
 104 640 l 1
 16 597 l 1
 278 -22 l 1
 367 22 l 1
EndSplineSet
EndChar

StartChar: bracketleft
Encoding: 91 91 177
Width: 287
GlyphClass: 1
Flags: W
LayerCount: 2
Fore
SplineSet
206 -88 m 1
 206 0 l 1
 131 0 l 1
 126 521 l 1
 203 521 l 1
 203 609 l 1
 20 609 l 1
 25 -88 l 1
 206 -88 l 1
EndSplineSet
EndChar

StartChar: underscore
Encoding: 95 95 178
Width: 382
GlyphClass: 1
Flags: W
LayerCount: 2
Fore
SplineSet
365 -90 m 1
 365 -16 l 1
 16 -16 l 1
 16 -90 l 1
 365 -90 l 1
EndSplineSet
EndChar

StartChar: tatweelarabic
Encoding: 1600 1600 179
Width: 212
GlyphClass: 1
Flags: W
LayerCount: 2
Fore
SplineSet
221 97 m 1
 -10 97 l 1
 -10 0 l 1
 221 0 l 1
 221 97 l 1
EndSplineSet
EndChar

StartChar: feharabic
Encoding: 1601 1601 180
AltUni2: 00fed1.ffffffff.0 00fed1.ffffffff.0
Width: 737
GlyphClass: 1
Flags: W
LayerCount: 2
Fore
SplineSet
586 589 m 1
 586 690 l 1
 490 690 l 1
 490 589 l 1
 586 589 l 1
707 379 m 0
 706 476 649 529 535 538 c 0
 492 541 452 528 416 499 c 0
 373 464 351 415 348 350 c 0
 347 303 361 262 390 227 c 0
 423 190 464 171 513 171 c 2
 599 171 l 1
 599 143 l 2
 599 112 586 97 559 97 c 2
 310 97 l 2
 248 97 202 128 173 189 c 0
 150 236 139 294 139 365 c 1
 34 365 l 1
 32 270 49 189 84 124 c 0
 130 41 201 0 298 0 c 2
 615 0 l 1
 616 0 l 2
 667 0 697 22 705 66 c 0
 706 69 707 173 707 379 c 0
599 267 m 1
 528 267 l 2
 485 267 451 307 452 356 c 0
 453 421 485 463 533 463 c 0
 554 463 571 454 583 436 c 0
 592 422 597 411 597 402 c 0
 597 394 598 349 599 267 c 1
EndSplineSet
Substitution2: "'init' Initial Forms in Arabic lookup 17 subtable" fehinitialarabic
Substitution2: "'medi' Medial Forms in Arabic lookup 16 subtable" fehmedialarabic
Substitution2: "'fina' Terminal Forms in Arabic lookup 15 subtable" fehfinalarabic
Substitution2: "'isol' Isolated Forms in Arabic lookup 13 subtable" feharabic
AlternateSubs2: "'aalt' Access All Alternates in Latin lookup 1 subtable" feharabic fehfinalarabic fehmedialarabic fehinitialarabic
EndChar

StartChar: qafarabic
Encoding: 1602 1602 181
AltUni2: 00fed5.ffffffff.0 00fed5.ffffffff.0
Width: 640
GlyphClass: 1
Flags: W
LayerCount: 2
Fore
SplineSet
559 446 m 1
 559 547 l 1
 462 547 l 1
 462 446 l 1
 559 446 l 1
414 446 m 1
 414 547 l 1
 317 547 l 1
 317 446 l 1
 414 446 l 1
609 92 m 2
 609 208 l 2
 609 305 552 357 437 366 c 0
 394 369 354 357 318 328 c 0
 275 293 252 243 250 178 c 0
 248 131 262 90 292 55 c 0
 324 18 365 -1 415 -1 c 2
 449 -1 l 2
 467 0 480 0 488 0 c 1
 456 -70 402 -105 327 -105 c 0
 274 -105 230 -85 193 -44 c 0
 157 -4 139 45 139 103 c 2
 139 220 l 1
 34 220 l 1
 34 93 l 2
 34 -2 62 -78 119 -135 c 0
 173 -190 242 -217 326 -217 c 0
 411 -217 480 -189 531 -132 c 0
 583 -75 609 -1 609 92 c 2
501 96 m 1
 430 96 l 2
 387 96 353 135 354 184 c 0
 357 251 387 291 434 291 c 0
 455 291 472 282 484 265 c 0
 494 250 499 239 499 230 c 0
 499 222 500 177 501 96 c 1
EndSplineSet
Substitution2: "'init' Initial Forms in Arabic lookup 17 subtable" qafinitialarabic
Substitution2: "'medi' Medial Forms in Arabic lookup 16 subtable" qafmedialarabic
Substitution2: "'fina' Terminal Forms in Arabic lookup 15 subtable" qaffinalarabic
Substitution2: "'isol' Isolated Forms in Arabic lookup 13 subtable" qafarabic
AlternateSubs2: "'aalt' Access All Alternates in Latin lookup 1 subtable" qafarabic qaffinalarabic qafmedialarabic qafinitialarabic
EndChar

StartChar: kafarabic
Encoding: 1603 1603 182
AltUni2: 00fed9.ffffffff.0 00fed9.ffffffff.0
Width: 739
GlyphClass: 1
Flags: W
LayerCount: 2
Fore
SplineSet
491 325 m 1
 491 390 l 1
 447 390 l 2
 430 390 416 394 407 403 c 0
 400 410 397 417 397 426 c 0
 398 447 407 456 423 455 c 0
 434 454 446 448 457 438 c 1
 489 486 l 1
 469 510 446 522 420 522 c 0
 369 522 332 481 332 429 c 0
 332 413 336 400 344 390 c 1
 288 390 l 1
 258 325 l 1
 491 325 l 1
708 78 m 1
 708 244 706 434 702 649 c 1
 596 649 l 1
 601 328 603 163 603 153 c 0
 603 116 590 97 564 97 c 2
 310 97 l 2
 248 97 202 128 173 189 c 0
 150 236 139 294 139 365 c 1
 34 365 l 1
 32 268 49 188 86 123 c 0
 133 41 206 0 305 0 c 2
 615 0 l 2
 666 0 701 30 708 78 c 1
EndSplineSet
Substitution2: "'init' Initial Forms in Arabic lookup 17 subtable" kafinitialarabic
Substitution2: "'medi' Medial Forms in Arabic lookup 16 subtable" kafmedialarabic
Substitution2: "'fina' Terminal Forms in Arabic lookup 15 subtable" kaffinalarabic
Substitution2: "'isol' Isolated Forms in Arabic lookup 13 subtable" kafarabic
AlternateSubs2: "'aalt' Access All Alternates in Latin lookup 1 subtable" kafarabic kaffinalarabic kafmedialarabic kafinitialarabic
EndChar

StartChar: lamarabic
Encoding: 1604 1604 183
AltUni2: 00fedd.ffffffff.0 00fedd.ffffffff.0
Width: 598
GlyphClass: 1
Flags: W
LayerCount: 2
Fore
SplineSet
568 64 m 2
 564 658 l 1
 457 658 l 1
 464 65 l 2
 464 17 448 -24 416 -58 c 0
 385 -92 347 -109 303 -109 c 0
 258 -109 220 -92 189 -58 c 0
 158 -25 142 16 142 63 c 0
 141 123 141 192 141 269 c 1
 34 269 l 1
 38 65 l 2
 38 -14 64 -80 116 -135 c 0
 168 -190 230 -218 303 -218 c 0
 376 -218 439 -190 490 -135 c 0
 542 -80 568 -14 568 64 c 2
EndSplineSet
Substitution2: "'init' Initial Forms in Arabic lookup 17 subtable" laminitialarabic
Substitution2: "'medi' Medial Forms in Arabic lookup 16 subtable" lammedialarabic
Substitution2: "'fina' Terminal Forms in Arabic lookup 15 subtable" lamfinalarabic
Substitution2: "'isol' Isolated Forms in Arabic lookup 13 subtable" lamarabic
AlternateSubs2: "'aalt' Access All Alternates in Latin lookup 1 subtable" lamarabic lamfinalarabic lammedialarabic laminitialarabic
EndChar

StartChar: meemarabic
Encoding: 1605 1605 184
AltUni2: 00fee1.ffffffff.0 00fee1.ffffffff.0
Width: 651
GlyphClass: 1
Flags: W
LayerCount: 2
Fore
SplineSet
621 188 m 0
 621 237 605 280 572 316 c 0
 536 356 489 376 430 376 c 0
 341 376 284 338 259 261 c 1
 205 261 l 1
 165 261 l 2
 77 261 33 217 34 130 c 2
 39 -217 l 1
 144 -217 l 1
 140 74 l 2
 139 102 142 122 147 133 c 0
 156 149 173 157 198 157 c 2
 250 157 l 1
 257 113 276 76 308 47 c 0
 342 16 385 0 438 0 c 0
 551 0 621 71 621 188 c 0
516 187 m 0
 516 123 483 86 439 86 c 0
 418 86 399 94 384 111 c 0
 367 130 358 156 358 187 c 0
 358 219 366 244 381 263 c 0
 395 280 413 288 434 288 c 0
 456 288 475 280 490 263 c 0
 507 244 516 218 516 187 c 0
EndSplineSet
Substitution2: "'init' Initial Forms in Arabic lookup 17 subtable" meeminitialarabic
Substitution2: "'medi' Medial Forms in Arabic lookup 16 subtable" meemmedialarabic
Substitution2: "'fina' Terminal Forms in Arabic lookup 15 subtable" meemfinalarabic
Substitution2: "'isol' Isolated Forms in Arabic lookup 13 subtable" meemarabic
AlternateSubs2: "'aalt' Access All Alternates in Latin lookup 1 subtable" meemarabic meemfinalarabic meemmedialarabic meeminitialarabic
EndChar

StartChar: noonarabic
Encoding: 1606 1606 185
AltUni2: 00fee5.ffffffff.0 00fee5.ffffffff.0
Width: 598
GlyphClass: 1
Flags: W
LayerCount: 2
Fore
SplineSet
347 364 m 1
 347 465 l 1
 250 465 l 1
 250 364 l 1
 347 364 l 1
568 64 m 2
 566 270 l 1
 459 270 l 1
 464 65 l 2
 464 17 448 -24 416 -58 c 0
 385 -92 347 -109 303 -109 c 0
 258 -109 220 -92 189 -58 c 0
 158 -25 142 16 142 63 c 0
 141 123 141 192 141 269 c 1
 34 269 l 1
 38 65 l 2
 38 -14 64 -80 116 -135 c 0
 168 -190 230 -218 303 -218 c 0
 376 -218 439 -190 490 -135 c 0
 542 -80 568 -14 568 64 c 2
EndSplineSet
Substitution2: "'init' Initial Forms in Arabic lookup 17 subtable" nooninitialarabic
Substitution2: "'medi' Medial Forms in Arabic lookup 16 subtable" noonmedialarabic
Substitution2: "'fina' Terminal Forms in Arabic lookup 15 subtable" noonfinalarabic
Substitution2: "'isol' Isolated Forms in Arabic lookup 13 subtable" noonarabic
AlternateSubs2: "'aalt' Access All Alternates in Latin lookup 1 subtable" noonarabic noonfinalarabic noonmedialarabic nooninitialarabic
EndChar

StartChar: heharabic
Encoding: 1607 1607 186
AltUni2: 00fee9.ffffffff.0 00fee9.ffffffff.0
Width: 438
GlyphClass: 1
Flags: W
LayerCount: 2
Fore
SplineSet
408 188 m 0
 408 237 392 280 359 316 c 0
 323 356 276 376 217 376 c 0
 102 376 34 304 34 188 c 0
 34 138 51 95 84 59 c 0
 119 20 166 0 225 0 c 0
 338 0 408 71 408 188 c 0
303 187 m 0
 303 123 270 86 226 86 c 0
 205 86 186 94 171 111 c 0
 154 130 145 156 145 187 c 0
 145 219 152 244 167 263 c 0
 182 280 200 288 222 288 c 0
 243 288 261 280 277 263 c 0
 294 244 303 218 303 187 c 0
EndSplineSet
Substitution2: "'init' Initial Forms in Arabic lookup 17 subtable" hehinitialarabic
Substitution2: "'medi' Medial Forms in Arabic lookup 16 subtable" hehmedialarabic
Substitution2: "'fina' Terminal Forms in Arabic lookup 15 subtable" hehfinalarabic
Substitution2: "'isol' Isolated Forms in Arabic lookup 13 subtable" heharabic
AlternateSubs2: "'aalt' Access All Alternates in Latin lookup 1 subtable" heharabic hehfinalarabic hehmedialarabic hehinitialarabic
EndChar

StartChar: wawarabic
Encoding: 1608 1608 187
AltUni2: 00feed.ffffffff.0 00feed.ffffffff.0
Width: 490
GlyphClass: 1
Flags: W
LayerCount: 2
Fore
SplineSet
135 -134 m 1
 163 -169 185 -197 200 -217 c 1
 357 -205 459 -79 459 93 c 2
 459 209 l 2
 459 305 397 367 287 367 c 0
 184 367 100 292 100 179 c 0
 100 84 168 0 267 0 c 2
 337 0 l 1
 305 -83 226 -134 135 -134 c 1
353 98 m 1
 282 98 l 2
 240 98 206 137 206 184 c 0
 206 252 241 294 287 294 c 0
 322 294 352 255 352 233 c 0
 352 225 352 180 353 98 c 1
EndSplineSet
Substitution2: "'fina' Terminal Forms in Arabic lookup 15 subtable" wawfinalarabic
Substitution2: "'isol' Isolated Forms in Arabic lookup 13 subtable" wawarabic
AlternateSubs2: "'aalt' Access All Alternates in Latin lookup 1 subtable" wawarabic wawfinalarabic
EndChar

StartChar: alefmaksuraarabic
Encoding: 1609 1609 188
AltUni2: 00feef.ffffffff.0 00feef.ffffffff.0
Width: 598
GlyphClass: 1
Flags: W
LayerCount: 2
Fore
SplineSet
568 64 m 2
 565 187 l 1
 358 187 l 1
 359 242 378 270 416 270 c 0
 432 270 446 261 459 242 c 1
 549 286 l 1
 516 347 470 378 411 378 c 0
 303 378 245 297 245 164 c 0
 245 140 247 115 250 90 c 1
 462 89 l 1
 463 66 l 2
 463 11 445 -33 409 -66 c 0
 378 -95 343 -109 302 -109 c 0
 264 -109 229 -95 197 -66 c 0
 160 -33 142 11 142 64 c 0
 142 71 141 88 140 117 c 0
 139 146 139 170 139 187 c 1
 34 187 l 1
 36 130 37 90 38 65 c 0
 38 -14 64 -80 116 -135 c 0
 168 -190 230 -218 303 -218 c 0
 376 -218 439 -190 490 -135 c 0
 542 -80 568 -14 568 64 c 2
EndSplineSet
Substitution2: "'fina' Terminal Forms in Arabic lookup 15 subtable" alefmaksurafinalarabic
Substitution2: "'isol' Isolated Forms in Arabic lookup 13 subtable" alefmaksuraarabic
AlternateSubs2: "'aalt' Access All Alternates in Latin lookup 1 subtable" alefmaksuraarabic alefmaksurafinalarabic
EndChar

StartChar: yeharabic
Encoding: 1610 1610 189
AltUni2: 00fef1.ffffffff.0 00fef1.ffffffff.0
Width: 598
GlyphClass: 1
Flags: W
LayerCount: 2
Fore
SplineSet
568 64 m 2
 565 187 l 1
 358 187 l 1
 359 242 378 270 416 270 c 0
 432 270 446 261 459 242 c 1
 549 286 l 1
 516 347 470 378 411 378 c 0
 303 378 245 297 245 164 c 0
 245 140 247 115 250 90 c 1
 462 89 l 1
 463 66 l 2
 463 11 445 -33 409 -66 c 0
 378 -95 343 -109 302 -109 c 0
 264 -109 229 -95 197 -66 c 0
 160 -33 142 11 142 64 c 0
 142 71 141 88 140 117 c 0
 139 146 139 170 139 187 c 1
 34 187 l 1
 36 130 37 90 38 65 c 0
 38 -14 64 -80 116 -135 c 0
 168 -190 230 -218 303 -218 c 0
 376 -218 439 -190 490 -135 c 0
 542 -80 568 -14 568 64 c 2
446 -393 m 1
 446 -292 l 1
 349 -292 l 1
 349 -393 l 1
 446 -393 l 1
301 -393 m 1
 301 -292 l 1
 204 -292 l 1
 204 -393 l 1
 301 -393 l 1
EndSplineSet
Substitution2: "'init' Initial Forms in Arabic lookup 17 subtable" yehinitialarabic
Substitution2: "'medi' Medial Forms in Arabic lookup 16 subtable" yehmedialarabic
Substitution2: "'fina' Terminal Forms in Arabic lookup 15 subtable" yehfinalarabic
Substitution2: "'isol' Isolated Forms in Arabic lookup 13 subtable" yeharabic
AlternateSubs2: "'aalt' Access All Alternates in Latin lookup 1 subtable" yeharabic yehfinalarabic yehmedialarabic yehinitialarabic
EndChar

StartChar: fathatanarabic
Encoding: 1611 1611 190
AltUni2: 00fe70.ffffffff.0 00fe70.ffffffff.0
Width: 0
GlyphClass: 1
Flags: W
LayerCount: 2
Fore
SplineSet
228 803 m 1
 63 801 l 2
 38 798 21 786 10 765 c 1
 166 765 l 2
 202 766 223 779 228 803 c 1
203 739 m 1
 38 735 l 2
 13 732 -4 721 -15 701 c 1
 142 701 l 2
 177 702 198 714 203 739 c 1
EndSplineSet
Substitution2: "'isol' Isolated Forms in Arabic lookup 14 subtable" fathatanarabic
Substitution2: "'aalt' Access All Alternates in Latin lookup 0 subtable" fathatanarabic
EndChar

StartChar: dammatanarabic
Encoding: 1612 1612 191
AltUni2: 00fe72.ffffffff.0 00fe72.ffffffff.0
Width: 0
GlyphClass: 1
Flags: W
LayerCount: 2
Fore
SplineSet
179 721 m 0
 179 750 154 776 126 776 c 0
 117 776 107 773 98 767 c 0
 81 756 73 740 73 719 c 0
 73 704 78 690 87 679 c 1
 71 673 52 670 29 671 c 1
 49 684 59 702 59 726 c 0
 59 752 47 769 23 778 c 0
 18 779 14 780 9 780 c 0
 -12 780 -28 767 -41 742 c 1
 -28 753 -16 759 -5 759 c 0
 1 759 7 757 12 752 c 0
 21 745 25 737 25 728 c 0
 25 711 12 693 -14 672 c 1
 -6 652 -1 642 0 641 c 0
 14 640 29 639 45 639 c 0
 132 639 179 673 179 721 c 0
129 742 m 0
 142 742 149 735 149 722 c 0
 149 709 138 698 116 691 c 1
 108 701 104 711 104 720 c 0
 104 729 108 735 116 739 c 0
 121 741 125 742 129 742 c 0
EndSplineSet
Substitution2: "'isol' Isolated Forms in Arabic lookup 14 subtable" dammatanarabic
Substitution2: "'aalt' Access All Alternates in Latin lookup 0 subtable" dammatanarabic
EndChar

StartChar: kasratanarabic
Encoding: 1613 1613 192
AltUni2: 00fe74.ffffffff.0 00fe74.ffffffff.0
Width: 0
GlyphClass: 1
Flags: W
LayerCount: 2
Fore
SplineSet
217 -216 m 1
 53 -219 l 2
 28 -222 11 -234 0 -254 c 1
 157 -254 l 2
 192 -253 212 -241 217 -216 c 1
193 -281 m 1
 28 -285 l 2
 3 -288 -14 -299 -24 -319 c 1
 132 -319 l 2
 167 -318 187 -306 193 -281 c 1
EndSplineSet
Substitution2: "'isol' Isolated Forms in Arabic lookup 14 subtable" kasratanarabic
Substitution2: "'aalt' Access All Alternates in Latin lookup 0 subtable" kasratanarabic
EndChar

StartChar: fathaarabic
Encoding: 1614 1614 193
AltUni2: 00fe76.ffffffff.0 00fe76.ffffffff.0
Width: 0
GlyphClass: 1
Flags: W
LayerCount: 2
Fore
SplineSet
226 781 m 1
 61 778 l 2
 36 775 18 763 9 743 c 1
 165 743 l 2
 200 744 221 757 226 781 c 1
EndSplineSet
Substitution2: "'isol' Isolated Forms in Arabic lookup 14 subtable" fathaarabic
Substitution2: "'aalt' Access All Alternates in Latin lookup 0 subtable" fathaarabic
EndChar

StartChar: dammaarabic
Encoding: 1615 1615 194
AltUni2: 00fe78.ffffffff.0 00fe78.ffffffff.0
Width: 0
GlyphClass: 1
Flags: W
LayerCount: 2
Fore
SplineSet
182 770 m 0
 182 797 158 824 129 824 c 0
 120 824 110 821 101 815 c 0
 84 804 76 788 76 766 c 0
 76 751 81 739 90 728 c 1
 71 717 37 717 -13 726 c 1
 -4 702 2 690 3 690 c 0
 16 687 31 686 47 686 c 0
 135 686 182 722 182 770 c 0
133 790 m 0
 146 790 153 784 153 771 c 0
 153 757 142 746 119 739 c 1
 112 748 108 758 108 768 c 0
 108 777 112 783 120 787 c 0
 124 789 128 790 133 790 c 0
EndSplineSet
Substitution2: "'isol' Isolated Forms in Arabic lookup 14 subtable" dammaarabic
Substitution2: "'aalt' Access All Alternates in Latin lookup 0 subtable" dammaarabic
EndChar

StartChar: kasraarabic
Encoding: 1616 1616 195
AltUni2: 00fe7a.ffffffff.0 00fe7a.ffffffff.0
Width: 0
GlyphClass: 1
Flags: W
LayerCount: 2
Fore
SplineSet
193 -281 m 1
 28 -285 l 2
 3 -288 -14 -299 -24 -319 c 1
 132 -319 l 2
 167 -318 187 -306 193 -281 c 1
EndSplineSet
Substitution2: "'isol' Isolated Forms in Arabic lookup 14 subtable" kasraarabic
Substitution2: "'aalt' Access All Alternates in Latin lookup 0 subtable" kasraarabic
EndChar

StartChar: shaddaarabic
Encoding: 1617 1617 196
AltUni2: 00fe7c.ffffffff.0 00fe7c.ffffffff.0
Width: 0
GlyphClass: 1
Flags: W
LayerCount: 2
Fore
SplineSet
211 821 m 1
 170 821 l 1
 171 751 l 2
 171 739 166 734 155 737 c 0
 142 740 136 749 136 766 c 2
 136 821 l 1
 95 821 l 1
 95 766 l 2
 95 749 89 740 77 737 c 0
 66 735 61 740 61 752 c 2
 61 821 l 1
 21 821 l 1
 21 743 l 2
 21 712 37 696 70 696 c 0
 86 696 98 700 105 709 c 0
 108 711 111 718 116 729 c 1
 127 706 142 694 163 693 c 0
 195 692 211 709 211 743 c 2
 211 821 l 1
EndSplineSet
Substitution2: "'isol' Isolated Forms in Arabic lookup 14 subtable" shaddaarabic
Substitution2: "'aalt' Access All Alternates in Latin lookup 0 subtable" shaddaarabic
EndChar

StartChar: sukunarabic
Encoding: 1618 1618 197
AltUni2: 00fe7e.ffffffff.0 00fe7e.ffffffff.0
Width: 0
GlyphClass: 1
Flags: W
LayerCount: 2
Fore
SplineSet
161 771 m 0
 161 814 133 850 86 849 c 0
 39 848 16 821 17 769 c 0
 18 728 48 691 92 691 c 0
 139 692 162 719 161 771 c 0
118 771 m 0
 119 745 110 732 92 732 c 0
 73 731 64 744 63 770 c 0
 62 795 71 808 89 809 c 0
 108 809 117 796 118 771 c 0
EndSplineSet
Substitution2: "'isol' Isolated Forms in Arabic lookup 14 subtable" sukunarabic
Substitution2: "'aalt' Access All Alternates in Latin lookup 0 subtable" sukunarabic
EndChar

StartChar: peharabic
Encoding: 1662 1662 198
AltUni2: 00fb56.ffffffff.0 00fb56.ffffffff.0
Width: 738
GlyphClass: 1
Flags: W
LayerCount: 2
Fore
SplineSet
708 78 m 1
 708 218 707 314 706 365 c 1
 600 365 l 1
 603 153 l 2
 603 116 590 97 564 97 c 2
 310 97 l 2
 248 97 202 128 173 189 c 0
 150 236 139 294 139 365 c 1
 34 365 l 1
 32 268 49 188 86 123 c 0
 133 41 206 0 305 0 c 2
 615 0 l 2
 666 0 701 30 708 78 c 1
529 -171 m 1
 529 -70 l 1
 433 -70 l 1
 433 -171 l 1
 529 -171 l 1
384 -171 m 1
 384 -70 l 1
 288 -70 l 1
 288 -171 l 1
 384 -171 l 1
457 -303 m 1
 457 -202 l 1
 360 -202 l 1
 360 -303 l 1
 457 -303 l 1
708 78 m 1
 701 30 666 0 615 0 c 2
 305 0 l 2
 206 0 133 41 86 123 c 0
 49 188 32 268 34 365 c 1
 139 365 l 1
 139 294 150 236 173 189 c 0
 202 128 248 97 310 97 c 2
 564 97 l 2
 590 97 603 106 603 125 c 0
 603 144 602 224 600 365 c 1
 706 365 l 1
 707 299 708 203 708 78 c 1
708 78 m 1
 708 218 707 314 706 365 c 1
 600 365 l 1
 603 153 l 2
 603 116 590 97 564 97 c 2
 310 97 l 2
 248 97 202 128 173 189 c 0
 150 236 139 294 139 365 c 1
 34 365 l 1
 32 268 49 188 86 123 c 0
 133 41 206 0 305 0 c 2
 615 0 l 2
 666 0 701 30 708 78 c 1
EndSplineSet
Substitution2: "'init' Initial Forms in Arabic lookup 17 subtable" pehinitialarabic
Substitution2: "'medi' Medial Forms in Arabic lookup 16 subtable" pehmedialarabic
Substitution2: "'fina' Terminal Forms in Arabic lookup 15 subtable" pehfinalarabic
Substitution2: "'isol' Isolated Forms in Arabic lookup 13 subtable" peharabic
AlternateSubs2: "'aalt' Access All Alternates in Latin lookup 1 subtable" peharabic pehfinalarabic pehmedialarabic pehinitialarabic
EndChar

StartChar: tcheharabic
Encoding: 1670 1670 199
AltUni2: 00fb7a.ffffffff.0 00fb7a.ffffffff.0
Width: 552
GlyphClass: 1
Flags: W
LayerCount: 2
Fore
SplineSet
399 -3 m 1
 399 69 l 1
 330 69 l 1
 330 -3 l 1
 399 -3 l 1
522 98 m 1
 522 188 502 265 461 330 c 0
 416 403 354 440 277 440 c 0
 217 440 165 421 120 382 c 1
 157 303 l 1
 194 330 229 344 264 344 c 0
 297 345 326 335 351 316 c 0
 385 291 406 251 414 196 c 1
 222 196 l 2
 167 196 122 174 85 131 c 0
 51 90 34 42 34 -14 c 0
 34 -70 54 -118 93 -157 c 0
 133 -197 181 -217 237 -217 c 2
 377 -217 l 1
 377 -120 l 1
 245 -120 l 2
 218 -120 193 -110 172 -91 c 0
 149 -70 137 -43 137 -10 c 0
 137 57 177 98 248 98 c 2
 522 98 l 1
296 -3 m 1
 296 69 l 1
 227 69 l 1
 227 -3 l 1
 296 -3 l 1
347 -97 m 1
 347 -25 l 1
 278 -25 l 1
 278 -97 l 1
 347 -97 l 1
EndSplineSet
Substitution2: "'init' Initial Forms in Arabic lookup 17 subtable" tchehinitialarabic
Substitution2: "'medi' Medial Forms in Arabic lookup 16 subtable" tchehmedialarabic
Substitution2: "'fina' Terminal Forms in Arabic lookup 15 subtable" tchehfinalarabic
Substitution2: "'isol' Isolated Forms in Arabic lookup 13 subtable" tcheharabic
AlternateSubs2: "'aalt' Access All Alternates in Latin lookup 1 subtable" tcheharabic tchehfinalarabic tchehmedialarabic tchehinitialarabic
EndChar

StartChar: veharabic
Encoding: 1700 1700 200
AltUni2: 00fb6a.ffffffff.0 00fb6a.ffffffff.0
Width: 737
GlyphClass: 1
Flags: W
LayerCount: 2
Fore
SplineSet
584 721 m 1
 584 821 l 1
 488 821 l 1
 488 721 l 1
 584 721 l 1
657 589 m 1
 657 690 l 1
 560 690 l 1
 560 589 l 1
 657 589 l 1
512 589 m 1
 512 690 l 1
 415 690 l 1
 415 589 l 1
 512 589 l 1
707 379 m 0
 706 476 649 529 535 538 c 0
 492 541 452 528 416 499 c 0
 373 464 351 415 348 350 c 0
 347 303 361 262 390 227 c 0
 423 190 464 171 513 171 c 2
 599 171 l 1
 599 143 l 2
 599 112 586 97 559 97 c 2
 310 97 l 2
 248 97 202 128 173 189 c 0
 150 236 139 294 139 365 c 1
 34 365 l 1
 32 270 49 189 84 124 c 0
 130 41 201 0 298 0 c 2
 615 0 l 1
 616 0 l 2
 667 0 697 22 705 66 c 0
 706 69 707 173 707 379 c 0
599 267 m 1
 528 267 l 2
 485 267 451 307 452 356 c 0
 453 421 485 463 533 463 c 0
 554 463 571 454 583 436 c 0
 592 422 597 411 597 402 c 0
 597 394 598 349 599 267 c 1
EndSplineSet
Substitution2: "'init' Initial Forms in Arabic lookup 17 subtable" vehinitialarabic
Substitution2: "'medi' Medial Forms in Arabic lookup 16 subtable" vehmedialarabic
Substitution2: "'fina' Terminal Forms in Arabic lookup 15 subtable" vehfinalarabic
Substitution2: "'isol' Isolated Forms in Arabic lookup 13 subtable" veharabic
AlternateSubs2: "'aalt' Access All Alternates in Latin lookup 1 subtable" veharabic vehfinalarabic vehmedialarabic vehinitialarabic
EndChar

StartChar: braceright
Encoding: 125 125 201
Width: 352
GlyphClass: 1
Flags: W
LayerCount: 2
Fore
SplineSet
35 -74 m 0
 35 -69 35 -64 36 -61 c 0
 122 -60 158 -45 152 16 c 1
 152 179 l 2
 152 208 171 234 210 259 c 1
 171 289 152 318 152 339 c 2
 152 502 l 2
 152 535 143 556 128 565 c 0
 113 576 83 582 37 582 c 1
 37 589 l 2
 37 596 37 604 38 612 c 1
 161 612 238 580 238 502 c 2
 238 339 l 2
 238 324 243 309 255 294 c 0
 268 277 285 267 304 259 c 1
 306 259 l 1
 260 229 238 201 238 179 c 2
 238 16 l 2
 238 -21 227 -46 204 -62 c 0
 182 -81 143 -89 89 -89 c 2
 36 -87 l 2
 35 -83 35 -81 35 -74 c 0
EndSplineSet
EndChar

StartChar: bar
Encoding: 124 124 202
Width: 130
GlyphClass: 1
Flags: W
LayerCount: 2
Fore
SplineSet
34 -97 m 1
 97 -97 l 1
 97 618 l 1
 34 618 l 1
 34 -97 l 1
EndSplineSet
EndChar

StartChar: braceleft
Encoding: 123 123 203
Width: 352
GlyphClass: 1
Flags: W
LayerCount: 2
Fore
SplineSet
307 -74 m 0
 307 -69 307 -64 306 -61 c 0
 220 -60 184 -45 190 16 c 1
 190 179 l 2
 190 208 171 234 132 259 c 1
 171 289 190 318 190 339 c 2
 190 502 l 2
 190 535 199 556 214 565 c 0
 229 576 259 582 305 582 c 1
 305 589 l 2
 305 596 305 604 304 612 c 1
 181 612 104 580 104 502 c 2
 104 339 l 2
 104 324 99 309 87 294 c 0
 74 277 57 267 38 259 c 1
 36 259 l 1
 82 229 104 201 104 179 c 2
 104 16 l 2
 104 -21 115 -46 138 -62 c 0
 160 -81 199 -89 253 -89 c 2
 306 -87 l 2
 307 -83 307 -81 307 -74 c 0
EndSplineSet
EndChar

StartChar: jeharabic
Encoding: 1688 1688 204
AltUni2: 00fb8a.ffffffff.0 00fb8a.ffffffff.0
Width: 310
GlyphClass: 1
Flags: W
LayerCount: 2
Fore
SplineSet
-47 -134 m 1
 -18 -169 4 -197 19 -217 c 1
 98 -211 161 -179 208 -122 c 0
 256 -65 280 6 280 93 c 2
 278 365 l 1
 171 365 l 1
 173 82 l 2
 173 18 151 -34 107 -75 c 0
 65 -114 14 -133 -47 -134 c 1
207 578 m 1
 207 678 l 1
 111 678 l 1
 111 578 l 1
 207 578 l 1
280 446 m 1
 280 547 l 1
 183 547 l 1
 183 446 l 1
 280 446 l 1
135 446 m 1
 135 547 l 1
 38 547 l 1
 38 446 l 1
 135 446 l 1
EndSplineSet
Substitution2: "'fina' Terminal Forms in Arabic lookup 15 subtable" jehfinalarabic
Substitution2: "'isol' Isolated Forms in Arabic lookup 13 subtable" jeharabic
AlternateSubs2: "'aalt' Access All Alternates in Latin lookup 1 subtable" jeharabic jehfinalarabic
EndChar

StartChar: zero
Encoding: 48 48 205
Width: 1135
VWidth: 2048
GlyphClass: 1
Flags: HW
LayerCount: 2
Fore
SplineSet
316 390.25 m 4
 316 487.25 326.416992188 562.25 347.25 615.25 c 132
 368.083007812 668.25 397.5 708.416992188 435.5 735.75 c 132
 473.5 763.083007812 516 776.75 563 776.75 c 4
 610.666992188 776.75 653.833007812 763 692.5 735.5 c 132
 731.166992188 708 761.75 666.75 784.25 611.75 c 132
 806.75 556.75 818 482.916992188 818 390.25 c 4
 818 297.916992188 806.916992188 224.416992188 784.75 169.75 c 132
 762.583007812 115.083007812 732 73.8330078125 693 46 c 132
 654 18.1669921875 610.666992188 4.25 563 4.25 c 4
 516 4.25 473.666992188 17.75 436 44.75 c 132
 398.333007812 71.75 368.916992188 112 347.75 165.5 c 132
 326.583007812 219 316 293.916992188 316 390.25 c 4
385.5 388.75 m 4
 385.5 305.75 392.916992188 243 407.75 200.5 c 132
 422.583007812 158 444.5 125.75 473.5 103.75 c 132
 502.5 81.75 533.166992188 70.75 565.5 70.75 c 4
 598.166992188 70.75 628.666992188 81.5 657 103 c 132
 685.333007812 124.5 706.833007812 156.75 721.5 199.75 c 4
 739.833007812 252.083007812 749 315.083007812 749 388.75 c 4
 749 462.75 740.833007812 523.333007812 724.5 570.5 c 132
 708.166992188 617.666992188 685.583007812 652.166992188 656.75 674 c 132
 627.916992188 695.833007812 597.5 706.75 565.5 706.75 c 4
 532.833007812 706.75 502.166992188 695.833007812 473.5 674 c 132
 444.833007812 652.166992188 423 620 408 577.5 c 132
 393 535 385.5 472.083007812 385.5 388.75 c 4
EndSplineSet
EndChar

StartChar: one
Encoding: 49 49 206
Width: 1135
VWidth: 2048
GlyphClass: 1
Flags: HW
LayerCount: 2
Fore
SplineSet
429 736 m 5
 574 736 l 5
 574 1 l 5
 501 1 l 5
 501 664 l 5
 385 664 l 5
 429 736 l 5
EndSplineSet
EndChar

StartChar: two
Encoding: 50 50 207
Width: 1135
VWidth: 2048
GlyphClass: 1
Flags: HW
LayerCount: 2
Fore
SplineSet
398.75 502 m 5
 328.25 502 l 5
 330.25 574.666992188 354.5 634.333007812 401 681 c 132
 447.5 727.666992188 504.916992188 751 573.25 751 c 4
 640.916992188 751 695.666992188 729.166992188 737.5 685.5 c 132
 779.333007812 641.833007812 800.25 590.333007812 800.25 531 c 4
 800.25 489.333007812 790.25 450.25 770.25 413.75 c 132
 750.25 377.25 711.416992188 327.833007812 653.75 265.5 c 6
 470.75 68 l 5
 810.25 68 l 5
 810.25 -3 l 5
 310.75 -3 l 5
 591.75 300.5 l 6
 648.75 361.5 685.833007812 406.75 703 436.25 c 132
 720.166992188 465.75 728.75 496.833007812 728.75 529.5 c 4
 728.75 570.833007812 713.333007812 606.416992188 682.5 636.25 c 132
 651.666992188 666.083007812 613.916992188 681 569.25 681 c 4
 522.25 681 483.166992188 665.333007812 452 634 c 132
 420.833007812 602.666992188 403.083007812 558.666992188 398.75 502 c 5
EndSplineSet
EndChar

StartChar: three
Encoding: 51 51 208
Width: 1135
VWidth: 2048
GlyphClass: 1
Flags: HW
LayerCount: 2
Fore
SplineSet
417.5 583.75 m 5
 342.5 583.75 l 5
 356.166992188 644.416992188 382.333007812 691.083007812 421 723.75 c 132
 459.666992188 756.416992188 505.333007812 772.75 558 772.75 c 4
 596.333007812 772.75 632.083007812 764 665.25 746.5 c 132
 698.416992188 729 724.083007812 705.416992188 742.25 675.75 c 132
 760.416992188 646.083007812 769.5 615.083007812 769.5 582.75 c 4
 769.5 519.416992188 738 469.25 675 432.25 c 5
 710.333007812 417.916992188 739.333007812 396.916992188 762 369.25 c 4
 794 330.25 810 286.583007812 810 238.25 c 4
 810 196.583007812 799 156.833007812 777 119 c 132
 755 81.1669921875 725 51.9169921875 687 31.25 c 132
 649 10.5830078125 606.5 0.25 559.5 0.25 c 4
 496.166992188 0.25 443.333007812 18.5 401 55 c 132
 358.666992188 91.5 331 145.083007812 318 215.75 c 5
 390 215.75 l 5
 402.666992188 168.083007812 420.833007812 133.583007812 444.5 112.25 c 4
 474.833007812 85.25 513.5 71.75 560.5 71.75 c 4
 613.833007812 71.75 656.666992188 87.75 689 119.75 c 132
 721.333007812 151.75 737.5 189.25 737.5 232.25 c 4
 737.5 260.916992188 729.416992188 287.75 713.25 312.75 c 132
 697.083007812 337.75 675.416992188 356.583007812 648.25 369.25 c 132
 621.083007812 381.916992188 579 389.75 522 392.75 c 5
 522 460.25 l 5
 555.666992188 460.25 586.333007812 466.166992188 614 478 c 132
 641.666992188 489.833007812 661.75 504.916992188 674.25 523.25 c 132
 686.75 541.583007812 693 561.583007812 693 583.25 c 4
 693 615.25 680.25 642.916992188 654.75 666.25 c 132
 629.25 689.583007812 597 701.25 558 701.25 c 4
 526.333007812 701.25 499 692.333007812 476 674.5 c 132
 453 656.666992188 433.5 626.416992188 417.5 583.75 c 5
EndSplineSet
EndChar

StartChar: four
Encoding: 52 52 209
Width: 1135
VWidth: 2048
GlyphClass: 1
Flags: HW
LayerCount: 2
Fore
SplineSet
719 755 m 5
 734 755 l 5
 734 242.5 l 5
 823 242.5 l 5
 823 172 l 5
 734 172 l 5
 734 1 l 5
 660.5 1 l 5
 660.5 172 l 5
 309 172 l 5
 719 755 l 5
660.5 242.5 m 5
 660.5 549 l 5
 444 242.5 l 5
 660.5 242.5 l 5
EndSplineSet
EndChar

StartChar: five
Encoding: 53 53 210
Width: 1135
VWidth: 2048
GlyphClass: 1
Flags: HW
LayerCount: 2
Fore
SplineSet
785.5 764 m 5
 785.5 694 l 5
 523.5 694 l 5
 487 493.5 l 5
 519 502.833007812 547.833007812 507.5 573.5 507.5 c 4
 640.5 507.5 695.75 485.083007812 739.25 440.25 c 132
 782.75 395.416992188 804.5 338 804.5 268 c 4
 804.5 219.666992188 793.333007812 175.333007812 771 135 c 132
 748.666992188 94.6669921875 718.416992188 63.75 680.25 42.25 c 132
 642.083007812 20.75 598 10 548 10 c 4
 488.333007812 10 438 28.25 397 64.75 c 132
 356 101.25 331.5 148.5 323.5 206.5 c 5
 399 206.5 l 5
 404.666992188 178.166992188 414.25 155.166992188 427.75 137.5 c 132
 441.25 119.833007812 459.25 105.583007812 481.75 94.75 c 132
 504.25 83.9169921875 527.833007812 78.5 552.5 78.5 c 4
 600.833007812 78.5 642.333007812 96.8330078125 677 133.5 c 132
 711.666992188 170.166992188 729 216 729 271 c 4
 729 320.666992188 713.333007812 361 682 392 c 132
 650.666992188 423 608.833007812 438.5 556.5 438.5 c 4
 513.166992188 438.5 460.666992188 425.333007812 399 399 c 5
 467 764 l 5
 785.5 764 l 5
EndSplineSet
EndChar

StartChar: six
Encoding: 54 54 211
Width: 1135
VWidth: 2048
GlyphClass: 1
Flags: HW
LayerCount: 2
Fore
SplineSet
671 781.75 m 5
 731.5 742.25 l 5
 533 441.25 l 5
 559.666992188 450.25 584.666992188 454.75 608 454.75 c 4
 666.333007812 454.75 715.833007812 433.666992188 756.5 391.5 c 132
 797.166992188 349.333007812 817.5 297.416992188 817.5 235.75 c 4
 817.5 193.416992188 807.666992188 155.166992188 788 121 c 132
 768.333007812 86.8330078125 740.416992188 59.6669921875 704.25 39.5 c 132
 668.083007812 19.3330078125 629.166992188 9.25 587.5 9.25 c 4
 547.166992188 9.25 509.75 19 475.25 38.5 c 132
 440.75 58 413.666992188 85.4169921875 394 120.75 c 132
 374.333007812 156.083007812 364.5 193.916992188 364.5 234.25 c 4
 364.5 264.25 370.583007812 295.833007812 382.75 329 c 132
 394.916992188 362.166992188 416.666992188 402.083007812 448 448.75 c 6
 671 781.75 l 5
590.5 390.25 m 260
 547.833007812 390.25 511.416992188 375.166992188 481.25 345 c 132
 451.083007812 314.833007812 436 278.25 436 235.25 c 4
 436 192.583007812 451.083007812 156.166992188 481.25 126 c 132
 511.416992188 95.8330078125 547.833007812 80.75 590.5 80.75 c 260
 633.166992188 80.75 669.583007812 95.8330078125 699.75 126 c 132
 729.916992188 156.166992188 745 192.583007812 745 235.25 c 4
 745 278.25 729.916992188 314.833007812 699.75 345 c 132
 669.583007812 375.166992188 633.166992188 390.25 590.5 390.25 c 260
EndSplineSet
EndChar

StartChar: seven
Encoding: 55 55 212
Width: 1135
VWidth: 2048
GlyphClass: 1
Flags: HW
LayerCount: 2
Fore
SplineSet
380.25 754 m 5
 846.75 754 l 5
 453.25 0 l 5
 392.75 31 l 5
 732.75 684.5 l 5
 380.25 684.5 l 5
 380.25 754 l 5
EndSplineSet
EndChar

StartChar: eight
Encoding: 56 56 213
Width: 1135
VWidth: 2048
GlyphClass: 1
Flags: HW
LayerCount: 2
Fore
SplineSet
677 431.25 m 5
 726.666992188 406.583007812 762.25 378.416992188 783.75 346.75 c 132
 805.25 315.083007812 816 279.083007812 816 238.75 c 4
 816 182.083007812 797.5 132.083007812 760.5 88.75 c 4
 715.166992188 35.75 650.333007812 9.25 566 9.25 c 4
 484.666992188 9.25 423 32.5 381 79 c 132
 339 125.5 318 176.75 318 232.75 c 4
 318 273.75 329 310.666992188 351 343.5 c 132
 373 376.333007812 409.666992188 405.583007812 461 431.25 c 5
 425 449.916992188 398 473.083007812 380 500.75 c 132
 362 528.416992188 353 558.083007812 353 589.75 c 4
 353 621.75 362.583007812 653 381.75 683.5 c 132
 400.916992188 714 427.416992188 738 461.25 755.5 c 132
 495.083007812 773 531.666992188 781.75 571 781.75 c 4
 609.333007812 781.75 644.833007812 772.916992188 677.5 755.25 c 132
 710.166992188 737.583007812 735.75 713.583007812 754.25 683.25 c 132
 772.75 652.916992188 782 621.083007812 782 587.75 c 260
 782 554.416992188 773.25 524.75 755.75 498.75 c 132
 738.25 472.75 712 450.25 677 431.25 c 5
567.5 710.25 m 4
 527.166992188 710.25 493.75 698.333007812 467.25 674.5 c 132
 440.75 650.666992188 427.5 622.25 427.5 589.25 c 4
 427.5 556.583007812 441.75 527 470.25 500.5 c 132
 498.75 474 532 460.75 570 460.75 c 4
 594.333007812 460.75 617.333007812 466.75 639 478.75 c 132
 660.666992188 490.75 677.583007812 507.166992188 689.75 528 c 132
 701.916992188 548.833007812 708 569.75 708 590.75 c 4
 708 620.416992188 696 647.75 672 672.75 c 132
 648 697.75 613.166992188 710.25 567.5 710.25 c 4
571 394.25 m 4
 520.333007812 394.25 477.833007812 377.833007812 443.5 345 c 132
 409.166992188 312.166992188 392 273.916992188 392 230.25 c 4
 392 203.25 399.333007812 177.75 414 153.75 c 132
 428.666992188 129.75 449.166992188 111.25 475.5 98.25 c 132
 501.833007812 85.25 532.333007812 78.75 567 78.75 c 4
 620.666992188 78.75 663.333007812 94.5830078125 695 126.25 c 132
 726.666992188 157.916992188 742.5 194.916992188 742.5 237.25 c 4
 742.5 278.25 725.75 314.666992188 692.25 346.5 c 132
 658.75 378.333007812 618.333007812 394.25 571 394.25 c 4
EndSplineSet
EndChar

StartChar: nine
Encoding: 57 57 214
Width: 1135
VWidth: 2048
GlyphClass: 1
Flags: HW
LayerCount: 2
Fore
SplineSet
473 -0.75 m 5
 412.5 38.25 l 5
 611 339.25 l 5
 584.333007812 330.583007812 559.333007812 326.25 536 326.25 c 4
 477.666992188 326.25 428.166992188 347.333007812 387.5 389.5 c 132
 346.833007812 431.666992188 326.5 483.583007812 326.5 545.25 c 4
 326.5 587.583007812 336.333007812 625.75 356 659.75 c 132
 375.666992188 693.75 403.583007812 720.916992188 439.75 741.25 c 132
 475.916992188 761.583007812 514.666992188 771.75 556 771.75 c 4
 596.666992188 771.75 634.25 761.916992188 668.75 742.25 c 132
 703.25 722.583007812 730.333007812 695.083007812 750 659.75 c 132
 769.666992188 624.416992188 779.5 586.75 779.5 546.75 c 4
 779.5 516.416992188 773.416992188 484.666992188 761.25 451.5 c 132
 749.083007812 418.333007812 727.333007812 378.416992188 696 331.75 c 6
 473 -0.75 l 5
553 390.75 m 4
 596 390.75 632.583007812 405.833007812 662.75 436 c 132
 692.916992188 466.166992188 708 502.583007812 708 545.25 c 260
 708 587.916992188 692.916992188 624.333007812 662.75 654.5 c 132
 632.583007812 684.666992188 596 699.75 553 699.75 c 4
 510.333007812 699.75 473.916992188 684.666992188 443.75 654.5 c 132
 413.583007812 624.333007812 398.5 587.916992188 398.5 545.25 c 260
 398.5 502.583007812 413.583007812 466.166992188 443.75 436 c 132
 473.916992188 405.833007812 510.333007812 390.75 553 390.75 c 4
EndSplineSet
EndChar

StartChar: quotedblleft
Encoding: 8220 8220 215
Width: 281
GlyphClass: 1
Flags: W
LayerCount: 2
Fore
SplineSet
283 711 m 1
 248 711 l 1
 186 654 155 605 155 565 c 2
 155 458 l 1
 253 458 l 1
 253 554 l 1
 231 553 220 564 219 588 c 0
 218 631 240 672 283 711 c 1
155 711 m 1
 121 711 l 1
 59 654 28 605 28 565 c 0
 28 554 28 537 27 515 c 2
 27 458 l 1
 125 458 l 1
 125 554 l 1
 103 553 92 564 91 588 c 0
 91 631 112 672 155 711 c 1
EndSplineSet
EndChar

StartChar: quotedblright
Encoding: 8221 8221 216
Width: 281
GlyphClass: 1
Flags: W
LayerCount: 2
Fore
SplineSet
257 603 m 2
 257 711 l 1
 159 711 l 1
 159 614 l 1
 181 616 192 605 192 580 c 0
 193 537 172 497 129 458 c 1
 164 458 l 1
 226 515 257 563 257 603 c 2
129 603 m 2
 129 711 l 1
 32 711 l 1
 32 614 l 1
 53 616 64 605 65 580 c 0
 66 537 45 497 2 458 c 1
 35 458 l 1
 98 515 129 563 129 603 c 2
EndSplineSet
EndChar

StartChar: hyphenminus
Encoding: 8208 8208 217
Width: 454
GlyphClass: 1
Flags: W
LayerCount: 2
Fore
SplineSet
24 192 m 1
 445 192 l 1
 445 231 l 1
 24 231 l 1
 24 192 l 1
EndSplineSet
EndChar

StartChar: delete
Encoding: 9249 9249 218
Width: 709
GlyphClass: 1
Flags: W
LayerCount: 2
Fore
SplineSet
674 57 m 1
 674 88 l 1
 547 88 l 1
 547 317 l 1
 511 317 l 1
 511 57 l 1
 674 57 l 1
479 57 m 1
 479 88 l 1
 320 88 l 1
 320 176 l 1
 463 176 l 1
 463 207 l 1
 320 207 l 1
 320 286 l 1
 473 286 l 1
 473 317 l 1
 284 317 l 1
 284 57 l 1
 479 57 l 1
253 189 m 0
 253 260 227 301 174 313 c 0
 164 316 149 317 128 317 c 2
 38 317 l 1
 38 57 l 1
 133 57 l 2
 148 57 162 59 174 62 c 0
 227 75 253 117 253 189 c 0
218 189 m 0
 218 152 209 124 192 106 c 0
 179 94 158 88 129 88 c 2
 73 88 l 1
 73 286 l 1
 128 286 l 2
 148 286 163 284 172 281 c 0
 203 269 218 238 218 189 c 0
EndSplineSet
EndChar

StartChar: allahisolated
Encoding: 65010 65010 220
Width: 1078
GlyphClass: 1
Flags: W
LayerCount: 2
Fore
SplineSet
1042 130 m 0
 1042 194 1041 280 1040 388 c 0
 1039 515 1039 601 1038 647 c 1
 933 647 l 1
 933 598 934 517 935 406 c 0
 936 308 937 228 937 166 c 0
 937 121 908 97 869 97 c 2
 798 97 l 2
 779 97 760 106 743 125 c 0
 723 146 713 174 712 209 c 0
 710 294 708 440 707 649 c 1
 602 649 l 1
 606 167 l 2
 606 144 596 126 576 113 c 0
 560 103 543 98 526 97 c 2
 424 97 l 2
 397 97 383 114 383 147 c 2
 382 430 l 1
 277 430 l 1
 277 394 l 1
 275 394 l 1
 252 423 220 438 178 438 c 0
 143 438 112 424 85 397 c 0
 51 364 34 316 34 253 c 0
 34 156 74 108 153 108 c 2
 278 108 l 1
 278 36 313 0 384 0 c 2
 563 0 l 2
 618 1 669 32 688 81 c 1
 693 66 701 52 713 38 c 0
 734 13 759 0 789 0 c 2
 907 0 l 2
 994 0 1042 50 1042 130 c 0
748 836 m 1
 707 836 l 1
 708 766 l 2
 708 754 703 749 692 752 c 0
 679 755 673 764 673 781 c 2
 673 836 l 1
 632 836 l 1
 632 781 l 2
 632 764 626 755 614 752 c 0
 603 750 598 755 598 767 c 2
 598 836 l 1
 558 836 l 1
 558 758 l 2
 558 727 574 711 607 711 c 0
 623 711 635 715 642 724 c 0
 645 726 648 733 653 744 c 1
 664 721 679 709 700 708 c 0
 732 707 748 724 748 758 c 2
 748 836 l 1
278 205 m 1
 190 205 l 2
 159 205 143 221 141 253 c 0
 138 306 159 333 205 333 c 0
 234 333 258 318 277 287 c 1
 278 205 l 1
EndSplineSet
Ligature2: "'rlig' Required Ligatures in Arabic lookup 12 subtable" laminitialarabic lammedialarabic hehfinalarabic
Ligature2: "'liga' Standard Ligatures in Arabic lookup 8 subtable" laminitialarabic lammedialarabic hehfinalarabic
Ligature2: "'liga' Standard Ligatures in Arabic lookup 7 subtable" laminitialarabic lammedialarabic hehfinalarabic
EndChar

StartChar: ornaterightparenthesis
Encoding: 64831 64831 221
Width: 342
GlyphClass: 1
Flags: W
LayerCount: 2
Fore
SplineSet
320 255 m 0
 320 328 305 396 274 458 c 0
 250 507 210 564 153 628 c 1
 57 588 l 1
 104 541 142 490 169 434 c 0
 200 372 215 310 215 249 c 0
 215 155 165 50 66 -67 c 1
 163 -107 l 1
 268 14 320 134 320 255 c 0
EndSplineSet
EndChar

StartChar: ornateleftparenthesis
Encoding: 64830 64830 222
Width: 342
GlyphClass: 1
Flags: W
LayerCount: 2
Fore
SplineSet
285 588 m 1
 189 628 l 1
 132 564 92 507 68 458 c 0
 37 396 22 328 22 255 c 0
 22 134 74 14 179 -107 c 1
 277 -67 l 1
 178 50 128 155 128 249 c 0
 128 310 143 372 173 434 c 0
 201 490 238 541 285 588 c 1
EndSplineSet
EndChar

StartChar: alefwithfathatanisolated
Encoding: 64829 64829 223
Width: 240
GlyphClass: 1
Flags: W
LayerCount: 2
Fore
SplineSet
281 803 m 1
 116 801 l 2
 91 798 74 786 63 765 c 1
 219 765 l 2
 255 765 276 779 281 803 c 1
256 739 m 1
 91 735 l 2
 66 732 49 721 38 701 c 1
 195 701 l 2
 230 701 251 714 256 739 c 1
210 0 m 1
 205 647 l 1
 100 647 l 1
 105 0 l 1
 210 0 l 1
EndSplineSet
Ligature2: "'liga' Standard Ligatures in Arabic lookup 4 subtable" alefarabic fathatanarabic
EndChar

StartChar: alefwithfathatanfinal
Encoding: 64828 64828 224
Width: 322
GlyphClass: 1
Flags: W
LayerCount: 2
Fore
SplineSet
281 803 m 1
 116 801 l 2
 91 798 74 786 63 765 c 1
 219 765 l 2
 255 765 276 779 281 803 c 1
256 739 m 1
 91 735 l 2
 66 732 49 721 38 701 c 1
 195 701 l 2
 230 701 251 714 256 739 c 1
331 0 m 1
 331 97 l 1
 256 97 l 2
 228 97 210 124 210 160 c 2
 206 647 l 1
 100 647 l 1
 103 118 l 2
 103 80 115 50 137 29 c 0
 156 10 180 0 208 0 c 2
 331 0 l 1
EndSplineSet
Ligature2: "'liga' Standard Ligatures in Arabic lookup 9 subtable" aleffinalarabic fathatanarabic
EndChar

StartChar: alefwaslafinal
Encoding: 64337 64337 225
Width: 322
GlyphClass: 1
Flags: W
LayerCount: 2
Fore
SplineSet
282 708 m 1
 282 792 255 839 198 839 c 0
 160 839 119 808 99 763 c 1
 99 805 l 1
 66 805 l 1
 66 744 l 1
 38 744 l 1
 38 708 l 1
 282 708 l 1
240 744 m 1
 121 744 l 1
 146 781 172 799 200 799 c 0
 227 799 240 781 240 744 c 1
331 0 m 1
 331 97 l 1
 256 97 l 2
 228 97 210 124 210 160 c 2
 206 647 l 1
 100 647 l 1
 103 118 l 2
 103 48 149 0 208 0 c 2
 331 0 l 1
EndSplineSet
EndChar

StartChar: alefwaslaisolated
Encoding: 1649 1649 226
AltUni2: 00fb50.ffffffff.0 00fb50.ffffffff.0
Width: 240
GlyphClass: 1
Flags: W
LayerCount: 2
Fore
SplineSet
282 708 m 1
 282 792 255 839 198 839 c 0
 160 839 119 808 99 763 c 1
 99 805 l 1
 66 805 l 1
 66 744 l 1
 38 744 l 1
 38 708 l 1
 282 708 l 1
240 744 m 1
 121 744 l 1
 146 781 172 799 200 799 c 0
 227 799 240 781 240 744 c 1
210 0 m 1
 205 647 l 1
 100 647 l 1
 105 0 l 1
 210 0 l 1
EndSplineSet
Substitution2: "'fina' Terminal Forms in Arabic lookup 15 subtable" alefwaslafinal
Substitution2: "'isol' Isolated Forms in Arabic lookup 13 subtable" alefwaslaisolated
AlternateSubs2: "'aalt' Access All Alternates in Latin lookup 1 subtable" alefwaslaisolated alefwaslafinal
EndChar

StartChar: righttoleft
Encoding: 8207 8207 227
Width: 20
GlyphClass: 1
Flags: W
LayerCount: 2
Fore
SplineSet
20 0 m 1
 20 722 l 1
 -76 722 l 1
 -40 758 l 1
 -54 772 l 1
 -114 711 l 1
 -54 650 l 1
 -40 664 l 1
 -78 702 l 1
 0 702 l 1
 0 0 l 1
 20 0 l 1
EndSplineSet
EndChar

StartChar: lefttoright
Encoding: 8206 8206 228
Width: 20
GlyphClass: 1
Flags: W
LayerCount: 2
Fore
SplineSet
134 711 m 1
 74 772 l 1
 60 758 l 1
 96 722 l 1
 0 722 l 1
 0 0 l 1
 20 0 l 1
 20 702 l 1
 98 702 l 1
 60 664 l 1
 74 650 l 1
 134 711 l 1
EndSplineSet
EndChar

StartChar: zerojoin
Encoding: 8205 8205 229
Width: 20
GlyphClass: 1
Flags: W
LayerCount: 2
Fore
SplineSet
71 663 m 1
 24 711 l 1
 71 758 l 1
 57 772 l 1
 10 724 l 1
 -37 772 l 1
 -51 758 l 1
 -3 711 l 1
 -51 663 l 1
 -37 650 l 1
 0 687 l 1
 0 0 l 1
 20 0 l 1
 20 687 l 1
 57 650 l 1
 71 663 l 1
EndSplineSet
EndChar

StartChar: zeronojoin
Encoding: 8204 8204 230
Width: 20
GlyphClass: 1
Flags: W
LayerCount: 2
Fore
SplineSet
20 0 m 1
 20 722 l 1
 0 722 l 1
 0 0 l 1
 20 0 l 1
EndSplineSet
EndChar

StartChar: extendedarabicindicdigitnine
Encoding: 1785 1785 231
Width: 514
GlyphClass: 1
Flags: W
LayerCount: 2
Fore
SplineSet
448 51 m 1
 447 381 l 2
 446 542 380 622 248 622 c 0
 198 622 155 604 119 568 c 0
 84 532 66 489 66 439 c 0
 66 328 130 260 238 257 c 0
 277 256 312 269 344 295 c 1
 346 0 l 1
 448 51 l 1
334 434 m 0
 334 413 327 395 313 378 c 0
 298 360 278 351 255 351 c 0
 212 350 173 387 173 434 c 0
 172 491 203 528 255 528 c 0
 304 528 334 487 334 434 c 0
EndSplineSet
EndChar

StartChar: extendedarabicindicdigiteight
Encoding: 1784 1784 232
Width: 552
GlyphClass: 1
Flags: W
LayerCount: 2
Fore
SplineSet
486 78 m 1
 326 622 l 1
 226 622 l 1
 66 78 l 1
 151 1 l 1
 276 423 l 1
 401 1 l 1
 486 78 l 1
EndSplineSet
EndChar

StartChar: extendedarabicindicdigitseven
Encoding: 1783 1783 233
Width: 552
GlyphClass: 1
Flags: W
LayerCount: 2
Fore
SplineSet
486 546 m 1
 401 622 l 1
 276 199 l 1
 151 622 l 1
 66 546 l 1
 226 1 l 1
 326 1 l 1
 486 546 l 1
EndSplineSet
EndChar

StartChar: extendedarabicindicdigitsix
Encoding: 1782 1782 234
Width: 480
GlyphClass: 1
Flags: W
LayerCount: 2
Fore
SplineSet
414 53 m 1
 413 294 412 422 411 436 c 0
 410 504 394 552 361 580 c 0
 330 607 280 620 212 620 c 2
 66 620 l 1
 66 533 l 1
 153 533 l 2
 209 533 248 523 270 502 c 0
 294 479 306 439 307 381 c 2
 309 0 l 1
 414 53 l 1
EndSplineSet
EndChar

StartChar: extendedarabicindicdigitfive
Encoding: 1781 1781 235
Width: 506
GlyphClass: 1
Flags: W
LayerCount: 2
Fore
SplineSet
440 248 m 0
 440 290 425 334 395 380 c 0
 360 435 312 476 251 501 c 1
 192 477 146 437 111 382 c 0
 81 335 66 291 66 248 c 0
 66 145 128 74 220 66 c 0
 232 63 253 63 282 66 c 0
 328 70 366 89 395 123 c 0
 425 157 440 199 440 248 c 0
340 263 m 0
 340 236 333 214 319 197 c 0
 307 181 292 171 274 168 c 0
 255 165 241 165 231 168 c 0
 213 171 198 181 186 197 c 0
 173 214 166 236 167 263 c 0
 167 287 176 313 194 340 c 0
 212 368 232 387 253 397 c 1
 274 388 293 369 312 340 c 0
 331 312 340 286 340 263 c 0
EndSplineSet
EndChar

StartChar: extendedarabicindicdigitfour
Encoding: 1780 1780 236
Width: 464
GlyphClass: 1
Flags: W
LayerCount: 2
Fore
SplineSet
398 97 m 1
 354 98 321 98 298 97 c 0
 269 96 243 101 221 111 c 0
 190 126 174 151 173 186 c 0
 172 235 190 269 228 289 c 0
 256 303 299 310 358 310 c 1
 358 369 358 400 357 401 c 0
 320 397 296 395 286 395 c 0
 225 395 194 414 193 453 c 0
 192 500 221 526 278 533 c 0
 303 536 330 536 358 534 c 1
 358 620 l 1
 345 623 329 624 310 624 c 0
 291 624 271 623 251 620 c 0
 202 613 162 593 130 560 c 0
 99 527 83 489 83 446 c 0
 83 415 93 389 114 368 c 0
 131 351 144 343 155 345 c 1
 95 313 66 259 67 182 c 0
 67 130 86 86 125 51 c 0
 164 16 216 -1 279 -1 c 0
 314 -1 334 -1 341 0 c 1
 398 97 l 1
EndSplineSet
EndChar

StartChar: extendedarabicindicdigitthree
Encoding: 1779 1779 237
Width: 551
GlyphClass: 1
Flags: W
LayerCount: 2
Fore
SplineSet
485 448 m 0
 485 493 484 550 483 620 c 1
 395 620 l 1
 396 564 396 522 396 495 c 0
 397 471 396 455 395 448 c 0
 392 427 384 417 370 417 c 0
 347 417 339 429 330 440 c 1
 330 490 329 550 328 620 c 1
 239 620 l 1
 240 564 241 522 241 495 c 0
 242 471 241 455 240 448 c 0
 237 427 229 417 215 417 c 0
 192 417 183 431 174 440 c 1
 171 619 l 1
 66 619 l 1
 71 -1 l 1
 176 53 l 1
 174 346 l 1
 175 346 l 1
 190 330 210 322 235 322 c 0
 275 322 300 337 310 367 c 1
 329 338 357 324 392 324 c 0
 427 324 452 337 466 362 c 0
 479 385 485 414 485 448 c 0
EndSplineSet
EndChar

StartChar: extendedarabicindicdigittwo
Encoding: 1778 1778 238
Width: 480
GlyphClass: 1
Flags: W
LayerCount: 2
Fore
SplineSet
414 533 m 1
 414 620 l 1
 262 620 l 2
 194 620 145 606 115 578 c 0
 82 549 66 500 67 432 c 2
 73 0 l 1
 177 53 l 1
 174 265 173 373 173 377 c 0
 172 436 182 476 201 499 c 0
 220 522 257 533 311 533 c 2
 414 533 l 1
EndSplineSet
EndChar

StartChar: extendedarabicindicdigitone
Encoding: 1777 1777 239
Width: 240
GlyphClass: 1
Flags: W
LayerCount: 2
Fore
SplineSet
174 51 m 1
 170 619 l 1
 66 619 l 1
 71 0 l 1
 174 51 l 1
EndSplineSet
EndChar

StartChar: extendedarabicindicdigitzero
Encoding: 1776 1776 240
Width: 295
GlyphClass: 1
Flags: W
LayerCount: 2
Fore
SplineSet
207 119 m 1
 207 257 l 1
 88 205 l 1
 88 67 l 1
 207 119 l 1
EndSplineSet
EndChar

StartChar: superscriptalef
Encoding: 1648 1648 241
Width: 0
GlyphClass: 1
Flags: W
LayerCount: 2
Fore
SplineSet
23 714 m 1
 67 714 l 1
 67 918 l 1
 23 918 l 1
 23 714 l 1
EndSplineSet
EndChar

StartChar: maddaabove
Encoding: 1619 1619 242
Width: 0
GlyphClass: 1
Flags: W
LayerCount: 2
Fore
SplineSet
271 795 m 1
 232 795 l 1
 230 772 217 760 193 760 c 0
 185 760 169 765 144 774 c 0
 120 783 100 788 85 788 c 0
 46 788 19 753 14 708 c 1
 50 708 l 1
 54 731 66 742 85 742 c 0
 95 742 112 737 136 728 c 0
 160 719 179 715 193 715 c 0
 215 715 233 723 248 740 c 0
 261 753 268 772 271 795 c 1
EndSplineSet
EndChar

StartChar: hamzaabove
Encoding: 1620 1620 243
Width: 0
GlyphClass: 1
Flags: W
LayerCount: 2
Fore
SplineSet
206 708 m 1
 206 757 l 1
 173 757 l 2
 147 757 134 767 135 786 c 0
 136 801 142 808 155 807 c 0
 164 806 172 802 180 794 c 1
 204 831 l 1
 189 850 172 859 151 859 c 0
 114 859 85 828 85 788 c 0
 85 776 88 766 94 757 c 1
 51 757 l 1
 28 708 l 1
 206 708 l 1
EndSplineSet
EndChar

StartChar: hamzabelow
Encoding: 1621 1621 244
Width: 0
GlyphClass: 1
Flags: W
LayerCount: 2
Fore
SplineSet
206 -209 m 1
 206 -160 l 1
 173 -160 l 2
 147 -160 134 -150 135 -131 c 0
 136 -116 142 -109 155 -110 c 0
 164 -111 172 -115 180 -123 c 1
 204 -86 l 1
 189 -67 172 -58 151 -58 c 0
 114 -58 85 -89 85 -129 c 0
 85 -141 88 -151 94 -160 c 1
 51 -160 l 1
 28 -209 l 1
 206 -209 l 1
EndSplineSet
EndChar

StartChar: at
Encoding: 42 42 247
Width: 479
GlyphClass: 1
Flags: W
LayerCount: 2
Fore
SplineSet
387 145 m 1
 387 195 l 1
 269 184 l 1
 336 279 l 1
 291 308 l 1
 240 198 l 1
 191 308 l 1
 141 278 l 1
 209 183 l 1
 92 195 l 1
 92 143 l 1
 209 151 l 1
 143 54 l 1
 191 25 l 1
 240 134 l 1
 292 30 l 1
 342 54 l 1
 272 152 l 1
 387 145 l 1
EndSplineSet
EndChar
